G04*
G04 #@! TF.GenerationSoftware,Altium Limited,Altium Designer,25.6.2 (33)*
G04*
G04 Layer_Color=65535*
%FSLAX44Y44*%
%MOMM*%
G71*
G04*
G04 #@! TF.SameCoordinates,9B6F8C68-430D-48FD-858A-4A9C4FCAB163*
G04*
G04*
G04 #@! TF.FilePolarity,Positive*
G04*
G01*
G75*
%ADD10C,0.2000*%
%ADD11C,0.1270*%
%ADD12C,0.2540*%
%ADD13C,0.1778*%
%ADD14C,0.1000*%
G36*
X104508Y70862D02*
Y66720D01*
X104496Y67131D01*
X104461Y67494D01*
X104449Y67670D01*
X104425Y67823D01*
X104402Y67976D01*
X104379Y68105D01*
X104343Y68222D01*
X104320Y68327D01*
X104296Y68421D01*
X104285Y68492D01*
X104261Y68551D01*
X104249Y68597D01*
X104238Y68621D01*
Y68633D01*
X104132Y68914D01*
X104003Y69172D01*
X103874Y69395D01*
X103745Y69583D01*
X103639Y69736D01*
X103545Y69853D01*
X103487Y69924D01*
X103475Y69947D01*
X103463D01*
X103264Y70135D01*
X103064Y70287D01*
X102853Y70416D01*
X102665Y70522D01*
X102501Y70604D01*
X102360Y70663D01*
X102313Y70675D01*
X102278Y70686D01*
X102255Y70698D01*
X102243D01*
X102020Y70757D01*
X101773Y70792D01*
X101515Y70827D01*
X101269Y70839D01*
X101046Y70851D01*
X100952Y70862D01*
X97713D01*
Y62742D01*
X100788D01*
X101104Y62754D01*
X101398Y62765D01*
X101644Y62789D01*
X101844Y62824D01*
X102008Y62859D01*
X102137Y62883D01*
X102172Y62894D01*
X102208D01*
X102219Y62906D01*
X102231D01*
X102489Y63000D01*
X102724Y63106D01*
X102912Y63211D01*
X103076Y63317D01*
X103205Y63411D01*
X103299Y63481D01*
X103358Y63528D01*
X103381Y63552D01*
X103581Y63774D01*
X103757Y64009D01*
X103909Y64255D01*
X104026Y64479D01*
X104120Y64690D01*
X104167Y64772D01*
X104191Y64842D01*
X104214Y64913D01*
X104238Y64960D01*
X104249Y64983D01*
Y64995D01*
X104332Y65276D01*
X104402Y65570D01*
X104449Y65851D01*
X104472Y66121D01*
X104484Y66251D01*
X104496Y66368D01*
Y66462D01*
X104508Y66556D01*
Y62742D01*
Y60452D01*
X80404D01*
Y62589D01*
Y66825D01*
X80428Y66391D01*
X80475Y65992D01*
X80557Y65628D01*
X80592Y65452D01*
X80639Y65300D01*
X80686Y65159D01*
X80721Y65030D01*
X80768Y64924D01*
X80803Y64831D01*
X80827Y64760D01*
X80850Y64701D01*
X80874Y64666D01*
Y64654D01*
X81073Y64303D01*
X81296Y63997D01*
X81531Y63727D01*
X81766Y63516D01*
X81871Y63422D01*
X81977Y63340D01*
X82059Y63270D01*
X82141Y63223D01*
X82200Y63176D01*
X82259Y63141D01*
X82282Y63129D01*
X82294Y63117D01*
X82481Y63023D01*
X82657Y62941D01*
X83045Y62812D01*
X83420Y62718D01*
X83760Y62660D01*
X83925Y62636D01*
X84066Y62613D01*
X84195Y62601D01*
X84312D01*
X84394Y62589D01*
X84523D01*
X84899Y62601D01*
X85251Y62648D01*
X85591Y62707D01*
X85885Y62777D01*
X86014Y62812D01*
X86131Y62847D01*
X86237Y62883D01*
X86330Y62906D01*
X86401Y62930D01*
X86448Y62953D01*
X86483Y62965D01*
X86495D01*
X86847Y63106D01*
X87140Y63258D01*
X87398Y63411D01*
X87621Y63540D01*
X87786Y63657D01*
X87844Y63704D01*
X87903Y63751D01*
X87938Y63786D01*
X87973Y63810D01*
X87997Y63833D01*
Y67095D01*
X84465D01*
Y65722D01*
X86342D01*
Y64678D01*
X86201Y64572D01*
X86049Y64479D01*
X85896Y64396D01*
X85755Y64326D01*
X85638Y64267D01*
X85533Y64220D01*
X85474Y64197D01*
X85462Y64185D01*
X85450D01*
X85263Y64115D01*
X85075Y64068D01*
X84899Y64033D01*
X84746Y64009D01*
X84605Y63997D01*
X84511Y63986D01*
X84418D01*
X84230Y63997D01*
X84042Y64021D01*
X83878Y64056D01*
X83714Y64103D01*
X83420Y64220D01*
X83303Y64279D01*
X83186Y64349D01*
X83080Y64420D01*
X82986Y64479D01*
X82916Y64549D01*
X82845Y64596D01*
X82798Y64643D01*
X82763Y64678D01*
X82740Y64701D01*
X82728Y64713D01*
X82622Y64854D01*
X82517Y65018D01*
X82435Y65183D01*
X82364Y65359D01*
X82247Y65722D01*
X82176Y66074D01*
X82153Y66239D01*
X82129Y66403D01*
X82118Y66532D01*
X82106Y66661D01*
X82094Y66755D01*
Y66837D01*
Y66884D01*
Y66896D01*
X82106Y67142D01*
X82118Y67365D01*
X82153Y67588D01*
X82188Y67788D01*
X82235Y67964D01*
X82294Y68128D01*
X82352Y68281D01*
X82411Y68421D01*
X82458Y68539D01*
X82517Y68644D01*
X82575Y68727D01*
X82622Y68797D01*
X82657Y68856D01*
X82693Y68891D01*
X82704Y68914D01*
X82716Y68926D01*
X82845Y69043D01*
X82974Y69161D01*
X83115Y69243D01*
X83256Y69325D01*
X83397Y69395D01*
X83538Y69454D01*
X83807Y69536D01*
X83937Y69560D01*
X84054Y69583D01*
X84159Y69595D01*
X84253Y69607D01*
X84324Y69618D01*
X84429D01*
X84688Y69607D01*
X84910Y69560D01*
X85110Y69513D01*
X85286Y69442D01*
X85415Y69384D01*
X85521Y69325D01*
X85579Y69278D01*
X85603Y69266D01*
X85767Y69125D01*
X85908Y68973D01*
X86025Y68820D01*
X86108Y68668D01*
X86178Y68527D01*
X86225Y68421D01*
X86248Y68351D01*
X86260Y68339D01*
Y68327D01*
X87891Y68633D01*
X87844Y68832D01*
X87774Y69032D01*
X87703Y69208D01*
X87610Y69372D01*
X87527Y69536D01*
X87434Y69677D01*
X87340Y69806D01*
X87246Y69924D01*
X87152Y70029D01*
X87070Y70123D01*
X86999Y70205D01*
X86929Y70264D01*
X86870Y70311D01*
X86823Y70358D01*
X86800Y70369D01*
X86788Y70381D01*
X86624Y70498D01*
X86448Y70592D01*
X86260Y70675D01*
X86060Y70745D01*
X85673Y70862D01*
X85298Y70933D01*
X85122Y70968D01*
X84958Y70980D01*
X84805Y70991D01*
X84676Y71003D01*
X84570Y71015D01*
X84429D01*
X84007Y71003D01*
X83631Y70956D01*
X83467Y70921D01*
X83303Y70886D01*
X83150Y70851D01*
X83021Y70815D01*
X82904Y70768D01*
X82787Y70733D01*
X82704Y70698D01*
X82622Y70675D01*
X82564Y70639D01*
X82517Y70627D01*
X82493Y70604D01*
X82481D01*
X82118Y70393D01*
X81965Y70264D01*
X81812Y70146D01*
X81672Y70017D01*
X81543Y69888D01*
X81425Y69759D01*
X81320Y69642D01*
X81237Y69524D01*
X81155Y69419D01*
X81085Y69325D01*
X81026Y69243D01*
X80991Y69172D01*
X80956Y69125D01*
X80944Y69090D01*
X80932Y69079D01*
X80838Y68891D01*
X80756Y68703D01*
X80627Y68316D01*
X80533Y67929D01*
X80475Y67588D01*
X80451Y67424D01*
X80428Y67283D01*
X80416Y67154D01*
Y67037D01*
X80404Y66955D01*
Y71015D01*
Y73152D01*
X104508D01*
Y70862D01*
D02*
G37*
G36*
X100576Y69478D02*
X100717D01*
X100835Y69466D01*
X100940D01*
X101046Y69454D01*
X101128D01*
X101257Y69431D01*
X101351Y69419D01*
X101410Y69407D01*
X101421D01*
X101586Y69360D01*
X101727Y69302D01*
X101856Y69243D01*
X101973Y69172D01*
X102055Y69114D01*
X102126Y69067D01*
X102161Y69032D01*
X102172Y69020D01*
X102278Y68903D01*
X102372Y68773D01*
X102454Y68644D01*
X102524Y68527D01*
X102571Y68410D01*
X102607Y68316D01*
X102630Y68257D01*
X102642Y68245D01*
Y68234D01*
X102701Y68022D01*
X102747Y67800D01*
X102771Y67553D01*
X102794Y67318D01*
X102806Y67119D01*
X102818Y67025D01*
Y66943D01*
Y66884D01*
Y66837D01*
Y66802D01*
Y66790D01*
X102806Y66462D01*
X102794Y66157D01*
X102759Y65910D01*
X102736Y65699D01*
X102701Y65523D01*
X102689Y65452D01*
X102665Y65406D01*
X102654Y65359D01*
Y65323D01*
X102642Y65312D01*
Y65300D01*
X102571Y65112D01*
X102513Y64948D01*
X102431Y64819D01*
X102372Y64713D01*
X102313Y64631D01*
X102266Y64572D01*
X102231Y64537D01*
X102219Y64525D01*
X102114Y64443D01*
X102008Y64373D01*
X101903Y64314D01*
X101797Y64267D01*
X101703Y64232D01*
X101633Y64209D01*
X101586Y64185D01*
X101562D01*
X101433Y64162D01*
X101281Y64150D01*
X101116Y64127D01*
X100952D01*
X100799Y64115D01*
X99356D01*
Y69489D01*
X100424D01*
X100576Y69478D01*
D02*
G37*
G36*
X104508Y87989D02*
X80404D01*
Y98149D01*
X104508D01*
Y87989D01*
D02*
G37*
G36*
X75015Y129036D02*
X47075D01*
Y139196D01*
X75015D01*
Y129036D01*
D02*
G37*
G36*
X79756Y179070D02*
X51816D01*
Y189230D01*
X79756D01*
Y179070D01*
D02*
G37*
G36*
X75015Y115829D02*
X47075D01*
Y125990D01*
X75015D01*
Y115829D01*
D02*
G37*
G36*
X79756Y192276D02*
X51816D01*
Y202436D01*
X79756D01*
Y192276D01*
D02*
G37*
G36*
X63246Y155448D02*
X48006D01*
Y165608D01*
X63246D01*
Y155448D01*
D02*
G37*
%LPC*%
G36*
X95976Y70862D02*
X94463D01*
Y65394D01*
X91107Y70862D01*
X89522D01*
Y62742D01*
X91036D01*
Y68093D01*
X94334Y62742D01*
X95976D01*
Y70862D01*
D02*
G37*
G36*
X96276Y97182D02*
X94527D01*
X92544Y91174D01*
X90479Y97182D01*
X88707D01*
X91617Y89062D01*
X93389D01*
X96276Y97182D01*
D02*
G37*
G36*
X99421Y97229D02*
X99315D01*
X99069Y97218D01*
X98846Y97194D01*
X98634Y97147D01*
X98458Y97100D01*
X98317Y97053D01*
X98200Y97006D01*
X98130Y96983D01*
X98118Y96971D01*
X98106D01*
X97919Y96865D01*
X97743Y96748D01*
X97602Y96631D01*
X97484Y96525D01*
X97390Y96419D01*
X97320Y96337D01*
X97273Y96290D01*
X97261Y96267D01*
X97156Y96091D01*
X97062Y95903D01*
X96992Y95704D01*
X96921Y95516D01*
X96874Y95340D01*
X96839Y95211D01*
X96827Y95152D01*
Y95117D01*
X96816Y95093D01*
Y95082D01*
X98247Y94847D01*
X98282Y95035D01*
X98329Y95199D01*
X98376Y95340D01*
X98435Y95445D01*
X98494Y95539D01*
X98540Y95610D01*
X98576Y95645D01*
X98587Y95657D01*
X98693Y95751D01*
X98810Y95821D01*
X98928Y95868D01*
X99033Y95903D01*
X99127Y95927D01*
X99198Y95938D01*
X99268D01*
X99409Y95927D01*
X99550Y95903D01*
X99655Y95856D01*
X99749Y95821D01*
X99831Y95774D01*
X99878Y95727D01*
X99914Y95704D01*
X99925Y95692D01*
X100007Y95598D01*
X100066Y95481D01*
X100113Y95375D01*
X100136Y95269D01*
X100160Y95176D01*
X100172Y95105D01*
Y95058D01*
Y95035D01*
X100160Y94859D01*
X100125Y94706D01*
X100066Y94577D01*
X100007Y94472D01*
X99937Y94378D01*
X99890Y94319D01*
X99843Y94272D01*
X99831Y94260D01*
X99691Y94166D01*
X99538Y94096D01*
X99374Y94049D01*
X99221Y94014D01*
X99080Y94002D01*
X98963Y93990D01*
X98857D01*
X98693Y92735D01*
X98846Y92770D01*
X98975Y92805D01*
X99104Y92829D01*
X99209Y92840D01*
X99291Y92852D01*
X99409D01*
X99573Y92840D01*
X99714Y92793D01*
X99843Y92746D01*
X99960Y92676D01*
X100042Y92617D01*
X100113Y92559D01*
X100160Y92512D01*
X100172Y92500D01*
X100277Y92359D01*
X100359Y92207D01*
X100418Y92054D01*
X100465Y91902D01*
X100489Y91761D01*
X100500Y91655D01*
Y91585D01*
Y91573D01*
Y91561D01*
X100489Y91338D01*
X100453Y91139D01*
X100395Y90963D01*
X100336Y90822D01*
X100266Y90716D01*
X100219Y90634D01*
X100172Y90576D01*
X100160Y90564D01*
X100031Y90447D01*
X99890Y90353D01*
X99761Y90294D01*
X99632Y90247D01*
X99515Y90224D01*
X99432Y90212D01*
X99374Y90200D01*
X99350D01*
X99186Y90212D01*
X99045Y90247D01*
X98916Y90294D01*
X98799Y90353D01*
X98716Y90400D01*
X98646Y90447D01*
X98599Y90482D01*
X98587Y90493D01*
X98482Y90623D01*
X98388Y90763D01*
X98329Y90916D01*
X98271Y91057D01*
X98235Y91186D01*
X98212Y91291D01*
X98200Y91362D01*
Y91374D01*
Y91385D01*
X96698Y91198D01*
X96722Y91010D01*
X96769Y90834D01*
X96874Y90505D01*
X97003Y90224D01*
X97085Y90106D01*
X97156Y89989D01*
X97226Y89883D01*
X97297Y89801D01*
X97355Y89719D01*
X97414Y89660D01*
X97461Y89613D01*
X97496Y89578D01*
X97520Y89555D01*
X97531Y89543D01*
X97672Y89437D01*
X97825Y89332D01*
X97965Y89249D01*
X98130Y89179D01*
X98435Y89062D01*
X98716Y88991D01*
X98857Y88968D01*
X98975Y88944D01*
X99080Y88933D01*
X99174Y88921D01*
X99256Y88909D01*
X99362D01*
X99573Y88921D01*
X99784Y88944D01*
X99972Y88980D01*
X100160Y89027D01*
X100324Y89085D01*
X100489Y89144D01*
X100641Y89214D01*
X100770Y89285D01*
X100887Y89355D01*
X101005Y89426D01*
X101087Y89484D01*
X101169Y89543D01*
X101228Y89590D01*
X101275Y89625D01*
X101298Y89649D01*
X101310Y89660D01*
X101451Y89801D01*
X101568Y89954D01*
X101674Y90106D01*
X101768Y90259D01*
X101838Y90423D01*
X101908Y90576D01*
X102002Y90857D01*
X102026Y90986D01*
X102049Y91115D01*
X102073Y91221D01*
X102084Y91315D01*
X102096Y91385D01*
Y91491D01*
X102073Y91761D01*
X102026Y91995D01*
X101967Y92218D01*
X101885Y92395D01*
X101803Y92547D01*
X101744Y92653D01*
X101697Y92723D01*
X101674Y92746D01*
X101509Y92922D01*
X101322Y93075D01*
X101134Y93192D01*
X100958Y93286D01*
X100805Y93357D01*
X100676Y93392D01*
X100629Y93415D01*
X100594D01*
X100571Y93427D01*
X100559D01*
X100770Y93556D01*
X100946Y93685D01*
X101099Y93826D01*
X101240Y93967D01*
X101357Y94108D01*
X101451Y94249D01*
X101521Y94389D01*
X101592Y94518D01*
X101638Y94648D01*
X101674Y94765D01*
X101697Y94871D01*
X101709Y94964D01*
X101721Y95035D01*
X101732Y95093D01*
Y95129D01*
Y95140D01*
X101721Y95281D01*
X101709Y95410D01*
X101638Y95668D01*
X101556Y95903D01*
X101451Y96103D01*
X101345Y96267D01*
X101251Y96384D01*
X101216Y96431D01*
X101181Y96466D01*
X101169Y96478D01*
X101157Y96490D01*
X101028Y96619D01*
X100876Y96736D01*
X100735Y96830D01*
X100582Y96912D01*
X100418Y96994D01*
X100266Y97053D01*
X99972Y97135D01*
X99843Y97170D01*
X99714Y97194D01*
X99608Y97206D01*
X99503Y97218D01*
X99421Y97229D01*
D02*
G37*
G36*
X85538D02*
X85433D01*
X85186Y97218D01*
X84963Y97194D01*
X84752Y97147D01*
X84576Y97100D01*
X84435Y97053D01*
X84318Y97006D01*
X84248Y96983D01*
X84236Y96971D01*
X84224D01*
X84036Y96865D01*
X83860Y96748D01*
X83719Y96631D01*
X83602Y96525D01*
X83508Y96419D01*
X83438Y96337D01*
X83391Y96290D01*
X83379Y96267D01*
X83273Y96091D01*
X83180Y95903D01*
X83109Y95704D01*
X83039Y95516D01*
X82992Y95340D01*
X82957Y95211D01*
X82945Y95152D01*
Y95117D01*
X82933Y95093D01*
Y95082D01*
X84365Y94847D01*
X84400Y95035D01*
X84447Y95199D01*
X84494Y95340D01*
X84553Y95445D01*
X84611Y95539D01*
X84658Y95610D01*
X84693Y95645D01*
X84705Y95657D01*
X84811Y95751D01*
X84928Y95821D01*
X85045Y95868D01*
X85151Y95903D01*
X85245Y95927D01*
X85315Y95938D01*
X85386D01*
X85527Y95927D01*
X85667Y95903D01*
X85773Y95856D01*
X85867Y95821D01*
X85949Y95774D01*
X85996Y95727D01*
X86031Y95704D01*
X86043Y95692D01*
X86125Y95598D01*
X86184Y95481D01*
X86231Y95375D01*
X86254Y95269D01*
X86278Y95176D01*
X86289Y95105D01*
Y95058D01*
Y95035D01*
X86278Y94859D01*
X86242Y94706D01*
X86184Y94577D01*
X86125Y94472D01*
X86055Y94378D01*
X86008Y94319D01*
X85961Y94272D01*
X85949Y94260D01*
X85808Y94166D01*
X85656Y94096D01*
X85491Y94049D01*
X85339Y94014D01*
X85198Y94002D01*
X85081Y93990D01*
X84975D01*
X84811Y92735D01*
X84963Y92770D01*
X85092Y92805D01*
X85222Y92829D01*
X85327Y92840D01*
X85409Y92852D01*
X85527D01*
X85691Y92840D01*
X85832Y92793D01*
X85961Y92746D01*
X86078Y92676D01*
X86160Y92617D01*
X86231Y92559D01*
X86278Y92512D01*
X86289Y92500D01*
X86395Y92359D01*
X86477Y92207D01*
X86536Y92054D01*
X86583Y91902D01*
X86606Y91761D01*
X86618Y91655D01*
Y91585D01*
Y91573D01*
Y91561D01*
X86606Y91338D01*
X86571Y91139D01*
X86512Y90963D01*
X86454Y90822D01*
X86383Y90716D01*
X86336Y90634D01*
X86289Y90576D01*
X86278Y90564D01*
X86149Y90447D01*
X86008Y90353D01*
X85879Y90294D01*
X85750Y90247D01*
X85632Y90224D01*
X85550Y90212D01*
X85491Y90200D01*
X85468D01*
X85304Y90212D01*
X85163Y90247D01*
X85034Y90294D01*
X84916Y90353D01*
X84834Y90400D01*
X84764Y90447D01*
X84717Y90482D01*
X84705Y90493D01*
X84600Y90623D01*
X84506Y90763D01*
X84447Y90916D01*
X84388Y91057D01*
X84353Y91186D01*
X84330Y91291D01*
X84318Y91362D01*
Y91374D01*
Y91385D01*
X82816Y91198D01*
X82839Y91010D01*
X82886Y90834D01*
X82992Y90505D01*
X83121Y90224D01*
X83203Y90106D01*
X83273Y89989D01*
X83344Y89883D01*
X83414Y89801D01*
X83473Y89719D01*
X83532Y89660D01*
X83579Y89613D01*
X83614Y89578D01*
X83637Y89555D01*
X83649Y89543D01*
X83790Y89437D01*
X83942Y89332D01*
X84083Y89249D01*
X84248Y89179D01*
X84553Y89062D01*
X84834Y88991D01*
X84975Y88968D01*
X85092Y88944D01*
X85198Y88933D01*
X85292Y88921D01*
X85374Y88909D01*
X85480D01*
X85691Y88921D01*
X85902Y88944D01*
X86090Y88980D01*
X86278Y89027D01*
X86442Y89085D01*
X86606Y89144D01*
X86759Y89214D01*
X86888Y89285D01*
X87005Y89355D01*
X87122Y89426D01*
X87205Y89484D01*
X87287Y89543D01*
X87346Y89590D01*
X87392Y89625D01*
X87416Y89649D01*
X87428Y89660D01*
X87569Y89801D01*
X87686Y89954D01*
X87791Y90106D01*
X87885Y90259D01*
X87956Y90423D01*
X88026Y90576D01*
X88120Y90857D01*
X88144Y90986D01*
X88167Y91115D01*
X88190Y91221D01*
X88202Y91315D01*
X88214Y91385D01*
Y91491D01*
X88190Y91761D01*
X88144Y91995D01*
X88085Y92218D01*
X88003Y92395D01*
X87921Y92547D01*
X87862Y92653D01*
X87815Y92723D01*
X87791Y92746D01*
X87627Y92922D01*
X87439Y93075D01*
X87252Y93192D01*
X87076Y93286D01*
X86923Y93357D01*
X86794Y93392D01*
X86747Y93415D01*
X86712D01*
X86688Y93427D01*
X86677D01*
X86888Y93556D01*
X87064Y93685D01*
X87216Y93826D01*
X87357Y93967D01*
X87475Y94108D01*
X87569Y94249D01*
X87639Y94389D01*
X87709Y94518D01*
X87756Y94648D01*
X87791Y94765D01*
X87815Y94871D01*
X87827Y94964D01*
X87838Y95035D01*
X87850Y95093D01*
Y95129D01*
Y95140D01*
X87838Y95281D01*
X87827Y95410D01*
X87756Y95668D01*
X87674Y95903D01*
X87569Y96103D01*
X87463Y96267D01*
X87369Y96384D01*
X87334Y96431D01*
X87299Y96466D01*
X87287Y96478D01*
X87275Y96490D01*
X87146Y96619D01*
X86994Y96736D01*
X86853Y96830D01*
X86700Y96912D01*
X86536Y96994D01*
X86383Y97053D01*
X86090Y97135D01*
X85961Y97170D01*
X85832Y97194D01*
X85726Y97206D01*
X85620Y97218D01*
X85538Y97229D01*
D02*
G37*
G36*
X66695Y135988D02*
X65135D01*
Y133500D01*
Y133277D01*
Y133077D01*
X65123Y132890D01*
X65111Y132725D01*
Y132573D01*
X65100Y132444D01*
X65088Y132338D01*
X65076Y132233D01*
X65064Y132150D01*
X65052Y132092D01*
X65041Y132033D01*
Y131986D01*
X65017Y131927D01*
Y131916D01*
X64970Y131798D01*
X64900Y131693D01*
X64830Y131610D01*
X64759Y131528D01*
X64689Y131458D01*
X64630Y131411D01*
X64595Y131388D01*
X64583Y131376D01*
X64466Y131305D01*
X64337Y131258D01*
X64219Y131212D01*
X64102Y131188D01*
X64008Y131176D01*
X63938Y131165D01*
X63867D01*
X63738Y131176D01*
X63633Y131188D01*
X63527Y131212D01*
X63445Y131247D01*
X63374Y131270D01*
X63327Y131294D01*
X63292Y131305D01*
X63281Y131317D01*
X63198Y131388D01*
X63140Y131458D01*
X63081Y131528D01*
X63046Y131599D01*
X63011Y131669D01*
X62987Y131716D01*
X62976Y131751D01*
Y131763D01*
X62964Y131822D01*
X62952Y131904D01*
X62940Y132009D01*
X62929Y132115D01*
X62917Y132361D01*
X62905Y132631D01*
X62893Y132878D01*
Y132984D01*
Y133077D01*
Y133160D01*
Y133218D01*
Y133265D01*
Y133277D01*
Y135988D01*
X61333D01*
Y132256D01*
X61344Y131963D01*
X61368Y131704D01*
X61403Y131481D01*
X61438Y131294D01*
X61473Y131141D01*
X61509Y131035D01*
X61532Y130977D01*
X61544Y130953D01*
X61638Y130789D01*
X61743Y130637D01*
X61849Y130519D01*
X61966Y130414D01*
X62060Y130331D01*
X62154Y130273D01*
X62201Y130238D01*
X62224Y130226D01*
X62400Y130144D01*
X62588Y130073D01*
X62764Y130026D01*
X62940Y130003D01*
X63081Y129979D01*
X63187Y129968D01*
X63292D01*
X63503Y129979D01*
X63703Y130003D01*
X63891Y130050D01*
X64055Y130097D01*
X64196Y130144D01*
X64302Y130191D01*
X64372Y130214D01*
X64395Y130226D01*
X64583Y130331D01*
X64747Y130461D01*
X64900Y130578D01*
X65017Y130707D01*
X65123Y130813D01*
X65193Y130895D01*
X65240Y130953D01*
X65252Y130977D01*
Y130097D01*
X66695D01*
Y135988D01*
D02*
G37*
G36*
X73889Y138217D02*
X68315D01*
Y130097D01*
X69958D01*
Y133547D01*
X73349D01*
Y134920D01*
X69958D01*
Y136844D01*
X73889D01*
Y138217D01*
D02*
G37*
G36*
X57507Y138264D02*
X57390D01*
X57190Y138252D01*
X57003Y138241D01*
X56639Y138182D01*
X56334Y138088D01*
X56193Y138041D01*
X56064Y137983D01*
X55946Y137936D01*
X55852Y137877D01*
X55759Y137830D01*
X55688Y137795D01*
X55630Y137748D01*
X55594Y137724D01*
X55571Y137713D01*
X55559Y137701D01*
X55430Y137584D01*
X55313Y137466D01*
X55207Y137325D01*
X55113Y137173D01*
X54972Y136868D01*
X54855Y136574D01*
X54820Y136422D01*
X54785Y136293D01*
X54749Y136175D01*
X54738Y136070D01*
X54714Y135976D01*
Y135917D01*
X54702Y135870D01*
Y135858D01*
X56251Y135706D01*
X56275Y135941D01*
X56322Y136140D01*
X56369Y136316D01*
X56427Y136445D01*
X56474Y136551D01*
X56521Y136621D01*
X56557Y136668D01*
X56568Y136680D01*
X56686Y136774D01*
X56815Y136844D01*
X56944Y136903D01*
X57073Y136938D01*
X57179Y136962D01*
X57272Y136973D01*
X57354D01*
X57530Y136962D01*
X57683Y136926D01*
X57812Y136879D01*
X57930Y136833D01*
X58012Y136786D01*
X58082Y136739D01*
X58117Y136703D01*
X58129Y136692D01*
X58223Y136574D01*
X58293Y136445D01*
X58340Y136316D01*
X58375Y136187D01*
X58399Y136070D01*
X58411Y135964D01*
Y135905D01*
Y135894D01*
Y135882D01*
X58399Y135706D01*
X58364Y135542D01*
X58305Y135377D01*
X58246Y135237D01*
X58188Y135107D01*
X58129Y135014D01*
X58094Y134955D01*
X58082Y134931D01*
X58035Y134861D01*
X57965Y134779D01*
X57871Y134673D01*
X57777Y134579D01*
X57566Y134356D01*
X57354Y134134D01*
X57143Y133922D01*
X57049Y133828D01*
X56955Y133758D01*
X56885Y133688D01*
X56838Y133641D01*
X56803Y133605D01*
X56791Y133594D01*
X56557Y133371D01*
X56345Y133160D01*
X56146Y132960D01*
X55970Y132784D01*
X55806Y132608D01*
X55665Y132444D01*
X55536Y132303D01*
X55430Y132162D01*
X55336Y132045D01*
X55254Y131939D01*
X55184Y131857D01*
X55137Y131775D01*
X55090Y131728D01*
X55066Y131681D01*
X55043Y131657D01*
Y131646D01*
X54890Y131376D01*
X54773Y131094D01*
X54679Y130836D01*
X54609Y130601D01*
X54562Y130390D01*
X54550Y130308D01*
X54538Y130238D01*
X54526Y130179D01*
X54515Y130132D01*
Y130097D01*
X59971D01*
Y131540D01*
X56873D01*
X56967Y131693D01*
X57073Y131822D01*
X57120Y131880D01*
X57155Y131927D01*
X57179Y131951D01*
X57190Y131963D01*
X57237Y132009D01*
X57284Y132068D01*
X57425Y132197D01*
X57578Y132350D01*
X57730Y132502D01*
X57883Y132643D01*
X58012Y132760D01*
X58059Y132808D01*
X58094Y132843D01*
X58117Y132854D01*
X58129Y132866D01*
X58387Y133113D01*
X58598Y133312D01*
X58774Y133500D01*
X58915Y133641D01*
X59021Y133758D01*
X59091Y133840D01*
X59138Y133899D01*
X59150Y133911D01*
X59303Y134110D01*
X59432Y134298D01*
X59537Y134474D01*
X59619Y134626D01*
X59690Y134755D01*
X59737Y134861D01*
X59760Y134920D01*
X59772Y134943D01*
X59842Y135131D01*
X59889Y135319D01*
X59924Y135495D01*
X59948Y135659D01*
X59960Y135788D01*
X59971Y135894D01*
Y135988D01*
X59960Y136164D01*
X59936Y136340D01*
X59913Y136504D01*
X59866Y136657D01*
X59748Y136926D01*
X59631Y137161D01*
X59561Y137267D01*
X59502Y137349D01*
X59443Y137431D01*
X59385Y137490D01*
X59338Y137537D01*
X59314Y137584D01*
X59291Y137595D01*
X59279Y137607D01*
X59150Y137724D01*
X58997Y137830D01*
X58857Y137912D01*
X58692Y137983D01*
X58387Y138100D01*
X58082Y138182D01*
X57941Y138205D01*
X57812Y138229D01*
X57695Y138241D01*
X57589Y138252D01*
X57507Y138264D01*
D02*
G37*
G36*
X51194D02*
X51076D01*
X50877Y138252D01*
X50689Y138241D01*
X50325Y138182D01*
X50020Y138088D01*
X49879Y138041D01*
X49750Y137983D01*
X49633Y137936D01*
X49539Y137877D01*
X49445Y137830D01*
X49375Y137795D01*
X49316Y137748D01*
X49281Y137724D01*
X49257Y137713D01*
X49246Y137701D01*
X49117Y137584D01*
X48999Y137466D01*
X48894Y137325D01*
X48800Y137173D01*
X48659Y136868D01*
X48542Y136574D01*
X48506Y136422D01*
X48471Y136293D01*
X48436Y136175D01*
X48424Y136070D01*
X48401Y135976D01*
Y135917D01*
X48389Y135870D01*
Y135858D01*
X49938Y135706D01*
X49962Y135941D01*
X50009Y136140D01*
X50055Y136316D01*
X50114Y136445D01*
X50161Y136551D01*
X50208Y136621D01*
X50243Y136668D01*
X50255Y136680D01*
X50372Y136774D01*
X50501Y136844D01*
X50630Y136903D01*
X50760Y136938D01*
X50865Y136962D01*
X50959Y136973D01*
X51041D01*
X51217Y136962D01*
X51370Y136926D01*
X51499Y136879D01*
X51616Y136833D01*
X51698Y136786D01*
X51769Y136739D01*
X51804Y136703D01*
X51816Y136692D01*
X51909Y136574D01*
X51980Y136445D01*
X52027Y136316D01*
X52062Y136187D01*
X52086Y136070D01*
X52097Y135964D01*
Y135905D01*
Y135894D01*
Y135882D01*
X52086Y135706D01*
X52050Y135542D01*
X51992Y135377D01*
X51933Y135237D01*
X51874Y135107D01*
X51816Y135014D01*
X51781Y134955D01*
X51769Y134931D01*
X51722Y134861D01*
X51651Y134779D01*
X51557Y134673D01*
X51464Y134579D01*
X51252Y134356D01*
X51041Y134134D01*
X50830Y133922D01*
X50736Y133828D01*
X50642Y133758D01*
X50572Y133688D01*
X50525Y133641D01*
X50490Y133605D01*
X50478Y133594D01*
X50243Y133371D01*
X50032Y133160D01*
X49833Y132960D01*
X49657Y132784D01*
X49492Y132608D01*
X49351Y132444D01*
X49222Y132303D01*
X49117Y132162D01*
X49023Y132045D01*
X48941Y131939D01*
X48870Y131857D01*
X48823Y131775D01*
X48776Y131728D01*
X48753Y131681D01*
X48729Y131657D01*
Y131646D01*
X48577Y131376D01*
X48460Y131094D01*
X48366Y130836D01*
X48295Y130601D01*
X48248Y130390D01*
X48237Y130308D01*
X48225Y130238D01*
X48213Y130179D01*
X48201Y130132D01*
Y130097D01*
X53658D01*
Y131540D01*
X50560D01*
X50654Y131693D01*
X50760Y131822D01*
X50806Y131880D01*
X50842Y131927D01*
X50865Y131951D01*
X50877Y131963D01*
X50924Y132009D01*
X50971Y132068D01*
X51112Y132197D01*
X51264Y132350D01*
X51417Y132502D01*
X51569Y132643D01*
X51698Y132760D01*
X51745Y132808D01*
X51781Y132843D01*
X51804Y132854D01*
X51816Y132866D01*
X52074Y133113D01*
X52285Y133312D01*
X52461Y133500D01*
X52602Y133641D01*
X52708Y133758D01*
X52778Y133840D01*
X52825Y133899D01*
X52837Y133911D01*
X52989Y134110D01*
X53118Y134298D01*
X53224Y134474D01*
X53306Y134626D01*
X53376Y134755D01*
X53423Y134861D01*
X53447Y134920D01*
X53458Y134943D01*
X53529Y135131D01*
X53576Y135319D01*
X53611Y135495D01*
X53635Y135659D01*
X53646Y135788D01*
X53658Y135894D01*
Y135988D01*
X53646Y136164D01*
X53623Y136340D01*
X53599Y136504D01*
X53552Y136657D01*
X53435Y136926D01*
X53318Y137161D01*
X53247Y137267D01*
X53189Y137349D01*
X53130Y137431D01*
X53071Y137490D01*
X53024Y137537D01*
X53001Y137584D01*
X52977Y137595D01*
X52966Y137607D01*
X52837Y137724D01*
X52684Y137830D01*
X52543Y137912D01*
X52379Y137983D01*
X52074Y138100D01*
X51769Y138182D01*
X51628Y138205D01*
X51499Y138229D01*
X51382Y138241D01*
X51276Y138252D01*
X51194Y138264D01*
D02*
G37*
G36*
X67975Y186022D02*
X66414D01*
Y183534D01*
Y183311D01*
Y183111D01*
X66402Y182924D01*
X66390Y182759D01*
Y182607D01*
X66379Y182478D01*
X66367Y182372D01*
X66355Y182267D01*
X66343Y182184D01*
X66332Y182126D01*
X66320Y182067D01*
Y182020D01*
X66297Y181961D01*
Y181950D01*
X66249Y181832D01*
X66179Y181727D01*
X66109Y181645D01*
X66038Y181562D01*
X65968Y181492D01*
X65909Y181445D01*
X65874Y181422D01*
X65862Y181410D01*
X65745Y181339D01*
X65616Y181293D01*
X65498Y181246D01*
X65381Y181222D01*
X65287Y181210D01*
X65217Y181199D01*
X65146D01*
X65017Y181210D01*
X64912Y181222D01*
X64806Y181246D01*
X64724Y181281D01*
X64654Y181304D01*
X64607Y181328D01*
X64571Y181339D01*
X64560Y181351D01*
X64478Y181422D01*
X64419Y181492D01*
X64360Y181562D01*
X64325Y181633D01*
X64290Y181703D01*
X64266Y181750D01*
X64255Y181785D01*
Y181797D01*
X64243Y181856D01*
X64231Y181938D01*
X64219Y182044D01*
X64208Y182149D01*
X64196Y182396D01*
X64184Y182666D01*
X64173Y182912D01*
Y183018D01*
Y183111D01*
Y183194D01*
Y183252D01*
Y183299D01*
Y183311D01*
Y186022D01*
X62612D01*
Y182290D01*
X62624Y181997D01*
X62647Y181738D01*
X62682Y181516D01*
X62717Y181328D01*
X62753Y181175D01*
X62788Y181070D01*
X62811Y181011D01*
X62823Y180987D01*
X62917Y180823D01*
X63022Y180671D01*
X63128Y180553D01*
X63245Y180448D01*
X63339Y180366D01*
X63433Y180307D01*
X63480Y180272D01*
X63504Y180260D01*
X63680Y180178D01*
X63867Y180107D01*
X64043Y180060D01*
X64219Y180037D01*
X64360Y180014D01*
X64466Y180002D01*
X64571D01*
X64783Y180014D01*
X64982Y180037D01*
X65170Y180084D01*
X65334Y180131D01*
X65475Y180178D01*
X65581Y180225D01*
X65651Y180248D01*
X65675Y180260D01*
X65862Y180366D01*
X66027Y180495D01*
X66179Y180612D01*
X66297Y180741D01*
X66402Y180847D01*
X66473Y180929D01*
X66519Y180987D01*
X66531Y181011D01*
Y180131D01*
X67975D01*
Y186022D01*
D02*
G37*
G36*
X75168Y188251D02*
X69594D01*
Y180131D01*
X71237D01*
Y183581D01*
X74628D01*
Y184954D01*
X71237D01*
Y186878D01*
X75168D01*
Y188251D01*
D02*
G37*
G36*
X59971Y188298D02*
X58704D01*
X58587Y188028D01*
X58434Y187782D01*
X58270Y187547D01*
X58106Y187360D01*
X57965Y187207D01*
X57836Y187090D01*
X57789Y187043D01*
X57754Y187007D01*
X57730Y186996D01*
X57718Y186984D01*
X57460Y186796D01*
X57214Y186632D01*
X56991Y186503D01*
X56791Y186409D01*
X56627Y186339D01*
X56510Y186280D01*
X56463Y186268D01*
X56427Y186256D01*
X56416Y186245D01*
X56404D01*
Y184837D01*
X56827Y185001D01*
X57202Y185177D01*
X57378Y185271D01*
X57542Y185376D01*
X57695Y185470D01*
X57836Y185564D01*
X57965Y185658D01*
X58082Y185740D01*
X58176Y185811D01*
X58258Y185881D01*
X58328Y185940D01*
X58376Y185975D01*
X58399Y185998D01*
X58411Y186010D01*
Y180131D01*
X59971D01*
Y188298D01*
D02*
G37*
G36*
X63234Y122781D02*
X61673D01*
Y120293D01*
Y120070D01*
Y119871D01*
X61661Y119683D01*
X61649Y119519D01*
Y119366D01*
X61638Y119237D01*
X61626Y119132D01*
X61614Y119026D01*
X61603Y118944D01*
X61591Y118885D01*
X61579Y118827D01*
Y118780D01*
X61556Y118721D01*
Y118709D01*
X61509Y118592D01*
X61438Y118486D01*
X61368Y118404D01*
X61297Y118322D01*
X61227Y118252D01*
X61168Y118205D01*
X61133Y118181D01*
X61121Y118169D01*
X61004Y118099D01*
X60875Y118052D01*
X60758Y118005D01*
X60640Y117982D01*
X60546Y117970D01*
X60476Y117958D01*
X60406D01*
X60276Y117970D01*
X60171Y117982D01*
X60065Y118005D01*
X59983Y118040D01*
X59913Y118064D01*
X59866Y118087D01*
X59830Y118099D01*
X59819Y118111D01*
X59737Y118181D01*
X59678Y118252D01*
X59619Y118322D01*
X59584Y118392D01*
X59549Y118463D01*
X59525Y118510D01*
X59514Y118545D01*
Y118557D01*
X59502Y118615D01*
X59490Y118698D01*
X59479Y118803D01*
X59467Y118909D01*
X59455Y119155D01*
X59443Y119425D01*
X59432Y119671D01*
Y119777D01*
Y119871D01*
Y119953D01*
Y120012D01*
Y120059D01*
Y120070D01*
Y122781D01*
X57871D01*
Y119050D01*
X57883Y118756D01*
X57906Y118498D01*
X57941Y118275D01*
X57976Y118087D01*
X58012Y117935D01*
X58047Y117829D01*
X58070Y117771D01*
X58082Y117747D01*
X58176Y117583D01*
X58281Y117430D01*
X58387Y117313D01*
X58505Y117207D01*
X58598Y117125D01*
X58692Y117066D01*
X58739Y117031D01*
X58763Y117019D01*
X58939Y116937D01*
X59127Y116867D01*
X59303Y116820D01*
X59479Y116797D01*
X59619Y116773D01*
X59725Y116761D01*
X59830D01*
X60042Y116773D01*
X60241Y116797D01*
X60429Y116843D01*
X60593Y116890D01*
X60734Y116937D01*
X60840Y116984D01*
X60910Y117008D01*
X60934Y117019D01*
X61121Y117125D01*
X61286Y117254D01*
X61438Y117372D01*
X61556Y117501D01*
X61661Y117606D01*
X61732Y117688D01*
X61778Y117747D01*
X61790Y117771D01*
Y116890D01*
X63234D01*
Y122781D01*
D02*
G37*
G36*
X70427Y125011D02*
X64853D01*
Y116890D01*
X66496D01*
Y120340D01*
X69887D01*
Y121713D01*
X66496D01*
Y123638D01*
X70427D01*
Y125011D01*
D02*
G37*
G36*
X55230Y125058D02*
X53963D01*
X53846Y124788D01*
X53693Y124541D01*
X53529Y124307D01*
X53365Y124119D01*
X53224Y123966D01*
X53095Y123849D01*
X53048Y123802D01*
X53013Y123767D01*
X52989Y123755D01*
X52977Y123743D01*
X52719Y123556D01*
X52473Y123391D01*
X52250Y123262D01*
X52050Y123168D01*
X51886Y123098D01*
X51769Y123039D01*
X51722Y123028D01*
X51687Y123016D01*
X51675Y123004D01*
X51663D01*
Y121596D01*
X52086Y121760D01*
X52461Y121936D01*
X52637Y122030D01*
X52801Y122136D01*
X52954Y122230D01*
X53095Y122324D01*
X53224Y122417D01*
X53341Y122500D01*
X53435Y122570D01*
X53517Y122640D01*
X53588Y122699D01*
X53635Y122734D01*
X53658Y122758D01*
X53670Y122769D01*
Y116890D01*
X55230D01*
Y125058D01*
D02*
G37*
G36*
X71436Y199228D02*
X69876D01*
Y196740D01*
Y196517D01*
Y196318D01*
X69864Y196130D01*
X69852Y195966D01*
Y195813D01*
X69840Y195684D01*
X69829Y195579D01*
X69817Y195473D01*
X69805Y195391D01*
X69793Y195332D01*
X69782Y195273D01*
Y195226D01*
X69758Y195168D01*
Y195156D01*
X69711Y195039D01*
X69641Y194933D01*
X69570Y194851D01*
X69500Y194769D01*
X69430Y194698D01*
X69371Y194652D01*
X69336Y194628D01*
X69324Y194616D01*
X69207Y194546D01*
X69078Y194499D01*
X68960Y194452D01*
X68843Y194429D01*
X68749Y194417D01*
X68679Y194405D01*
X68608D01*
X68479Y194417D01*
X68373Y194429D01*
X68268Y194452D01*
X68186Y194487D01*
X68115Y194511D01*
X68068Y194534D01*
X68033Y194546D01*
X68021Y194558D01*
X67939Y194628D01*
X67881Y194698D01*
X67822Y194769D01*
X67787Y194839D01*
X67752Y194910D01*
X67728Y194957D01*
X67716Y194992D01*
Y195004D01*
X67705Y195062D01*
X67693Y195144D01*
X67681Y195250D01*
X67669Y195356D01*
X67658Y195602D01*
X67646Y195872D01*
X67634Y196118D01*
Y196224D01*
Y196318D01*
Y196400D01*
Y196459D01*
Y196506D01*
Y196517D01*
Y199228D01*
X66073D01*
Y195496D01*
X66085Y195203D01*
X66109Y194945D01*
X66144Y194722D01*
X66179Y194534D01*
X66214Y194382D01*
X66249Y194276D01*
X66273Y194217D01*
X66285Y194194D01*
X66379Y194030D01*
X66484Y193877D01*
X66590Y193760D01*
X66707Y193654D01*
X66801Y193572D01*
X66895Y193513D01*
X66942Y193478D01*
X66965Y193466D01*
X67141Y193384D01*
X67329Y193314D01*
X67505Y193267D01*
X67681Y193243D01*
X67822Y193220D01*
X67928Y193208D01*
X68033D01*
X68244Y193220D01*
X68444Y193243D01*
X68632Y193290D01*
X68796Y193337D01*
X68937Y193384D01*
X69042Y193431D01*
X69113Y193455D01*
X69136Y193466D01*
X69324Y193572D01*
X69488Y193701D01*
X69641Y193818D01*
X69758Y193947D01*
X69864Y194053D01*
X69934Y194135D01*
X69981Y194194D01*
X69993Y194217D01*
Y193337D01*
X71436D01*
Y199228D01*
D02*
G37*
G36*
X78630Y201458D02*
X73056D01*
Y193337D01*
X74699D01*
Y196787D01*
X78090D01*
Y198160D01*
X74699D01*
Y200085D01*
X78630D01*
Y201458D01*
D02*
G37*
G36*
X62248Y201505D02*
X62131D01*
X61931Y201493D01*
X61743Y201481D01*
X61380Y201423D01*
X61075Y201329D01*
X60934Y201282D01*
X60805Y201223D01*
X60687Y201176D01*
X60593Y201117D01*
X60500Y201070D01*
X60429Y201035D01*
X60370Y200988D01*
X60335Y200965D01*
X60312Y200953D01*
X60300Y200941D01*
X60171Y200824D01*
X60054Y200707D01*
X59948Y200566D01*
X59854Y200413D01*
X59713Y200108D01*
X59596Y199815D01*
X59561Y199662D01*
X59525Y199533D01*
X59490Y199416D01*
X59479Y199310D01*
X59455Y199216D01*
Y199158D01*
X59443Y199111D01*
Y199099D01*
X60992Y198946D01*
X61016Y199181D01*
X61063Y199381D01*
X61110Y199557D01*
X61168Y199686D01*
X61215Y199791D01*
X61262Y199862D01*
X61297Y199909D01*
X61309Y199920D01*
X61427Y200014D01*
X61556Y200085D01*
X61685Y200143D01*
X61814Y200179D01*
X61919Y200202D01*
X62013Y200214D01*
X62095D01*
X62271Y200202D01*
X62424Y200167D01*
X62553Y200120D01*
X62670Y200073D01*
X62753Y200026D01*
X62823Y199979D01*
X62858Y199944D01*
X62870Y199932D01*
X62964Y199815D01*
X63034Y199686D01*
X63081Y199557D01*
X63116Y199428D01*
X63140Y199310D01*
X63151Y199205D01*
Y199146D01*
Y199134D01*
Y199123D01*
X63140Y198946D01*
X63105Y198782D01*
X63046Y198618D01*
X62987Y198477D01*
X62929Y198348D01*
X62870Y198254D01*
X62835Y198195D01*
X62823Y198172D01*
X62776Y198102D01*
X62706Y198019D01*
X62612Y197914D01*
X62518Y197820D01*
X62307Y197597D01*
X62095Y197374D01*
X61884Y197163D01*
X61790Y197069D01*
X61696Y196999D01*
X61626Y196928D01*
X61579Y196881D01*
X61544Y196846D01*
X61532Y196834D01*
X61297Y196611D01*
X61086Y196400D01*
X60887Y196201D01*
X60711Y196024D01*
X60546Y195849D01*
X60406Y195684D01*
X60276Y195543D01*
X60171Y195403D01*
X60077Y195285D01*
X59995Y195180D01*
X59925Y195097D01*
X59878Y195015D01*
X59831Y194968D01*
X59807Y194921D01*
X59784Y194898D01*
Y194886D01*
X59631Y194616D01*
X59514Y194335D01*
X59420Y194076D01*
X59349Y193842D01*
X59303Y193631D01*
X59291Y193548D01*
X59279Y193478D01*
X59267Y193419D01*
X59256Y193372D01*
Y193337D01*
X64712D01*
Y194781D01*
X61614D01*
X61708Y194933D01*
X61814Y195062D01*
X61861Y195121D01*
X61896Y195168D01*
X61919Y195191D01*
X61931Y195203D01*
X61978Y195250D01*
X62025Y195309D01*
X62166Y195438D01*
X62318Y195590D01*
X62471Y195743D01*
X62624Y195884D01*
X62753Y196001D01*
X62800Y196048D01*
X62835Y196083D01*
X62858Y196095D01*
X62870Y196107D01*
X63128Y196353D01*
X63339Y196553D01*
X63515Y196740D01*
X63656Y196881D01*
X63762Y196999D01*
X63832Y197081D01*
X63879Y197139D01*
X63891Y197151D01*
X64043Y197351D01*
X64173Y197538D01*
X64278Y197714D01*
X64360Y197867D01*
X64431Y197996D01*
X64478Y198102D01*
X64501Y198160D01*
X64513Y198184D01*
X64583Y198371D01*
X64630Y198559D01*
X64665Y198735D01*
X64689Y198899D01*
X64700Y199029D01*
X64712Y199134D01*
Y199228D01*
X64700Y199404D01*
X64677Y199580D01*
X64654Y199744D01*
X64607Y199897D01*
X64489Y200167D01*
X64372Y200402D01*
X64302Y200507D01*
X64243Y200589D01*
X64184Y200672D01*
X64125Y200730D01*
X64079Y200777D01*
X64055Y200824D01*
X64032Y200836D01*
X64020Y200847D01*
X63891Y200965D01*
X63738Y201070D01*
X63597Y201153D01*
X63433Y201223D01*
X63128Y201340D01*
X62823Y201423D01*
X62682Y201446D01*
X62553Y201469D01*
X62436Y201481D01*
X62330Y201493D01*
X62248Y201505D01*
D02*
G37*
G36*
X55935D02*
X55817D01*
X55618Y201493D01*
X55430Y201481D01*
X55066Y201423D01*
X54761Y201329D01*
X54620Y201282D01*
X54491Y201223D01*
X54374Y201176D01*
X54280Y201117D01*
X54186Y201070D01*
X54116Y201035D01*
X54057Y200988D01*
X54022Y200965D01*
X53998Y200953D01*
X53987Y200941D01*
X53858Y200824D01*
X53740Y200707D01*
X53635Y200566D01*
X53541Y200413D01*
X53400Y200108D01*
X53283Y199815D01*
X53247Y199662D01*
X53212Y199533D01*
X53177Y199416D01*
X53165Y199310D01*
X53142Y199216D01*
Y199158D01*
X53130Y199111D01*
Y199099D01*
X54679Y198946D01*
X54703Y199181D01*
X54749Y199381D01*
X54796Y199557D01*
X54855Y199686D01*
X54902Y199791D01*
X54949Y199862D01*
X54984Y199909D01*
X54996Y199920D01*
X55113Y200014D01*
X55242Y200085D01*
X55371Y200143D01*
X55500Y200179D01*
X55606Y200202D01*
X55700Y200214D01*
X55782D01*
X55958Y200202D01*
X56111Y200167D01*
X56240Y200120D01*
X56357Y200073D01*
X56439Y200026D01*
X56510Y199979D01*
X56545Y199944D01*
X56557Y199932D01*
X56651Y199815D01*
X56721Y199686D01*
X56768Y199557D01*
X56803Y199428D01*
X56827Y199310D01*
X56838Y199205D01*
Y199146D01*
Y199134D01*
Y199123D01*
X56827Y198946D01*
X56791Y198782D01*
X56733Y198618D01*
X56674Y198477D01*
X56615Y198348D01*
X56557Y198254D01*
X56521Y198195D01*
X56510Y198172D01*
X56463Y198102D01*
X56392Y198019D01*
X56298Y197914D01*
X56205Y197820D01*
X55993Y197597D01*
X55782Y197374D01*
X55571Y197163D01*
X55477Y197069D01*
X55383Y196999D01*
X55313Y196928D01*
X55266Y196881D01*
X55230Y196846D01*
X55219Y196834D01*
X54984Y196611D01*
X54773Y196400D01*
X54573Y196201D01*
X54397Y196024D01*
X54233Y195849D01*
X54092Y195684D01*
X53963Y195543D01*
X53858Y195403D01*
X53764Y195285D01*
X53682Y195180D01*
X53611Y195097D01*
X53564Y195015D01*
X53517Y194968D01*
X53494Y194921D01*
X53470Y194898D01*
Y194886D01*
X53318Y194616D01*
X53200Y194335D01*
X53106Y194076D01*
X53036Y193842D01*
X52989Y193631D01*
X52977Y193548D01*
X52966Y193478D01*
X52954Y193419D01*
X52942Y193372D01*
Y193337D01*
X58399D01*
Y194781D01*
X55301D01*
X55395Y194933D01*
X55500Y195062D01*
X55547Y195121D01*
X55583Y195168D01*
X55606Y195191D01*
X55618Y195203D01*
X55665Y195250D01*
X55712Y195309D01*
X55852Y195438D01*
X56005Y195590D01*
X56158Y195743D01*
X56310Y195884D01*
X56439Y196001D01*
X56486Y196048D01*
X56521Y196083D01*
X56545Y196095D01*
X56557Y196107D01*
X56815Y196353D01*
X57026Y196553D01*
X57202Y196740D01*
X57343Y196881D01*
X57448Y196999D01*
X57519Y197081D01*
X57566Y197139D01*
X57578Y197151D01*
X57730Y197351D01*
X57859Y197538D01*
X57965Y197714D01*
X58047Y197867D01*
X58117Y197996D01*
X58164Y198102D01*
X58188Y198160D01*
X58200Y198184D01*
X58270Y198371D01*
X58317Y198559D01*
X58352Y198735D01*
X58376Y198899D01*
X58387Y199029D01*
X58399Y199134D01*
Y199228D01*
X58387Y199404D01*
X58364Y199580D01*
X58340Y199744D01*
X58293Y199897D01*
X58176Y200167D01*
X58059Y200402D01*
X57988Y200507D01*
X57930Y200589D01*
X57871Y200672D01*
X57812Y200730D01*
X57765Y200777D01*
X57742Y200824D01*
X57718Y200836D01*
X57707Y200847D01*
X57578Y200965D01*
X57425Y201070D01*
X57284Y201153D01*
X57120Y201223D01*
X56815Y201340D01*
X56510Y201423D01*
X56369Y201446D01*
X56240Y201469D01*
X56122Y201481D01*
X56017Y201493D01*
X55935Y201505D01*
D02*
G37*
G36*
X58970Y164641D02*
X55309D01*
Y156521D01*
X56952D01*
Y159912D01*
X57480D01*
X57644Y159900D01*
X57785Y159888D01*
X57903Y159865D01*
X57996Y159853D01*
X58055Y159830D01*
X58090Y159818D01*
X58102D01*
X58196Y159771D01*
X58290Y159724D01*
X58372Y159665D01*
X58454Y159619D01*
X58513Y159560D01*
X58560Y159513D01*
X58583Y159489D01*
X58595Y159478D01*
X58642Y159419D01*
X58700Y159360D01*
X58830Y159184D01*
X58970Y158997D01*
X59123Y158785D01*
X59252Y158598D01*
X59311Y158504D01*
X59358Y158433D01*
X59405Y158375D01*
X59440Y158328D01*
X59451Y158293D01*
X59463Y158281D01*
X60637Y156521D01*
X62608D01*
X61611Y158105D01*
X61505Y158269D01*
X61399Y158433D01*
X61306Y158574D01*
X61212Y158703D01*
X61130Y158821D01*
X61059Y158938D01*
X60918Y159114D01*
X60813Y159255D01*
X60742Y159349D01*
X60684Y159407D01*
X60672Y159419D01*
X60543Y159560D01*
X60390Y159689D01*
X60250Y159795D01*
X60109Y159900D01*
X59991Y159982D01*
X59897Y160041D01*
X59827Y160088D01*
X59815Y160100D01*
X59804D01*
X60003Y160135D01*
X60179Y160182D01*
X60343Y160229D01*
X60508Y160287D01*
X60648Y160346D01*
X60778Y160405D01*
X60907Y160464D01*
X61012Y160534D01*
X61106Y160592D01*
X61188Y160651D01*
X61259Y160710D01*
X61306Y160757D01*
X61353Y160792D01*
X61388Y160827D01*
X61399Y160839D01*
X61411Y160851D01*
X61505Y160968D01*
X61587Y161085D01*
X61728Y161344D01*
X61822Y161590D01*
X61881Y161836D01*
X61928Y162048D01*
X61939Y162130D01*
Y162212D01*
X61951Y162271D01*
Y162329D01*
Y162353D01*
Y162365D01*
X61939Y162623D01*
X61892Y162869D01*
X61834Y163080D01*
X61775Y163268D01*
X61705Y163421D01*
X61646Y163538D01*
X61623Y163573D01*
X61599Y163608D01*
X61587Y163620D01*
Y163632D01*
X61446Y163831D01*
X61294Y163996D01*
X61141Y164125D01*
X60989Y164242D01*
X60848Y164312D01*
X60742Y164371D01*
X60672Y164406D01*
X60660Y164418D01*
X60648D01*
X60531Y164453D01*
X60402Y164489D01*
X60109Y164547D01*
X59792Y164582D01*
X59487Y164618D01*
X59334D01*
X59205Y164629D01*
X59076D01*
X58970Y164641D01*
D02*
G37*
G36*
X51390Y164688D02*
X51272D01*
X51061Y164676D01*
X50862Y164653D01*
X50662Y164606D01*
X50486Y164559D01*
X50322Y164489D01*
X50169Y164418D01*
X50040Y164348D01*
X49911Y164265D01*
X49805Y164183D01*
X49700Y164113D01*
X49618Y164043D01*
X49559Y163972D01*
X49500Y163925D01*
X49465Y163878D01*
X49442Y163855D01*
X49430Y163843D01*
X49289Y163644D01*
X49172Y163409D01*
X49066Y163162D01*
X48972Y162904D01*
X48902Y162634D01*
X48832Y162353D01*
X48785Y162083D01*
X48738Y161813D01*
X48714Y161555D01*
X48691Y161320D01*
X48667Y161097D01*
X48656Y160909D01*
X48644Y160757D01*
Y160534D01*
X48656Y160111D01*
X48679Y159724D01*
X48714Y159360D01*
X48761Y159032D01*
X48808Y158738D01*
X48867Y158469D01*
X48937Y158234D01*
X49008Y158023D01*
X49066Y157847D01*
X49137Y157682D01*
X49195Y157553D01*
X49254Y157448D01*
X49289Y157377D01*
X49324Y157318D01*
X49348Y157283D01*
X49360Y157272D01*
X49500Y157107D01*
X49653Y156978D01*
X49805Y156849D01*
X49970Y156755D01*
X50122Y156661D01*
X50287Y156591D01*
X50439Y156532D01*
X50592Y156485D01*
X50733Y156438D01*
X50862Y156415D01*
X50979Y156391D01*
X51073Y156380D01*
X51155D01*
X51225Y156368D01*
X51272D01*
X51484Y156380D01*
X51683Y156403D01*
X51883Y156450D01*
X52059Y156497D01*
X52223Y156556D01*
X52375Y156626D01*
X52505Y156708D01*
X52634Y156791D01*
X52739Y156861D01*
X52845Y156943D01*
X52927Y157013D01*
X52997Y157072D01*
X53044Y157119D01*
X53080Y157166D01*
X53103Y157189D01*
X53115Y157201D01*
X53256Y157401D01*
X53373Y157635D01*
X53490Y157882D01*
X53572Y158152D01*
X53655Y158422D01*
X53713Y158692D01*
X53772Y158973D01*
X53819Y159243D01*
X53842Y159501D01*
X53866Y159736D01*
X53889Y159959D01*
X53901Y160147D01*
X53913Y160299D01*
Y160522D01*
X53901Y160945D01*
X53878Y161332D01*
X53842Y161684D01*
X53784Y162013D01*
X53725Y162318D01*
X53666Y162588D01*
X53584Y162834D01*
X53514Y163045D01*
X53443Y163245D01*
X53373Y163397D01*
X53302Y163538D01*
X53244Y163655D01*
X53185Y163738D01*
X53150Y163796D01*
X53127Y163831D01*
X53115Y163843D01*
X52986Y163996D01*
X52845Y164125D01*
X52692Y164230D01*
X52540Y164336D01*
X52387Y164418D01*
X52235Y164477D01*
X52094Y164535D01*
X51941Y164582D01*
X51800Y164618D01*
X51683Y164641D01*
X51566Y164664D01*
X51472Y164676D01*
X51390Y164688D01*
D02*
G37*
%LPD*%
G36*
X58935Y163256D02*
X59193D01*
X59299Y163245D01*
X59369D01*
X59405Y163233D01*
X59416D01*
X59557Y163198D01*
X59686Y163151D01*
X59792Y163104D01*
X59874Y163045D01*
X59944Y162986D01*
X60003Y162951D01*
X60026Y162916D01*
X60038Y162904D01*
X60109Y162810D01*
X60167Y162693D01*
X60203Y162588D01*
X60238Y162482D01*
X60250Y162388D01*
X60261Y162318D01*
Y162271D01*
Y162247D01*
X60250Y162118D01*
X60238Y162001D01*
X60203Y161895D01*
X60179Y161801D01*
X60144Y161731D01*
X60109Y161684D01*
X60097Y161649D01*
X60085Y161637D01*
X60015Y161555D01*
X59944Y161484D01*
X59792Y161379D01*
X59733Y161344D01*
X59675Y161320D01*
X59639Y161297D01*
X59628D01*
X59569Y161285D01*
X59475Y161261D01*
X59381Y161250D01*
X59275Y161238D01*
X59029Y161226D01*
X58783Y161215D01*
X58548Y161203D01*
X56952D01*
Y163268D01*
X58830D01*
X58935Y163256D01*
D02*
G37*
G36*
X51378Y163385D02*
X51472Y163374D01*
X51554Y163339D01*
X51624Y163303D01*
X51683Y163268D01*
X51730Y163245D01*
X51754Y163221D01*
X51765Y163209D01*
X51836Y163127D01*
X51906Y163022D01*
X51965Y162904D01*
X52023Y162787D01*
X52059Y162670D01*
X52094Y162576D01*
X52106Y162517D01*
X52117Y162505D01*
Y162494D01*
X52141Y162388D01*
X52164Y162259D01*
X52188Y162106D01*
X52211Y161954D01*
X52235Y161637D01*
X52246Y161308D01*
X52258Y161156D01*
Y161003D01*
X52270Y160874D01*
Y160757D01*
Y160663D01*
Y160581D01*
Y160534D01*
Y160522D01*
Y160264D01*
X52258Y160018D01*
Y159795D01*
X52246Y159595D01*
X52235Y159407D01*
X52223Y159243D01*
X52199Y159090D01*
X52188Y158961D01*
X52176Y158844D01*
X52153Y158750D01*
X52141Y158668D01*
X52129Y158598D01*
X52117Y158551D01*
Y158504D01*
X52106Y158492D01*
Y158480D01*
X52059Y158316D01*
X52000Y158187D01*
X51941Y158070D01*
X51894Y157987D01*
X51847Y157917D01*
X51800Y157870D01*
X51777Y157847D01*
X51765Y157835D01*
X51683Y157776D01*
X51601Y157729D01*
X51519Y157706D01*
X51437Y157682D01*
X51378Y157671D01*
X51319Y157659D01*
X51272D01*
X51167Y157671D01*
X51073Y157682D01*
X50991Y157718D01*
X50920Y157753D01*
X50862Y157776D01*
X50815Y157811D01*
X50791Y157823D01*
X50780Y157835D01*
X50709Y157917D01*
X50639Y158023D01*
X50580Y158140D01*
X50521Y158257D01*
X50486Y158363D01*
X50451Y158457D01*
X50439Y158516D01*
X50427Y158539D01*
X50404Y158656D01*
X50381Y158785D01*
X50357Y158926D01*
X50345Y159079D01*
X50322Y159407D01*
X50310Y159736D01*
X50298Y159888D01*
Y160041D01*
X50287Y160170D01*
Y160287D01*
Y160381D01*
Y160464D01*
Y160510D01*
Y160522D01*
Y160780D01*
X50298Y161027D01*
Y161238D01*
X50310Y161449D01*
X50322Y161625D01*
X50334Y161801D01*
X50345Y161942D01*
X50369Y162083D01*
X50381Y162200D01*
X50392Y162294D01*
X50404Y162376D01*
X50416Y162447D01*
X50427Y162494D01*
Y162540D01*
X50439Y162552D01*
Y162564D01*
X50486Y162728D01*
X50545Y162869D01*
X50592Y162975D01*
X50650Y163069D01*
X50697Y163127D01*
X50733Y163174D01*
X50756Y163198D01*
X50768Y163209D01*
X50850Y163268D01*
X50944Y163315D01*
X51026Y163350D01*
X51108Y163374D01*
X51167Y163385D01*
X51225Y163397D01*
X51272D01*
X51378Y163385D01*
D02*
G37*
D10*
X208562Y341780D02*
G03*
X208562Y341780I-1000J0D01*
G01*
X424942Y217678D02*
X450342D01*
X424942Y370078D02*
X450342D01*
Y217678D02*
Y370078D01*
X424942Y217678D02*
Y370078D01*
X340106Y54213D02*
Y79613D01*
X492506Y54213D02*
Y79613D01*
X340106Y54213D02*
X492506D01*
X340106Y79613D02*
X492506D01*
X20066Y461264D02*
X70866D01*
Y486664D01*
X20066D02*
X70866D01*
X20066Y461264D02*
Y486664D01*
X25400Y104902D02*
X76200D01*
X25400Y79502D02*
Y104902D01*
Y79502D02*
X76200D01*
Y104902D01*
X25400Y79502D02*
X76200D01*
X25400Y54102D02*
Y79502D01*
Y54102D02*
X76200D01*
Y79502D01*
D11*
X167132Y166370D02*
X192532D01*
X167132D02*
Y369570D01*
X192532D01*
Y166370D02*
Y369570D01*
X167132Y343935D02*
X192532D01*
X25139Y129290D02*
Y137418D01*
X30219D01*
X25139Y129290D02*
X30219D01*
X40887D02*
Y137418D01*
X35807D02*
X40887D01*
X35807Y129290D02*
X40887D01*
X24765Y181102D02*
Y189230D01*
X29845D01*
X24765Y181102D02*
X29845D01*
X40513D02*
Y189230D01*
X35433D02*
X40513D01*
X35433Y181102D02*
X40513D01*
X24765Y192532D02*
Y200660D01*
X29845D01*
X24765Y192532D02*
X29845D01*
X40513D02*
Y200660D01*
X35433D02*
X40513D01*
X35433Y192532D02*
X40513D01*
X42926Y147828D02*
Y172212D01*
X32258Y147828D02*
X42926D01*
X32258Y172212D02*
X42926D01*
X32258Y147828D02*
Y172212D01*
X25139Y117860D02*
Y125988D01*
X30219D01*
X25139Y117860D02*
X30219D01*
X40887D02*
Y125988D01*
X35807D02*
X40887D01*
X35807Y117860D02*
X40887D01*
X289306Y461264D02*
Y486664D01*
X492506D01*
Y461264D02*
Y486664D01*
X289306Y461264D02*
X492506D01*
X466871D02*
Y486664D01*
X70866Y461264D02*
Y486664D01*
X274066D01*
Y461264D02*
Y486664D01*
X70866Y461264D02*
X274066D01*
X248431D02*
Y486664D01*
X649986Y247472D02*
Y311988D01*
X502412Y285496D02*
Y309880D01*
X491744Y285496D02*
X502412D01*
X491744Y309880D02*
X502412D01*
X491744Y285496D02*
Y309880D01*
X491746Y251714D02*
Y276098D01*
X502414D01*
X491746Y251714D02*
X502414D01*
Y276098D01*
X111506Y53848D02*
Y79248D01*
X314706D01*
Y53848D02*
Y79248D01*
X111506Y53848D02*
X314706D01*
X289071D02*
Y79248D01*
X225562Y348980D02*
Y351780D01*
X385562D01*
Y348980D02*
Y351780D01*
X225562Y191780D02*
Y194580D01*
Y191780D02*
X385562D01*
Y194580D01*
D12*
X607441Y279095D02*
Y281635D01*
X608711Y280365D01*
X607441Y279095D02*
X608711Y280365D01*
X646176Y265252D02*
Y267792D01*
X647446Y266522D01*
X646176Y265252D02*
X647446Y266522D01*
X473458Y434010D02*
X486154D01*
Y440358D01*
X484038Y442474D01*
X475574D01*
X473458Y440358D01*
Y434010D01*
X475574Y446706D02*
X473458Y448822D01*
Y453054D01*
X475574Y455170D01*
X484038D01*
X486154Y453054D01*
Y448822D01*
X484038Y446706D01*
X475574D01*
X448142Y438242D02*
X460838D01*
Y444590D01*
X458722Y446706D01*
X450258D01*
X448142Y444590D01*
Y438242D01*
X460838Y450938D02*
Y455170D01*
Y453054D01*
X448142D01*
X450258Y450938D01*
X372194Y434010D02*
X384890D01*
Y440358D01*
X382774Y442474D01*
X374310D01*
X372194Y440358D01*
Y434010D01*
X384890Y453054D02*
X372194D01*
X378542Y446706D01*
Y455170D01*
X346878Y434010D02*
X359574D01*
Y440358D01*
X357458Y442474D01*
X348994D01*
X346878Y440358D01*
Y434010D01*
Y455170D02*
Y446706D01*
X353226D01*
X351110Y450938D01*
Y453054D01*
X353226Y455170D01*
X357458D01*
X359574Y453054D01*
Y448822D01*
X357458Y446706D01*
X296246Y434010D02*
X308942D01*
Y440358D01*
X306826Y442474D01*
X298362D01*
X296246Y440358D01*
Y434010D01*
Y446706D02*
Y455170D01*
X298362D01*
X306826Y446706D01*
X308942D01*
X321562Y434010D02*
X334258D01*
Y440358D01*
X332142Y442474D01*
X323678D01*
X321562Y440358D01*
Y434010D01*
Y455170D02*
X323678Y450938D01*
X327910Y446706D01*
X332142D01*
X334258Y448822D01*
Y453054D01*
X332142Y455170D01*
X330026D01*
X327910Y453054D01*
Y446706D01*
X397510Y434010D02*
X410206D01*
Y440358D01*
X408090Y442474D01*
X399626D01*
X397510Y440358D01*
Y434010D01*
X399626Y446706D02*
X397510Y448822D01*
Y453054D01*
X399626Y455170D01*
X401742D01*
X403858Y453054D01*
Y450938D01*
Y453054D01*
X405974Y455170D01*
X408090D01*
X410206Y453054D01*
Y448822D01*
X408090Y446706D01*
X422826Y434010D02*
X435522D01*
Y440358D01*
X433406Y442474D01*
X424942D01*
X422826Y440358D01*
Y434010D01*
X435522Y455170D02*
Y446706D01*
X427058Y455170D01*
X424942D01*
X422826Y453054D01*
Y448822D01*
X424942Y446706D01*
X255018Y434772D02*
X267714D01*
Y441120D01*
X265598Y443236D01*
X257134D01*
X255018Y441120D01*
Y434772D01*
X257134Y447468D02*
X255018Y449584D01*
Y453816D01*
X257134Y455932D01*
X259250D01*
X261366Y453816D01*
X263482Y455932D01*
X265598D01*
X267714Y453816D01*
Y449584D01*
X265598Y447468D01*
X263482D01*
X261366Y449584D01*
X259250Y447468D01*
X257134D01*
X261366Y449584D02*
Y453816D01*
X229735Y434772D02*
X242431D01*
Y441120D01*
X240315Y443236D01*
X231851D01*
X229735Y441120D01*
Y434772D01*
X240315Y447468D02*
X242431Y449584D01*
Y453816D01*
X240315Y455932D01*
X231851D01*
X229735Y453816D01*
Y449584D01*
X231851Y447468D01*
X233967D01*
X236083Y449584D01*
Y455932D01*
X153888Y424192D02*
X166584D01*
Y430540D01*
X164468Y432656D01*
X156004D01*
X153888Y430540D01*
Y424192D01*
X166584Y436888D02*
Y441120D01*
Y439004D01*
X153888D01*
X156004Y436888D01*
X166584Y455932D02*
Y447468D01*
X158120Y455932D01*
X156004D01*
X153888Y453816D01*
Y449584D01*
X156004Y447468D01*
X128606Y424192D02*
X141302D01*
Y430540D01*
X139186Y432656D01*
X130722D01*
X128606Y430540D01*
Y424192D01*
X141302Y436888D02*
Y441120D01*
Y439004D01*
X128606D01*
X130722Y436888D01*
Y447468D02*
X128606Y449584D01*
Y453816D01*
X130722Y455932D01*
X132838D01*
X134954Y453816D01*
Y451700D01*
Y453816D01*
X137070Y455932D01*
X139186D01*
X141302Y453816D01*
Y449584D01*
X139186Y447468D01*
X105440Y430540D02*
X103323Y428424D01*
Y424192D01*
X105440Y422076D01*
X113903D01*
X116019Y424192D01*
Y428424D01*
X113903Y430540D01*
X109671D01*
Y426308D01*
X116019Y434772D02*
X103323D01*
X116019Y443236D01*
X103323D01*
Y447468D02*
X116019D01*
Y453816D01*
X113903Y455932D01*
X105440D01*
X103323Y453816D01*
Y447468D01*
X90737Y409380D02*
X82273D01*
X78041Y413612D01*
X82273Y417844D01*
X90737D01*
X84389D01*
Y409380D01*
X90737Y422076D02*
X78041D01*
Y428424D01*
X80157Y430540D01*
X84389D01*
X86505Y428424D01*
Y422076D01*
Y426308D02*
X90737Y430540D01*
X78041Y443236D02*
Y434772D01*
X90737D01*
Y443236D01*
X84389Y434772D02*
Y439004D01*
X78041Y455932D02*
Y447468D01*
X84389D01*
Y451700D01*
Y447468D01*
X90737D01*
X65455Y383988D02*
X56991D01*
X52759Y388220D01*
X56991Y392453D01*
X65455D01*
X59107D01*
Y383988D01*
X65455Y403032D02*
X52759D01*
X59107Y396684D01*
Y405148D01*
X67571Y409380D02*
Y417844D01*
X54875Y430540D02*
X52759Y428424D01*
Y424192D01*
X54875Y422076D01*
X56991D01*
X59107Y424192D01*
Y428424D01*
X61223Y430540D01*
X63339D01*
X65455Y428424D01*
Y424192D01*
X63339Y422076D01*
X52759Y434772D02*
X65455D01*
Y441120D01*
X63339Y443236D01*
X54875D01*
X52759Y441120D01*
Y434772D01*
X65455Y447468D02*
X56991D01*
X52759Y451700D01*
X56991Y455932D01*
X65455D01*
X59107D01*
Y447468D01*
X38056Y383988D02*
X29592D01*
X25360Y388220D01*
X29592Y392453D01*
X38056D01*
X31708D01*
Y383988D01*
X25360Y405148D02*
Y396684D01*
X31708D01*
X29592Y400916D01*
Y403032D01*
X31708Y405148D01*
X35940D01*
X38056Y403032D01*
Y398800D01*
X35940Y396684D01*
X40172Y409380D02*
Y417844D01*
X27476Y430540D02*
X25360Y428424D01*
Y424192D01*
X27476Y422076D01*
X29592D01*
X31708Y424192D01*
Y428424D01*
X33824Y430540D01*
X35940D01*
X38056Y428424D01*
Y424192D01*
X35940Y422076D01*
X27476Y443236D02*
X25360Y441120D01*
Y436888D01*
X27476Y434772D01*
X35940D01*
X38056Y436888D01*
Y441120D01*
X35940Y443236D01*
X25360Y447468D02*
X38056D01*
Y455932D01*
X179171Y428424D02*
X191866D01*
Y434772D01*
X189750Y436888D01*
X181287D01*
X179171Y434772D01*
Y428424D01*
X191866Y441120D02*
Y445352D01*
Y443236D01*
X179171D01*
X181287Y441120D01*
X191866Y451700D02*
Y455932D01*
Y453816D01*
X179171D01*
X181287Y451700D01*
X204453Y424192D02*
X217149D01*
Y430540D01*
X215033Y432656D01*
X206569D01*
X204453Y430540D01*
Y424192D01*
X217149Y436888D02*
Y441120D01*
Y439004D01*
X204453D01*
X206569Y436888D01*
Y447468D02*
X204453Y449584D01*
Y453816D01*
X206569Y455932D01*
X215033D01*
X217149Y453816D01*
Y449584D01*
X215033Y447468D01*
X206569D01*
X295658Y84672D02*
X304122D01*
X308354Y88904D01*
X304122Y93136D01*
X295658D01*
Y97368D02*
Y101600D01*
Y99484D01*
X308354D01*
Y97368D01*
Y101600D01*
Y107948D02*
X295658D01*
X308354Y116412D01*
X295658D01*
X272374Y93136D02*
X270258Y91020D01*
Y86788D01*
X272374Y84672D01*
X280838D01*
X282954Y86788D01*
Y91020D01*
X280838Y93136D01*
X276606D01*
Y88904D01*
X282954Y97368D02*
X270258D01*
X282954Y105832D01*
X270258D01*
Y110064D02*
X282954D01*
Y116412D01*
X280838Y118528D01*
X272374D01*
X270258Y116412D01*
Y110064D01*
X130554Y84672D02*
X117858D01*
Y91020D01*
X119974Y93136D01*
X124206D01*
X126322Y91020D01*
Y84672D01*
X130554Y97368D02*
Y101600D01*
Y99484D01*
X117858D01*
X119974Y97368D01*
X143258Y84672D02*
Y88904D01*
Y86788D01*
X155954D01*
Y84672D01*
Y88904D01*
X143258Y101600D02*
Y97368D01*
X145374Y95252D01*
X153838D01*
X155954Y97368D01*
Y101600D01*
X153838Y103716D01*
X145374D01*
X143258Y101600D01*
X155954Y107948D02*
X143258D01*
Y114296D01*
X145374Y116412D01*
X149606D01*
X151722Y114296D01*
Y107948D01*
Y112180D02*
X155954Y116412D01*
X143258Y129108D02*
Y120644D01*
X155954D01*
Y129108D01*
X149606Y120644D02*
Y124876D01*
X143258Y141804D02*
Y133340D01*
X149606D01*
Y137572D01*
Y133340D01*
X155954D01*
X181354Y84672D02*
X168658D01*
Y91020D01*
X170774Y93136D01*
X175006D01*
X177122Y91020D01*
Y84672D01*
Y88904D02*
X181354Y93136D01*
X170774Y105832D02*
X168658Y103716D01*
Y99484D01*
X170774Y97368D01*
X172890D01*
X175006Y99484D01*
Y103716D01*
X177122Y105832D01*
X179238D01*
X181354Y103716D01*
Y99484D01*
X179238Y97368D01*
X168658Y110064D02*
Y118528D01*
Y114296D01*
X181354D01*
X196174Y84672D02*
X194058Y86788D01*
Y91020D01*
X196174Y93136D01*
X198290D01*
X200406Y91020D01*
Y88904D01*
Y91020D01*
X202522Y93136D01*
X204638D01*
X206754Y91020D01*
Y86788D01*
X204638Y84672D01*
X206754Y97368D02*
X204638D01*
Y99484D01*
X206754D01*
Y97368D01*
X196174Y107948D02*
X194058Y110064D01*
Y114296D01*
X196174Y116412D01*
X198290D01*
X200406Y114296D01*
Y112180D01*
Y114296D01*
X202522Y116412D01*
X204638D01*
X206754Y114296D01*
Y110064D01*
X204638Y107948D01*
X219458Y93136D02*
Y84672D01*
X225806D01*
X223690Y88904D01*
Y91020D01*
X225806Y93136D01*
X230038D01*
X232154Y91020D01*
Y86788D01*
X230038Y84672D01*
X219458Y97368D02*
X227922D01*
X232154Y101600D01*
X227922Y105832D01*
X219458D01*
X246974Y93136D02*
X244858Y91020D01*
Y86788D01*
X246974Y84672D01*
X255438D01*
X257554Y86788D01*
Y91020D01*
X255438Y93136D01*
X251206D01*
Y88904D01*
X257554Y97368D02*
X244858D01*
X257554Y105832D01*
X244858D01*
Y110064D02*
X257554D01*
Y116412D01*
X255438Y118528D01*
X246974D01*
X244858Y116412D01*
Y110064D01*
X485899Y86702D02*
X477435D01*
X473204Y90934D01*
X477435Y95166D01*
X485899D01*
X479552D01*
Y86702D01*
X473204Y107862D02*
Y99398D01*
X479552D01*
X477435Y103630D01*
Y105746D01*
X479552Y107862D01*
X483783D01*
X485899Y105746D01*
Y101514D01*
X483783Y99398D01*
X460499Y86702D02*
X452036D01*
X447804Y90934D01*
X452036Y95166D01*
X460499D01*
X454152D01*
Y86702D01*
X460499Y105746D02*
X447804D01*
X454152Y99398D01*
Y107862D01*
X435100Y86702D02*
X426636D01*
X422404Y90934D01*
X426636Y95166D01*
X435100D01*
X428752D01*
Y86702D01*
X424520Y99398D02*
X422404Y101514D01*
Y105746D01*
X424520Y107862D01*
X426636D01*
X428752Y105746D01*
Y103630D01*
Y105746D01*
X430868Y107862D01*
X432984D01*
X435100Y105746D01*
Y101514D01*
X432984Y99398D01*
X409700Y86702D02*
X401236D01*
X397004Y90934D01*
X401236Y95166D01*
X409700D01*
X403352D01*
Y86702D01*
X409700Y107862D02*
Y99398D01*
X401236Y107862D01*
X399120D01*
X397004Y105746D01*
Y101514D01*
X399120Y99398D01*
X384300Y86702D02*
X375836D01*
X371604Y90934D01*
X375836Y95166D01*
X384300D01*
X377952D01*
Y86702D01*
X384300Y99398D02*
Y103630D01*
Y101514D01*
X371604D01*
X373720Y99398D01*
X358900Y86702D02*
X350436D01*
X346204Y90934D01*
X350436Y95166D01*
X358900D01*
X352552D01*
Y86702D01*
X348320Y99398D02*
X346204Y101514D01*
Y105746D01*
X348320Y107862D01*
X356784D01*
X358900Y105746D01*
Y101514D01*
X356784Y99398D01*
X348320D01*
D13*
X504954Y260098D02*
Y265177D01*
X507493Y267716D01*
X510032Y265177D01*
Y260098D01*
Y263907D01*
X504954D01*
X512572Y266446D02*
X513841Y267716D01*
X516380D01*
X517650Y266446D01*
Y265177D01*
X516380Y263907D01*
X515111D01*
X516380D01*
X517650Y262638D01*
Y261368D01*
X516380Y260098D01*
X513841D01*
X512572Y261368D01*
X504954Y301497D02*
Y293879D01*
X508763D01*
X510032Y295149D01*
Y300227D01*
X508763Y301497D01*
X504954D01*
X512572Y300227D02*
X513841Y301497D01*
X516380D01*
X517650Y300227D01*
Y298958D01*
X516380Y297688D01*
X517650Y296418D01*
Y295149D01*
X516380Y293879D01*
X513841D01*
X512572Y295149D01*
Y296418D01*
X513841Y297688D01*
X512572Y298958D01*
Y300227D01*
X513841Y297688D02*
X516380D01*
X454280Y259587D02*
Y251969D01*
X458089D01*
X459359Y253239D01*
Y258317D01*
X458089Y259587D01*
X454280D01*
X461898D02*
X464437D01*
X463167D01*
Y251969D01*
X461898D01*
X464437D01*
X472054Y259587D02*
X469515D01*
X468246Y258317D01*
Y253239D01*
X469515Y251969D01*
X472054D01*
X473324Y253239D01*
Y258317D01*
X472054Y259587D01*
X479672Y251969D02*
Y259587D01*
X475863Y255778D01*
X480942D01*
X454280Y233933D02*
Y226315D01*
X458089D01*
X459359Y227585D01*
Y232663D01*
X458089Y233933D01*
X454280D01*
X461898D02*
X464437D01*
X463167D01*
Y226315D01*
X461898D01*
X464437D01*
X472054Y233933D02*
X469515D01*
X468246Y232663D01*
Y227585D01*
X469515Y226315D01*
X472054D01*
X473324Y227585D01*
Y232663D01*
X472054Y233933D01*
X475863Y232663D02*
X477133Y233933D01*
X479672D01*
X480942Y232663D01*
Y231394D01*
X479672Y230124D01*
X478402D01*
X479672D01*
X480942Y228854D01*
Y227585D01*
X479672Y226315D01*
X477133D01*
X475863Y227585D01*
X453187Y284319D02*
X454457Y285589D01*
X456996D01*
X458265Y284319D01*
Y283050D01*
X456996Y281780D01*
X455726D01*
X456996D01*
X458265Y280510D01*
Y279241D01*
X456996Y277971D01*
X454457D01*
X453187Y279241D01*
X460805Y277971D02*
Y279241D01*
X462074D01*
Y277971D01*
X460805D01*
X467152Y284319D02*
X468422Y285589D01*
X470961D01*
X472231Y284319D01*
Y283050D01*
X470961Y281780D01*
X469692D01*
X470961D01*
X472231Y280510D01*
Y279241D01*
X470961Y277971D01*
X468422D01*
X467152Y279241D01*
X454280Y309879D02*
Y302261D01*
X458089D01*
X459359Y303531D01*
Y308609D01*
X458089Y309879D01*
X454280D01*
X461898D02*
X464437D01*
X463167D01*
Y302261D01*
X461898D01*
X464437D01*
X472054Y309879D02*
X469515D01*
X468246Y308609D01*
Y303531D01*
X469515Y302261D01*
X472054D01*
X473324Y303531D01*
Y308609D01*
X472054Y309879D01*
X475863Y308609D02*
X477133Y309879D01*
X479672D01*
X480942Y308609D01*
Y303531D01*
X479672Y302261D01*
X477133D01*
X475863Y303531D01*
Y308609D01*
X453797Y335158D02*
Y327540D01*
X457606D01*
X458876Y328810D01*
Y333888D01*
X457606Y335158D01*
X453797D01*
X461415D02*
X463954D01*
X462684D01*
Y327540D01*
X461415D01*
X463954D01*
X471572Y335158D02*
X469032D01*
X467763Y333888D01*
Y328810D01*
X469032Y327540D01*
X471572D01*
X472841Y328810D01*
Y333888D01*
X471572Y335158D01*
X475380Y327540D02*
X477920D01*
X476650D01*
Y335158D01*
X475380Y333888D01*
X454027Y360854D02*
Y353237D01*
X457836D01*
X459105Y354506D01*
Y359584D01*
X457836Y360854D01*
X454027D01*
X461644D02*
X464183D01*
X462914D01*
Y353237D01*
X461644D01*
X464183D01*
X471801Y360854D02*
X469262D01*
X467992Y359584D01*
Y354506D01*
X469262Y353237D01*
X471801D01*
X473070Y354506D01*
Y359584D01*
X471801Y360854D01*
X480688Y353237D02*
X475610D01*
X480688Y358315D01*
Y359584D01*
X479418Y360854D01*
X476879D01*
X475610Y359584D01*
X139448Y359409D02*
X138178Y360679D01*
X135639D01*
X134369Y359409D01*
Y354331D01*
X135639Y353061D01*
X138178D01*
X139448Y354331D01*
Y356870D01*
X136909D01*
X141987Y353061D02*
Y360679D01*
X147065Y353061D01*
Y360679D01*
X149604D02*
Y353061D01*
X153413D01*
X154683Y354331D01*
Y359409D01*
X153413Y360679D01*
X149604D01*
X134243Y328423D02*
Y336041D01*
X136783Y333502D01*
X139322Y336041D01*
Y328423D01*
X141861Y336041D02*
X144400D01*
X143130D01*
Y328423D01*
X141861D01*
X144400D01*
X153287Y334771D02*
X152018Y336041D01*
X149478D01*
X148209Y334771D01*
Y333502D01*
X149478Y332232D01*
X152018D01*
X153287Y330962D01*
Y329693D01*
X152018Y328423D01*
X149478D01*
X148209Y329693D01*
X159635Y336041D02*
X157096D01*
X155826Y334771D01*
Y329693D01*
X157096Y328423D01*
X159635D01*
X160905Y329693D01*
Y334771D01*
X159635Y336041D01*
X134480Y302788D02*
Y310406D01*
X137019Y307867D01*
X139558Y310406D01*
Y302788D01*
X145906Y310406D02*
X143367D01*
X142097Y309136D01*
Y304058D01*
X143367Y302788D01*
X145906D01*
X147176Y304058D01*
Y309136D01*
X145906Y310406D01*
X154793Y309136D02*
X153524Y310406D01*
X150984D01*
X149715Y309136D01*
Y307867D01*
X150984Y306597D01*
X153524D01*
X154793Y305328D01*
Y304058D01*
X153524Y302788D01*
X150984D01*
X149715Y304058D01*
X157332Y310406D02*
X159872D01*
X158602D01*
Y302788D01*
X157332D01*
X159872D01*
X139956Y283209D02*
X138686Y284479D01*
X136147D01*
X134877Y283209D01*
Y281940D01*
X136147Y280670D01*
X138686D01*
X139956Y279400D01*
Y278131D01*
X138686Y276861D01*
X136147D01*
X134877Y278131D01*
X147573Y283209D02*
X146304Y284479D01*
X143764D01*
X142495Y283209D01*
Y278131D01*
X143764Y276861D01*
X146304D01*
X147573Y278131D01*
X150112Y284479D02*
Y276861D01*
Y279400D01*
X155191Y284479D01*
X151382Y280670D01*
X155191Y276861D01*
X134877Y251461D02*
Y259079D01*
X139956Y251461D01*
Y259079D01*
X147573Y257809D02*
X146304Y259079D01*
X143764D01*
X142495Y257809D01*
Y256540D01*
X143764Y255270D01*
X146304D01*
X147573Y254000D01*
Y252731D01*
X146304Y251461D01*
X143764D01*
X142495Y252731D01*
X155191Y257809D02*
X153921Y259079D01*
X151382D01*
X150112Y257809D01*
Y256540D01*
X151382Y255270D01*
X153921D01*
X155191Y254000D01*
Y252731D01*
X153921Y251461D01*
X151382D01*
X150112Y252731D01*
X133708Y226045D02*
Y233662D01*
X137516D01*
X138786Y232393D01*
Y229853D01*
X137516Y228584D01*
X133708D01*
X136247D02*
X138786Y226045D01*
X146403Y232393D02*
X145134Y233662D01*
X142595D01*
X141325Y232393D01*
Y231123D01*
X142595Y229853D01*
X145134D01*
X146403Y228584D01*
Y227314D01*
X145134Y226045D01*
X142595D01*
X141325Y227314D01*
X148943Y233662D02*
X154021D01*
X151482D01*
Y226045D01*
X132481Y209510D02*
Y201892D01*
X136290D01*
X137560Y203162D01*
Y208240D01*
X136290Y209510D01*
X132481D01*
X140099D02*
X142638D01*
X141369D01*
Y201892D01*
X140099D01*
X142638D01*
X150256Y209510D02*
X147716D01*
X146447Y208240D01*
Y203162D01*
X147716Y201892D01*
X150256D01*
X151525Y203162D01*
Y208240D01*
X150256Y209510D01*
X159143D02*
X154064D01*
Y205701D01*
X156604Y206970D01*
X157873D01*
X159143Y205701D01*
Y203162D01*
X157873Y201892D01*
X155334D01*
X154064Y203162D01*
X138396Y182334D02*
X137127Y183604D01*
X134588D01*
X133318Y182334D01*
Y177256D01*
X134588Y175986D01*
X137127D01*
X138396Y177256D01*
Y179795D01*
X135857D01*
X140935Y175986D02*
Y183604D01*
X146014Y175986D01*
Y183604D01*
X148553D02*
Y175986D01*
X152362D01*
X153631Y177256D01*
Y182334D01*
X152362Y183604D01*
X148553D01*
D14*
X641874Y268078D02*
Y265079D01*
X640375D01*
X639875Y265579D01*
Y266579D01*
X640375Y267079D01*
X641874D01*
X636876Y265579D02*
X637375Y265079D01*
X638375D01*
X638875Y265579D01*
Y267579D01*
X638375Y268078D01*
X637375D01*
X636876Y267579D01*
X635876Y265079D02*
Y268078D01*
X634376D01*
X633877Y267579D01*
Y267079D01*
X634376Y266579D01*
X635876D01*
X634376D01*
X633877Y266079D01*
Y265579D01*
X634376Y265079D01*
X635876D01*
X627878D02*
X629878D01*
Y268078D01*
X627878D01*
X629878Y266579D02*
X628878D01*
X624879Y265079D02*
Y268078D01*
X626379D01*
X626879Y267579D01*
Y266579D01*
X626379Y266079D01*
X624879D01*
X622880Y269078D02*
X622380D01*
X621880Y268578D01*
Y266079D01*
X623380D01*
X623880Y266579D01*
Y267579D01*
X623380Y268078D01*
X621880D01*
X619381D02*
X620381D01*
X620881Y267579D01*
Y266579D01*
X620381Y266079D01*
X619381D01*
X618881Y266579D01*
Y267079D01*
X620881D01*
M02*
