M48
;Layer_Color=9474304
;FILE_FORMAT=4:4
METRIC,LZ
;TYPE=PLATED
T01F00S00C0.3000
T02F00S00C0.9000
T03F00S00C1.0000
T04F00S00C1.0160
%
T01
X00012446Y00010668
X000254
X00038354
X00051308
X00064262
X00020828Y00122174
Y00133604
X00390144Y00137668
Y00124714
Y0011176
Y00098806
X0051689Y00075692
Y00062738
Y00049784
Y0003683
Y00023876
X00624332Y001397
Y00152654
Y00165608
Y00178562
Y00191516
X00629428Y00237744
X00640588
X00618268
X00607108
X00602234Y00248158
Y00260216
Y00272662
X00586994
X00571754
X00559562Y00271526
X0054991Y00263652
X0053975Y00275082
X0055245Y00285242
X00571754Y00287902
X00586994
X00602234
Y00300348
Y00312406
X00607108Y0032258
X00618268
X00629428
X00640588
X00624078Y00387604
Y00400558
Y00413512
Y00426466
Y0043942
X0052324Y00461464
Y00474418
Y00487372
Y00500326
Y0051328
X00497078Y00316738
X00487962Y00247627
X00506984Y00241554
X00528066Y002413
X00517906Y0025273
X00538988Y00252476
X00528828Y00263906
X00517144Y00230124
X00507238Y00220218
X0049784Y0020955
X00487172Y00198882
X00470916Y00194056
Y00209296
X00455676
X00440436
Y00194056
X00425196
Y00209296
X00409956
Y00194056
X00402336Y00221742
X00455676Y00194056
X00485394Y0021971
X00496062Y00230378
X00390144Y00150622
X0032258Y00200152
X00309626
X00296672
X00283718
X00270764
X00208788Y00201818
Y00341818
X00093218Y0033909
Y00326136
Y00352044
Y00364998
Y00377952
X00030226Y0029845
Y00285496
Y00272542
Y00259588
Y00246634
X00020454Y00196846
X00020155Y00185418
X00045212Y00185166
Y00196846
T02
X000381Y00066802
Y00092202
X000635
Y00066802
X00352806Y00066913
X00378206
X00403606
X00429006
X00454406
X00479806
X00437642Y00230378
Y00255778
Y00281178
Y00306578
Y00331978
Y00357378
X00058166Y00473964
X00032766
T03
X00124206Y00066548
X00149606
X00175006
X00200406
X00225806
X00251206
X00276606
X00302006
X00179832Y0017907
Y0020447
Y0022987
Y0025527
Y0028067
Y0030607
Y0033147
Y0035687
X00185166Y00473964
X00210566
X00235966
X00261366
X00302006
X00327406
X00352806
X00378206
X00403606
X00429006
X00454406
X00479806
X00159766
X00134366
X00108966
X00083566
T04
X00123952Y00027686
X00149352
X00174752
X00200152
X00225552
X00250952
X00276352
X00301752
X00352552
X00377952
X00403352
X00428752
X00454152
X00479552
Y00510286
X00454152
X00428752
X00403352
X00377952
X00352552
X00327152
X00301752
X00261112
X00235712
X00210312
X00184912
X00159512
X00134112
X00108712
X00083312
X00057912
X00032512
M30
