G04*
G04 #@! TF.GenerationSoftware,Altium Limited,Altium Designer,25.6.2 (33)*
G04*
G04 Layer_Color=8388736*
%FSLAX44Y44*%
%MOMM*%
G71*
G04*
G04 #@! TF.SameCoordinates,9B6F8C68-430D-48FD-858A-4A9C4FCAB163*
G04*
G04*
G04 #@! TF.FilePolarity,Negative*
G04*
G01*
G75*
%ADD19R,1.0922X0.9652*%
%ADD20R,0.5772X0.7550*%
%ADD21R,3.9032X1.7032*%
%ADD22R,2.2032X1.0032*%
%ADD23R,1.7032X1.7032*%
%ADD24C,1.7032*%
%ADD25R,1.9016X1.9016*%
%ADD26C,1.9016*%
%ADD27R,1.8796X1.8796*%
%ADD28C,1.8796*%
%ADD29R,1.9016X1.9016*%
%ADD30R,1.7032X1.7032*%
%ADD31C,0.6000*%
D19*
X497078Y305308D02*
D03*
X497080Y256286D02*
D03*
X37592Y167640D02*
D03*
Y152400D02*
D03*
X497078Y290068D02*
D03*
X497080Y271526D02*
D03*
D20*
X28314Y133354D02*
D03*
X37712D02*
D03*
X27940Y185166D02*
D03*
X37338D02*
D03*
X27940Y196596D02*
D03*
X37338D02*
D03*
X28314Y121924D02*
D03*
X37712D02*
D03*
D21*
X629428Y307162D02*
D03*
Y280162D02*
D03*
Y253162D02*
D03*
D22*
X386562Y341780D02*
D03*
Y321780D02*
D03*
Y301780D02*
D03*
Y281780D02*
D03*
Y261780D02*
D03*
Y241780D02*
D03*
Y221780D02*
D03*
Y201780D02*
D03*
X224562D02*
D03*
Y221780D02*
D03*
Y241780D02*
D03*
Y261780D02*
D03*
Y281780D02*
D03*
Y301780D02*
D03*
Y321780D02*
D03*
Y341780D02*
D03*
D23*
X437642Y357378D02*
D03*
D24*
Y331978D02*
D03*
Y306578D02*
D03*
Y281178D02*
D03*
Y255778D02*
D03*
Y230378D02*
D03*
X378206Y66913D02*
D03*
X403606D02*
D03*
X454406D02*
D03*
X429006D02*
D03*
X32766Y473964D02*
D03*
X352806Y66913D02*
D03*
X63500Y92202D02*
D03*
Y66802D02*
D03*
D25*
X179832Y356870D02*
D03*
D26*
Y331470D02*
D03*
Y306070D02*
D03*
Y280670D02*
D03*
Y255270D02*
D03*
Y229870D02*
D03*
Y204470D02*
D03*
Y179070D02*
D03*
X302006Y473964D02*
D03*
X124206Y66548D02*
D03*
X454406Y473964D02*
D03*
X429006D02*
D03*
X403606D02*
D03*
X378206D02*
D03*
X352806D02*
D03*
X327406D02*
D03*
X235966D02*
D03*
X210566D02*
D03*
X185166D02*
D03*
X159766D02*
D03*
X134366D02*
D03*
X108966D02*
D03*
X83566D02*
D03*
X175006Y66548D02*
D03*
X225806D02*
D03*
X149606D02*
D03*
X276606D02*
D03*
X251206D02*
D03*
X200406D02*
D03*
D27*
X123952Y27686D02*
D03*
X261112Y510286D02*
D03*
X479552D02*
D03*
X352552Y27686D02*
D03*
D28*
X149352D02*
D03*
X32512Y510286D02*
D03*
X57912D02*
D03*
X301752Y27686D02*
D03*
X174752D02*
D03*
X108712Y510286D02*
D03*
X276352Y27686D02*
D03*
X250952D02*
D03*
X134112Y510286D02*
D03*
X159512D02*
D03*
X184912D02*
D03*
X210312D02*
D03*
X235712D02*
D03*
X301752D02*
D03*
X327152D02*
D03*
X352552D02*
D03*
X377952D02*
D03*
X403352D02*
D03*
X428752D02*
D03*
X454152D02*
D03*
X83312D02*
D03*
X479552Y27686D02*
D03*
X454152D02*
D03*
X428752D02*
D03*
X403352D02*
D03*
X377952D02*
D03*
X225552D02*
D03*
X200152D02*
D03*
D29*
X479806Y473964D02*
D03*
X261366D02*
D03*
X302006Y66548D02*
D03*
D30*
X479806Y66913D02*
D03*
X58166Y473964D02*
D03*
X38100Y92202D02*
D03*
Y66802D02*
D03*
D31*
X487962Y247627D02*
D03*
X409956Y209296D02*
D03*
X425196Y194056D02*
D03*
X440436Y209296D02*
D03*
Y194056D02*
D03*
X425196Y209296D02*
D03*
X409956Y194056D02*
D03*
X497078Y316738D02*
D03*
X45212Y196846D02*
D03*
Y185166D02*
D03*
X390144Y150622D02*
D03*
X322580Y200152D02*
D03*
X309626D02*
D03*
X93218Y339090D02*
D03*
Y326136D02*
D03*
X296672Y200152D02*
D03*
X283718D02*
D03*
X270764D02*
D03*
X390144Y98806D02*
D03*
Y111760D02*
D03*
Y124714D02*
D03*
Y137668D02*
D03*
X30226Y246634D02*
D03*
Y259588D02*
D03*
Y272542D02*
D03*
Y285496D02*
D03*
Y298450D02*
D03*
X93218Y352044D02*
D03*
Y364998D02*
D03*
Y377952D02*
D03*
X523240Y461464D02*
D03*
Y474418D02*
D03*
Y487372D02*
D03*
Y500326D02*
D03*
Y513280D02*
D03*
X624078Y387604D02*
D03*
Y400558D02*
D03*
Y413512D02*
D03*
Y426466D02*
D03*
Y439420D02*
D03*
X624332Y139700D02*
D03*
Y152654D02*
D03*
Y165608D02*
D03*
Y178562D02*
D03*
Y191516D02*
D03*
X516890Y23876D02*
D03*
Y36830D02*
D03*
Y49784D02*
D03*
Y62738D02*
D03*
Y75692D02*
D03*
X64262Y10668D02*
D03*
X51308D02*
D03*
X38354D02*
D03*
X25400D02*
D03*
X12446D02*
D03*
X20454Y196846D02*
D03*
X20155Y185418D02*
D03*
X20828Y133604D02*
D03*
Y122174D02*
D03*
X208788Y341818D02*
D03*
Y201818D02*
D03*
X402336Y221742D02*
D03*
X602234Y300348D02*
D03*
Y312406D02*
D03*
Y248158D02*
D03*
Y260216D02*
D03*
X640588Y237744D02*
D03*
X629428D02*
D03*
X618268D02*
D03*
X607108D02*
D03*
Y322580D02*
D03*
X618268D02*
D03*
X629428D02*
D03*
X640588D02*
D03*
X559562Y271526D02*
D03*
X552450Y285242D02*
D03*
X549910Y263652D02*
D03*
X539750Y275082D02*
D03*
X538988Y252476D02*
D03*
X528828Y263906D02*
D03*
X528066Y241300D02*
D03*
X517906Y252730D02*
D03*
X506984Y241554D02*
D03*
X517144Y230124D02*
D03*
X496062Y230378D02*
D03*
X507238Y220218D02*
D03*
X497840Y209550D02*
D03*
X487172Y198882D02*
D03*
X485394Y219710D02*
D03*
X470916Y209296D02*
D03*
X571754Y287902D02*
D03*
Y272662D02*
D03*
X586994Y287902D02*
D03*
Y272662D02*
D03*
X602234D02*
D03*
Y287902D02*
D03*
X470916Y194056D02*
D03*
X455676D02*
D03*
Y209296D02*
D03*
M02*
