G04*
G04 #@! TF.GenerationSoftware,Altium Limited,Altium Designer,25.6.2 (33)*
G04*
G04 Layer_Physical_Order=2*
G04 Layer_Color=16711680*
%FSLAX44Y44*%
%MOMM*%
G71*
G04*
G04 #@! TF.SameCoordinates,9B6F8C68-430D-48FD-858A-4A9C4FCAB163*
G04*
G04*
G04 #@! TF.FilePolarity,Positive*
G04*
G01*
G75*
%ADD12C,0.2540*%
%ADD17R,3.7000X1.5000*%
%ADD31C,0.6000*%
%ADD33C,0.3810*%
%ADD44R,1.5000X1.5000*%
%ADD45C,1.5000*%
%ADD46R,1.8000X1.8000*%
%ADD47C,1.8000*%
%ADD48R,1.6764X1.6764*%
%ADD49C,1.6764*%
%ADD50R,1.8000X1.8000*%
%ADD51R,1.5000X1.5000*%
G36*
X519938Y530860D02*
X524958Y530860D01*
X534967Y530072D01*
X544883Y528502D01*
X554645Y526158D01*
X564193Y523056D01*
X573468Y519214D01*
X582414Y514656D01*
X590974Y509410D01*
X599096Y503509D01*
X606730Y496989D01*
X613829Y489890D01*
X620349Y482256D01*
X626250Y474133D01*
X631496Y465573D01*
X636054Y456628D01*
X639896Y447352D01*
X642998Y437804D01*
X645342Y428042D01*
X646912Y418126D01*
X647700Y408117D01*
X647700Y403098D01*
X647700Y403098D01*
X647700Y403098D01*
X647700Y128524D01*
X647700Y123574D01*
X646923Y113705D01*
X645375Y103927D01*
X643064Y94300D01*
X640004Y84885D01*
X636216Y75739D01*
X631721Y66918D01*
X626549Y58477D01*
X620730Y50468D01*
X614300Y42940D01*
X607300Y35940D01*
X599772Y29510D01*
X591763Y23691D01*
X583322Y18519D01*
X574501Y14024D01*
X565355Y10236D01*
X555939Y7176D01*
X546313Y4865D01*
X536535Y3317D01*
X526666Y2540D01*
X521716Y2540D01*
X2540D01*
Y530860D01*
X519938Y530860D01*
D02*
G37*
%LPC*%
G36*
X489712Y520446D02*
X469392D01*
Y500126D01*
X489712D01*
Y520446D01*
D02*
G37*
G36*
X455490D02*
X452814D01*
X450230Y519754D01*
X447914Y518416D01*
X446022Y516524D01*
X444684Y514208D01*
X443992Y511624D01*
Y508948D01*
X444684Y506364D01*
X446022Y504048D01*
X447914Y502156D01*
X450230Y500818D01*
X452814Y500126D01*
X455490D01*
X458074Y500818D01*
X460390Y502156D01*
X462282Y504048D01*
X463620Y506364D01*
X464312Y508948D01*
Y511624D01*
X463620Y514208D01*
X462282Y516524D01*
X460390Y518416D01*
X458074Y519754D01*
X455490Y520446D01*
D02*
G37*
G36*
X430090D02*
X427414D01*
X424830Y519754D01*
X422514Y518416D01*
X420622Y516524D01*
X419284Y514208D01*
X418592Y511624D01*
Y508948D01*
X419284Y506364D01*
X420622Y504048D01*
X422514Y502156D01*
X424830Y500818D01*
X427414Y500126D01*
X430090D01*
X432674Y500818D01*
X434990Y502156D01*
X436882Y504048D01*
X438220Y506364D01*
X438912Y508948D01*
Y511624D01*
X438220Y514208D01*
X436882Y516524D01*
X434990Y518416D01*
X432674Y519754D01*
X430090Y520446D01*
D02*
G37*
G36*
X404690D02*
X402014D01*
X399430Y519754D01*
X397114Y518416D01*
X395222Y516524D01*
X393884Y514208D01*
X393192Y511624D01*
Y508948D01*
X393884Y506364D01*
X395222Y504048D01*
X397114Y502156D01*
X399430Y500818D01*
X402014Y500126D01*
X404690D01*
X407274Y500818D01*
X409590Y502156D01*
X411482Y504048D01*
X412820Y506364D01*
X413512Y508948D01*
Y511624D01*
X412820Y514208D01*
X411482Y516524D01*
X409590Y518416D01*
X407274Y519754D01*
X404690Y520446D01*
D02*
G37*
G36*
X379290D02*
X376614D01*
X374030Y519754D01*
X371714Y518416D01*
X369822Y516524D01*
X368484Y514208D01*
X367792Y511624D01*
Y508948D01*
X368484Y506364D01*
X369822Y504048D01*
X371714Y502156D01*
X374030Y500818D01*
X376614Y500126D01*
X379290D01*
X381874Y500818D01*
X384190Y502156D01*
X386082Y504048D01*
X387420Y506364D01*
X388112Y508948D01*
Y511624D01*
X387420Y514208D01*
X386082Y516524D01*
X384190Y518416D01*
X381874Y519754D01*
X379290Y520446D01*
D02*
G37*
G36*
X353890D02*
X351214D01*
X348630Y519754D01*
X346314Y518416D01*
X344422Y516524D01*
X343084Y514208D01*
X342392Y511624D01*
Y508948D01*
X343084Y506364D01*
X344422Y504048D01*
X346314Y502156D01*
X348630Y500818D01*
X351214Y500126D01*
X353890D01*
X356474Y500818D01*
X358790Y502156D01*
X360682Y504048D01*
X362020Y506364D01*
X362712Y508948D01*
Y511624D01*
X362020Y514208D01*
X360682Y516524D01*
X358790Y518416D01*
X356474Y519754D01*
X353890Y520446D01*
D02*
G37*
G36*
X328490D02*
X325814D01*
X323230Y519754D01*
X320914Y518416D01*
X319022Y516524D01*
X317684Y514208D01*
X316992Y511624D01*
Y508948D01*
X317684Y506364D01*
X319022Y504048D01*
X320914Y502156D01*
X323230Y500818D01*
X325814Y500126D01*
X328490D01*
X331074Y500818D01*
X333390Y502156D01*
X335282Y504048D01*
X336620Y506364D01*
X337312Y508948D01*
Y511624D01*
X336620Y514208D01*
X335282Y516524D01*
X333390Y518416D01*
X331074Y519754D01*
X328490Y520446D01*
D02*
G37*
G36*
X303090D02*
X300414D01*
X297830Y519754D01*
X295514Y518416D01*
X293622Y516524D01*
X292284Y514208D01*
X291592Y511624D01*
Y508948D01*
X292284Y506364D01*
X293622Y504048D01*
X295514Y502156D01*
X297830Y500818D01*
X300414Y500126D01*
X303090D01*
X305674Y500818D01*
X307990Y502156D01*
X309882Y504048D01*
X311220Y506364D01*
X311912Y508948D01*
Y511624D01*
X311220Y514208D01*
X309882Y516524D01*
X307990Y518416D01*
X305674Y519754D01*
X303090Y520446D01*
D02*
G37*
G36*
X271272D02*
X250952D01*
Y500126D01*
X271272D01*
Y520446D01*
D02*
G37*
G36*
X237050D02*
X234374D01*
X231790Y519754D01*
X229473Y518416D01*
X227582Y516524D01*
X226244Y514208D01*
X225552Y511624D01*
Y508948D01*
X226244Y506364D01*
X227582Y504048D01*
X229473Y502156D01*
X231790Y500818D01*
X234374Y500126D01*
X237050D01*
X239634Y500818D01*
X241950Y502156D01*
X243842Y504048D01*
X245180Y506364D01*
X245872Y508948D01*
Y511624D01*
X245180Y514208D01*
X243842Y516524D01*
X241950Y518416D01*
X239634Y519754D01*
X237050Y520446D01*
D02*
G37*
G36*
X211649D02*
X208974D01*
X206390Y519754D01*
X204074Y518416D01*
X202182Y516524D01*
X200844Y514208D01*
X200152Y511624D01*
Y508948D01*
X200844Y506364D01*
X202182Y504048D01*
X204074Y502156D01*
X206390Y500818D01*
X208974Y500126D01*
X211649D01*
X214233Y500818D01*
X216550Y502156D01*
X218442Y504048D01*
X219779Y506364D01*
X220472Y508948D01*
Y511624D01*
X219779Y514208D01*
X218442Y516524D01*
X216550Y518416D01*
X214233Y519754D01*
X211649Y520446D01*
D02*
G37*
G36*
X186250D02*
X183574D01*
X180990Y519754D01*
X178673Y518416D01*
X176782Y516524D01*
X175444Y514208D01*
X174752Y511624D01*
Y508948D01*
X175444Y506364D01*
X176782Y504048D01*
X178673Y502156D01*
X180990Y500818D01*
X183574Y500126D01*
X186250D01*
X188834Y500818D01*
X191150Y502156D01*
X193042Y504048D01*
X194380Y506364D01*
X195072Y508948D01*
Y511624D01*
X194380Y514208D01*
X193042Y516524D01*
X191150Y518416D01*
X188834Y519754D01*
X186250Y520446D01*
D02*
G37*
G36*
X160849D02*
X158174D01*
X155590Y519754D01*
X153273Y518416D01*
X151382Y516524D01*
X150044Y514208D01*
X149352Y511624D01*
Y508948D01*
X150044Y506364D01*
X151382Y504048D01*
X153273Y502156D01*
X155590Y500818D01*
X158174Y500126D01*
X160849D01*
X163433Y500818D01*
X165750Y502156D01*
X167642Y504048D01*
X168979Y506364D01*
X169672Y508948D01*
Y511624D01*
X168979Y514208D01*
X167642Y516524D01*
X165750Y518416D01*
X163433Y519754D01*
X160849Y520446D01*
D02*
G37*
G36*
X135449D02*
X132774D01*
X130190Y519754D01*
X127873Y518416D01*
X125982Y516524D01*
X124644Y514208D01*
X123952Y511624D01*
Y508948D01*
X124644Y506364D01*
X125982Y504048D01*
X127873Y502156D01*
X130190Y500818D01*
X132774Y500126D01*
X135449D01*
X138034Y500818D01*
X140350Y502156D01*
X142242Y504048D01*
X143580Y506364D01*
X144272Y508948D01*
Y511624D01*
X143580Y514208D01*
X142242Y516524D01*
X140350Y518416D01*
X138034Y519754D01*
X135449Y520446D01*
D02*
G37*
G36*
X84650D02*
X81974D01*
X79390Y519754D01*
X77074Y518416D01*
X75182Y516524D01*
X73844Y514208D01*
X73152Y511624D01*
Y508948D01*
X73844Y506364D01*
X75182Y504048D01*
X77074Y502156D01*
X79390Y500818D01*
X81974Y500126D01*
X84650D01*
X87234Y500818D01*
X89550Y502156D01*
X91442Y504048D01*
X92780Y506364D01*
X93472Y508948D01*
Y511624D01*
X92780Y514208D01*
X91442Y516524D01*
X89550Y518416D01*
X87234Y519754D01*
X84650Y520446D01*
D02*
G37*
G36*
X59250D02*
X56574D01*
X53990Y519754D01*
X51674Y518416D01*
X49782Y516524D01*
X48444Y514208D01*
X47752Y511624D01*
Y508948D01*
X48444Y506364D01*
X49782Y504048D01*
X51674Y502156D01*
X53990Y500818D01*
X56574Y500126D01*
X59250D01*
X61834Y500818D01*
X64150Y502156D01*
X66042Y504048D01*
X67380Y506364D01*
X68072Y508948D01*
Y511624D01*
X67380Y514208D01*
X66042Y516524D01*
X64150Y518416D01*
X61834Y519754D01*
X59250Y520446D01*
D02*
G37*
G36*
X33850D02*
X31174D01*
X28590Y519754D01*
X26274Y518416D01*
X24382Y516524D01*
X23044Y514208D01*
X22352Y511624D01*
Y508948D01*
X23044Y506364D01*
X24382Y504048D01*
X26274Y502156D01*
X28590Y500818D01*
X31174Y500126D01*
X33850D01*
X36434Y500818D01*
X38750Y502156D01*
X40642Y504048D01*
X41980Y506364D01*
X42672Y508948D01*
Y511624D01*
X41980Y514208D01*
X40642Y516524D01*
X38750Y518416D01*
X36434Y519754D01*
X33850Y520446D01*
D02*
G37*
G36*
X67444Y483242D02*
X48888D01*
Y464686D01*
X67444D01*
Y483242D01*
D02*
G37*
G36*
X33988D02*
X31544D01*
X29185Y482610D01*
X27069Y481388D01*
X25342Y479661D01*
X24120Y477545D01*
X23488Y475186D01*
Y472743D01*
X24120Y470383D01*
X25342Y468267D01*
X27069Y466540D01*
X29185Y465318D01*
X31544Y464686D01*
X33988D01*
X36347Y465318D01*
X38463Y466540D01*
X40190Y468267D01*
X41412Y470383D01*
X42044Y472743D01*
Y475186D01*
X41412Y477545D01*
X40190Y479661D01*
X38463Y481388D01*
X36347Y482610D01*
X33988Y483242D01*
D02*
G37*
G36*
X490584Y484742D02*
X469028D01*
Y463186D01*
X490584D01*
Y484742D01*
D02*
G37*
G36*
X455825D02*
X452987D01*
X450246Y484007D01*
X447788Y482589D01*
X445782Y480582D01*
X444362Y478124D01*
X443628Y475383D01*
Y472545D01*
X444362Y469804D01*
X445782Y467346D01*
X447788Y465340D01*
X450246Y463921D01*
X452987Y463186D01*
X455825D01*
X458566Y463921D01*
X461024Y465340D01*
X463031Y467346D01*
X464450Y469804D01*
X465184Y472545D01*
Y475383D01*
X464450Y478124D01*
X463031Y480582D01*
X461024Y482589D01*
X458566Y484007D01*
X455825Y484742D01*
D02*
G37*
G36*
X430425D02*
X427587D01*
X424846Y484007D01*
X422388Y482589D01*
X420382Y480582D01*
X418963Y478124D01*
X418228Y475383D01*
Y472545D01*
X418963Y469804D01*
X420382Y467346D01*
X422388Y465340D01*
X424846Y463921D01*
X427587Y463186D01*
X430425D01*
X433166Y463921D01*
X435624Y465340D01*
X437631Y467346D01*
X439049Y469804D01*
X439784Y472545D01*
Y475383D01*
X439049Y478124D01*
X437631Y480582D01*
X435624Y482589D01*
X433166Y484007D01*
X430425Y484742D01*
D02*
G37*
G36*
X405025D02*
X402187D01*
X399446Y484007D01*
X396988Y482589D01*
X394981Y480582D01*
X393563Y478124D01*
X392828Y475383D01*
Y472545D01*
X393563Y469804D01*
X394981Y467346D01*
X396988Y465340D01*
X399446Y463921D01*
X402187Y463186D01*
X405025D01*
X407766Y463921D01*
X410224Y465340D01*
X412230Y467346D01*
X413649Y469804D01*
X414384Y472545D01*
Y475383D01*
X413649Y478124D01*
X412230Y480582D01*
X410224Y482589D01*
X407766Y484007D01*
X405025Y484742D01*
D02*
G37*
G36*
X379625D02*
X376787D01*
X374046Y484007D01*
X371588Y482589D01*
X369581Y480582D01*
X368162Y478124D01*
X367428Y475383D01*
Y472545D01*
X368162Y469804D01*
X369581Y467346D01*
X371588Y465340D01*
X374046Y463921D01*
X376787Y463186D01*
X379625D01*
X382366Y463921D01*
X384824Y465340D01*
X386830Y467346D01*
X388250Y469804D01*
X388984Y472545D01*
Y475383D01*
X388250Y478124D01*
X386830Y480582D01*
X384824Y482589D01*
X382366Y484007D01*
X379625Y484742D01*
D02*
G37*
G36*
X354225D02*
X351387D01*
X348646Y484007D01*
X346188Y482589D01*
X344182Y480582D01*
X342762Y478124D01*
X342028Y475383D01*
Y472545D01*
X342762Y469804D01*
X344182Y467346D01*
X346188Y465340D01*
X348646Y463921D01*
X351387Y463186D01*
X354225D01*
X356966Y463921D01*
X359424Y465340D01*
X361431Y467346D01*
X362850Y469804D01*
X363584Y472545D01*
Y475383D01*
X362850Y478124D01*
X361431Y480582D01*
X359424Y482589D01*
X356966Y484007D01*
X354225Y484742D01*
D02*
G37*
G36*
X328825D02*
X325987D01*
X323246Y484007D01*
X320788Y482589D01*
X318782Y480582D01*
X317362Y478124D01*
X316628Y475383D01*
Y472545D01*
X317362Y469804D01*
X318782Y467346D01*
X320788Y465340D01*
X323246Y463921D01*
X325987Y463186D01*
X328825D01*
X331566Y463921D01*
X334024Y465340D01*
X336031Y467346D01*
X337449Y469804D01*
X338184Y472545D01*
Y475383D01*
X337449Y478124D01*
X336031Y480582D01*
X334024Y482589D01*
X331566Y484007D01*
X328825Y484742D01*
D02*
G37*
G36*
X303425D02*
X300587D01*
X297846Y484007D01*
X295388Y482589D01*
X293382Y480582D01*
X291963Y478124D01*
X291228Y475383D01*
Y472545D01*
X291963Y469804D01*
X293382Y467346D01*
X295388Y465340D01*
X297846Y463921D01*
X300587Y463186D01*
X303425D01*
X306166Y463921D01*
X308624Y465340D01*
X310630Y467346D01*
X312050Y469804D01*
X312784Y472545D01*
Y475383D01*
X312050Y478124D01*
X310630Y480582D01*
X308624Y482589D01*
X306166Y484007D01*
X303425Y484742D01*
D02*
G37*
G36*
X237385D02*
X234547D01*
X231806Y484007D01*
X229348Y482589D01*
X227341Y480582D01*
X225923Y478124D01*
X225188Y475383D01*
Y472545D01*
X225923Y469804D01*
X227341Y467346D01*
X229348Y465340D01*
X231806Y463921D01*
X234547Y463186D01*
X237385D01*
X240126Y463921D01*
X242584Y465340D01*
X244590Y467346D01*
X246010Y469804D01*
X246744Y472545D01*
Y475383D01*
X246010Y478124D01*
X244590Y480582D01*
X242584Y482589D01*
X240126Y484007D01*
X237385Y484742D01*
D02*
G37*
G36*
X211985D02*
X209147D01*
X206406Y484007D01*
X203948Y482589D01*
X201942Y480582D01*
X200522Y478124D01*
X199788Y475383D01*
Y472545D01*
X200522Y469804D01*
X201942Y467346D01*
X203948Y465340D01*
X206406Y463921D01*
X209147Y463186D01*
X211985D01*
X214726Y463921D01*
X217184Y465340D01*
X219191Y467346D01*
X220609Y469804D01*
X221344Y472545D01*
Y475383D01*
X220609Y478124D01*
X219191Y480582D01*
X217184Y482589D01*
X214726Y484007D01*
X211985Y484742D01*
D02*
G37*
G36*
X186585D02*
X183747D01*
X181006Y484007D01*
X178548Y482589D01*
X176542Y480582D01*
X175123Y478124D01*
X174388Y475383D01*
Y472545D01*
X175123Y469804D01*
X176542Y467346D01*
X178548Y465340D01*
X181006Y463921D01*
X183747Y463186D01*
X186585D01*
X189326Y463921D01*
X191784Y465340D01*
X193790Y467346D01*
X195210Y469804D01*
X195944Y472545D01*
Y475383D01*
X195210Y478124D01*
X193790Y480582D01*
X191784Y482589D01*
X189326Y484007D01*
X186585Y484742D01*
D02*
G37*
G36*
X161185D02*
X158347D01*
X155606Y484007D01*
X153148Y482589D01*
X151142Y480582D01*
X149722Y478124D01*
X148988Y475383D01*
Y472545D01*
X149722Y469804D01*
X151142Y467346D01*
X153148Y465340D01*
X155606Y463921D01*
X158347Y463186D01*
X161185D01*
X163926Y463921D01*
X166384Y465340D01*
X168391Y467346D01*
X169809Y469804D01*
X170544Y472545D01*
Y475383D01*
X169809Y478124D01*
X168391Y480582D01*
X166384Y482589D01*
X163926Y484007D01*
X161185Y484742D01*
D02*
G37*
G36*
X135785D02*
X132947D01*
X130206Y484007D01*
X127748Y482589D01*
X125742Y480582D01*
X124323Y478124D01*
X123588Y475383D01*
Y472545D01*
X124323Y469804D01*
X125742Y467346D01*
X127748Y465340D01*
X130206Y463921D01*
X132947Y463186D01*
X135785D01*
X138526Y463921D01*
X140984Y465340D01*
X142991Y467346D01*
X144410Y469804D01*
X145144Y472545D01*
Y475383D01*
X144410Y478124D01*
X142991Y480582D01*
X140984Y482589D01*
X138526Y484007D01*
X135785Y484742D01*
D02*
G37*
G36*
X84985D02*
X82147D01*
X79406Y484007D01*
X76948Y482589D01*
X74942Y480582D01*
X73523Y478124D01*
X72788Y475383D01*
Y472545D01*
X73523Y469804D01*
X74942Y467346D01*
X76948Y465340D01*
X79406Y463921D01*
X82147Y463186D01*
X84985D01*
X87726Y463921D01*
X90184Y465340D01*
X92191Y467346D01*
X93610Y469804D01*
X94344Y472545D01*
Y475383D01*
X93610Y478124D01*
X92191Y480582D01*
X90184Y482589D01*
X87726Y484007D01*
X84985Y484742D01*
D02*
G37*
G36*
X446920Y366656D02*
X428364D01*
Y348100D01*
X446920D01*
Y366656D01*
D02*
G37*
G36*
X438863Y341256D02*
X436421D01*
X434061Y340624D01*
X431945Y339402D01*
X430218Y337675D01*
X428996Y335559D01*
X428364Y333200D01*
Y330756D01*
X428996Y328397D01*
X430218Y326281D01*
X431945Y324554D01*
X434061Y323332D01*
X436421Y322700D01*
X438863D01*
X441223Y323332D01*
X443339Y324554D01*
X445066Y326281D01*
X446288Y328397D01*
X446920Y330756D01*
Y333200D01*
X446288Y335559D01*
X445066Y337675D01*
X443339Y339402D01*
X441223Y340624D01*
X438863Y341256D01*
D02*
G37*
G36*
X181251Y342248D02*
X178413D01*
X175672Y341513D01*
X173214Y340094D01*
X171208Y338088D01*
X169788Y335630D01*
X169054Y332889D01*
Y330051D01*
X169788Y327310D01*
X171208Y324852D01*
X173214Y322845D01*
X175672Y321427D01*
X178413Y320692D01*
X181251D01*
X183992Y321427D01*
X186450Y322845D01*
X188456Y324852D01*
X189876Y327310D01*
X190610Y330051D01*
Y332889D01*
X189876Y335630D01*
X188456Y338088D01*
X186450Y340094D01*
X183992Y341513D01*
X181251Y342248D01*
D02*
G37*
G36*
X272144Y484742D02*
X250588D01*
Y463186D01*
X257481D01*
Y437134D01*
X257476D01*
X257792Y435548D01*
X257852Y435459D01*
X258104Y432897D01*
X259266Y429066D01*
X261153Y425536D01*
X263692Y422442D01*
X266786Y419903D01*
X270316Y418016D01*
X274147Y416854D01*
X278130Y416462D01*
Y416485D01*
X471678D01*
X471851Y416520D01*
X475886Y416123D01*
X479931Y414895D01*
X483660Y412902D01*
X486928Y410220D01*
X489610Y406952D01*
X491603Y403223D01*
X492831Y399178D01*
X493228Y395143D01*
X493193Y394970D01*
Y320688D01*
X492381Y319876D01*
X491538Y317840D01*
Y315636D01*
X492381Y313600D01*
X493940Y312041D01*
X495976Y311198D01*
X498180D01*
X500216Y312041D01*
X501775Y313600D01*
X502618Y315636D01*
Y317840D01*
X501775Y319876D01*
X500963Y320688D01*
Y394970D01*
X500978D01*
X500618Y399554D01*
X499544Y404024D01*
X497785Y408272D01*
X495382Y412192D01*
X492396Y415688D01*
X488900Y418674D01*
X484980Y421077D01*
X480732Y422836D01*
X476262Y423910D01*
X471678Y424270D01*
Y424255D01*
X278130D01*
X277960Y424221D01*
X274848Y424631D01*
X271789Y425897D01*
X269163Y427913D01*
X267148Y430539D01*
X265881Y433598D01*
X265582Y435864D01*
X265606Y437134D01*
X265313Y437841D01*
X265251Y438157D01*
Y463186D01*
X272144D01*
Y484742D01*
D02*
G37*
G36*
X438863Y315856D02*
X436421D01*
X434061Y315224D01*
X431945Y314002D01*
X430218Y312275D01*
X428996Y310159D01*
X428364Y307799D01*
Y305357D01*
X428996Y302997D01*
X430218Y300881D01*
X431945Y299154D01*
X434061Y297932D01*
X436421Y297300D01*
X438863D01*
X441223Y297932D01*
X443339Y299154D01*
X445066Y300881D01*
X446288Y302997D01*
X446920Y305357D01*
Y307799D01*
X446288Y310159D01*
X445066Y312275D01*
X443339Y314002D01*
X441223Y315224D01*
X438863Y315856D01*
D02*
G37*
G36*
X181251Y316848D02*
X178413D01*
X175672Y316113D01*
X173214Y314694D01*
X171208Y312688D01*
X169788Y310230D01*
X169054Y307489D01*
Y304651D01*
X169788Y301910D01*
X171208Y299452D01*
X173214Y297446D01*
X175672Y296026D01*
X178413Y295292D01*
X181251D01*
X183992Y296026D01*
X186450Y297446D01*
X188456Y299452D01*
X189876Y301910D01*
X190610Y304651D01*
Y307489D01*
X189876Y310230D01*
X188456Y312688D01*
X186450Y314694D01*
X183992Y316113D01*
X181251Y316848D01*
D02*
G37*
G36*
X438863Y290456D02*
X436421D01*
X434061Y289824D01*
X431945Y288602D01*
X430218Y286875D01*
X429545Y285710D01*
X347980D01*
X347853Y285685D01*
X344967Y285401D01*
X342071Y284522D01*
X339401Y283095D01*
X337061Y281175D01*
X335141Y278835D01*
X333714Y276165D01*
X332835Y273269D01*
X332551Y270383D01*
X332526Y270256D01*
Y170688D01*
X332567Y170483D01*
X332185Y166605D01*
X330994Y162679D01*
X329060Y159061D01*
X326457Y155889D01*
X323285Y153286D01*
X319667Y151352D01*
X315741Y150161D01*
X311863Y149779D01*
X311658Y149820D01*
X114350D01*
X114231Y149796D01*
X111950Y150097D01*
X109713Y151023D01*
X107793Y152497D01*
X106319Y154417D01*
X105393Y156654D01*
X105092Y158935D01*
X105116Y159054D01*
Y169418D01*
X105127D01*
X104737Y173377D01*
X103582Y177183D01*
X101707Y180691D01*
X99184Y183766D01*
X96109Y186289D01*
X92601Y188164D01*
X88794Y189319D01*
X84836Y189709D01*
Y189698D01*
X48515D01*
X48350Y189863D01*
X47249Y190319D01*
Y191693D01*
X48350Y192150D01*
X49909Y193708D01*
X50752Y195744D01*
Y197948D01*
X49909Y199984D01*
X48350Y201543D01*
X46314Y202386D01*
X44110D01*
X42074Y201543D01*
X40515Y199984D01*
X39672Y197948D01*
Y195744D01*
X40515Y193708D01*
X42074Y192150D01*
X43175Y191693D01*
Y190319D01*
X42074Y189863D01*
X40515Y188304D01*
X39672Y186268D01*
Y184064D01*
X40515Y182028D01*
X42074Y180469D01*
X44110Y179626D01*
X46314D01*
X48350Y180469D01*
X48515Y180634D01*
X84836D01*
X85007Y180668D01*
X87753Y180306D01*
X90472Y179180D01*
X92807Y177389D01*
X94598Y175054D01*
X95724Y172335D01*
X96086Y169589D01*
X96052Y169418D01*
Y159054D01*
X96051D01*
X96403Y155484D01*
X97444Y152051D01*
X99135Y148888D01*
X101411Y146115D01*
X104184Y143839D01*
X107347Y142148D01*
X110780Y141107D01*
X114350Y140755D01*
Y140756D01*
X311658D01*
Y140751D01*
X316341Y141119D01*
X320909Y142216D01*
X325249Y144014D01*
X329255Y146468D01*
X332827Y149519D01*
X335878Y153091D01*
X338332Y157097D01*
X340130Y161437D01*
X341227Y166005D01*
X341595Y170688D01*
X341590D01*
Y270256D01*
X341548Y270468D01*
X341998Y272734D01*
X343402Y274834D01*
X345502Y276238D01*
X347768Y276688D01*
X347980Y276646D01*
X429545D01*
X430218Y275481D01*
X431945Y273754D01*
X434061Y272532D01*
X436421Y271900D01*
X438863D01*
X441223Y272532D01*
X443339Y273754D01*
X445066Y275481D01*
X446288Y277597D01*
X446920Y279956D01*
Y282400D01*
X446288Y284759D01*
X445066Y286875D01*
X443339Y288602D01*
X441223Y289824D01*
X438863Y290456D01*
D02*
G37*
G36*
X181251Y291448D02*
X178413D01*
X175672Y290714D01*
X173214Y289294D01*
X171208Y287288D01*
X169788Y284830D01*
X169054Y282089D01*
Y279251D01*
X169788Y276510D01*
X171208Y274052D01*
X173214Y272045D01*
X175672Y270627D01*
X178413Y269892D01*
X181251D01*
X183992Y270627D01*
X186450Y272045D01*
X188456Y274052D01*
X189876Y276510D01*
X190610Y279251D01*
Y282089D01*
X189876Y284830D01*
X188456Y287288D01*
X186450Y289294D01*
X183992Y290714D01*
X181251Y291448D01*
D02*
G37*
G36*
X438863Y265056D02*
X436421D01*
X434061Y264424D01*
X431945Y263202D01*
X430218Y261475D01*
X428996Y259359D01*
X428364Y256999D01*
Y254557D01*
X428996Y252197D01*
X430218Y250081D01*
X431945Y248354D01*
X432136Y248243D01*
X431796Y246973D01*
X387643D01*
Y246993D01*
X382854Y246616D01*
X378183Y245495D01*
X373745Y243656D01*
X369649Y241146D01*
X365996Y238027D01*
X362876Y234374D01*
X360366Y230278D01*
X358528Y225840D01*
X357407Y221169D01*
X357030Y216380D01*
X357049D01*
Y197866D01*
X357034D01*
X357394Y193282D01*
X358468Y188812D01*
X360227Y184564D01*
X362630Y180644D01*
X365616Y177148D01*
X369112Y174162D01*
X373032Y171759D01*
X377280Y170000D01*
X381750Y168926D01*
X386334Y168566D01*
Y168581D01*
X403606D01*
X403779Y168616D01*
X407813Y168218D01*
X411859Y166991D01*
X415588Y164998D01*
X418856Y162316D01*
X421538Y159048D01*
X423531Y155319D01*
X424758Y151273D01*
X425156Y147239D01*
X425121Y147066D01*
Y75384D01*
X423309Y74337D01*
X421582Y72610D01*
X420360Y70494D01*
X419728Y68134D01*
Y65691D01*
X420360Y63332D01*
X421582Y61216D01*
X423309Y59489D01*
X425425Y58267D01*
X427785Y57635D01*
X430228D01*
X432587Y58267D01*
X434703Y59489D01*
X436430Y61216D01*
X437652Y63332D01*
X438284Y65691D01*
Y68134D01*
X437652Y70494D01*
X436430Y72610D01*
X434703Y74337D01*
X432891Y75384D01*
Y147066D01*
X432906D01*
X432546Y151650D01*
X431472Y156120D01*
X429713Y160368D01*
X427310Y164288D01*
X424324Y167784D01*
X420828Y170770D01*
X416908Y173173D01*
X412660Y174932D01*
X408190Y176006D01*
X403606Y176366D01*
Y176351D01*
X386334D01*
X386161Y176316D01*
X382127Y176714D01*
X378081Y177941D01*
X374352Y179934D01*
X371084Y182616D01*
X368402Y185884D01*
X366409Y189613D01*
X365182Y193659D01*
X364784Y197693D01*
X364819Y197866D01*
Y216380D01*
X364780Y216574D01*
X365201Y220844D01*
X366503Y225137D01*
X368617Y229093D01*
X371463Y232560D01*
X374930Y235406D01*
X378886Y237520D01*
X383179Y238822D01*
X387448Y239243D01*
X387643Y239204D01*
X431833D01*
X432173Y237934D01*
X431945Y237802D01*
X430218Y236075D01*
X428996Y233959D01*
X428364Y231600D01*
Y229156D01*
X428996Y226797D01*
X430218Y224681D01*
X431945Y222954D01*
X434061Y221732D01*
X436421Y221100D01*
X438863D01*
X441223Y221732D01*
X443339Y222954D01*
X445066Y224681D01*
X446288Y226797D01*
X446920Y229156D01*
Y231600D01*
X446288Y233959D01*
X445066Y236075D01*
X443339Y237802D01*
X443111Y237934D01*
X443451Y239204D01*
X483424D01*
X484910Y239500D01*
X486171Y240342D01*
X487916Y242087D01*
X489064D01*
X491100Y242931D01*
X492659Y244489D01*
X493502Y246525D01*
Y248729D01*
X492659Y250765D01*
X491100Y252324D01*
X489064Y253167D01*
X486860D01*
X484824Y252324D01*
X483265Y250765D01*
X482422Y248729D01*
Y247581D01*
X481815Y246973D01*
X443488D01*
X443147Y248243D01*
X443339Y248354D01*
X445066Y250081D01*
X446288Y252197D01*
X446920Y254557D01*
Y256999D01*
X446288Y259359D01*
X445066Y261475D01*
X443339Y263202D01*
X441223Y264424D01*
X438863Y265056D01*
D02*
G37*
G36*
X181251Y266048D02*
X178413D01*
X175672Y265313D01*
X173214Y263895D01*
X171208Y261888D01*
X169788Y259430D01*
X169054Y256689D01*
Y253851D01*
X169788Y251110D01*
X171208Y248652D01*
X173214Y246646D01*
X175672Y245226D01*
X178413Y244492D01*
X181251D01*
X183992Y245226D01*
X186450Y246646D01*
X188456Y248652D01*
X189876Y251110D01*
X190610Y253851D01*
Y256689D01*
X189876Y259430D01*
X188456Y261888D01*
X186450Y263895D01*
X183992Y265313D01*
X181251Y266048D01*
D02*
G37*
G36*
Y240648D02*
X178413D01*
X175672Y239914D01*
X173214Y238494D01*
X171208Y236488D01*
X169788Y234030D01*
X169054Y231289D01*
Y228451D01*
X169788Y225710D01*
X171208Y223252D01*
X173214Y221245D01*
X175672Y219827D01*
X178413Y219092D01*
X181251D01*
X183992Y219827D01*
X186450Y221245D01*
X188456Y223252D01*
X189876Y225710D01*
X190610Y228451D01*
Y231289D01*
X189876Y234030D01*
X188456Y236488D01*
X186450Y238494D01*
X183992Y239914D01*
X181251Y240648D01*
D02*
G37*
G36*
Y215248D02*
X178413D01*
X175672Y214513D01*
X173214Y213095D01*
X171208Y211088D01*
X169788Y208630D01*
X169054Y205889D01*
Y203051D01*
X169788Y200310D01*
X171208Y197852D01*
X173214Y195846D01*
X175672Y194426D01*
X178413Y193692D01*
X181251D01*
X183992Y194426D01*
X186450Y195846D01*
X188456Y197852D01*
X189876Y200310D01*
X190610Y203051D01*
Y205889D01*
X189876Y208630D01*
X188456Y211088D01*
X186450Y213095D01*
X183992Y214513D01*
X181251Y215248D01*
D02*
G37*
G36*
X64721Y101480D02*
X62278D01*
X59919Y100848D01*
X57803Y99626D01*
X56076Y97899D01*
X54854Y95783D01*
X54222Y93424D01*
Y90981D01*
X54854Y88621D01*
X56076Y86505D01*
X57803Y84778D01*
X59919Y83556D01*
X62278Y82924D01*
X64721D01*
X67081Y83556D01*
X69197Y84778D01*
X70924Y86505D01*
X72146Y88621D01*
X72778Y90981D01*
Y93424D01*
X72146Y95783D01*
X70924Y97899D01*
X69197Y99626D01*
X67081Y100848D01*
X64721Y101480D01*
D02*
G37*
G36*
X47378D02*
X28822D01*
Y82924D01*
X47378D01*
Y101480D01*
D02*
G37*
G36*
X489084Y76191D02*
X470528D01*
Y57635D01*
X489084D01*
Y76191D01*
D02*
G37*
G36*
X455628D02*
X453185D01*
X450825Y75559D01*
X448709Y74337D01*
X446982Y72610D01*
X445760Y70494D01*
X445128Y68134D01*
Y65691D01*
X445760Y63332D01*
X446982Y61216D01*
X448709Y59489D01*
X450825Y58267D01*
X453185Y57635D01*
X455628D01*
X457987Y58267D01*
X460103Y59489D01*
X461830Y61216D01*
X463052Y63332D01*
X463684Y65691D01*
Y68134D01*
X463052Y70494D01*
X461830Y72610D01*
X460103Y74337D01*
X457987Y75559D01*
X455628Y76191D01*
D02*
G37*
G36*
X404827D02*
X402384D01*
X400025Y75559D01*
X397909Y74337D01*
X396182Y72610D01*
X394960Y70494D01*
X394328Y68134D01*
Y65691D01*
X394960Y63332D01*
X396182Y61216D01*
X397909Y59489D01*
X400025Y58267D01*
X402384Y57635D01*
X404827D01*
X407187Y58267D01*
X409303Y59489D01*
X411030Y61216D01*
X412252Y63332D01*
X412884Y65691D01*
Y68134D01*
X412252Y70494D01*
X411030Y72610D01*
X409303Y74337D01*
X407187Y75559D01*
X404827Y76191D01*
D02*
G37*
G36*
X379427D02*
X376984D01*
X374625Y75559D01*
X372509Y74337D01*
X370782Y72610D01*
X369560Y70494D01*
X368928Y68134D01*
Y65691D01*
X369560Y63332D01*
X370782Y61216D01*
X372509Y59489D01*
X374625Y58267D01*
X376984Y57635D01*
X379427D01*
X381787Y58267D01*
X383903Y59489D01*
X385630Y61216D01*
X386852Y63332D01*
X387484Y65691D01*
Y68134D01*
X386852Y70494D01*
X385630Y72610D01*
X383903Y74337D01*
X381787Y75559D01*
X379427Y76191D01*
D02*
G37*
G36*
X354027D02*
X351585D01*
X349225Y75559D01*
X347109Y74337D01*
X345382Y72610D01*
X344160Y70494D01*
X343528Y68134D01*
Y65691D01*
X344160Y63332D01*
X345382Y61216D01*
X347109Y59489D01*
X349225Y58267D01*
X351585Y57635D01*
X354027D01*
X356387Y58267D01*
X358503Y59489D01*
X360230Y61216D01*
X361452Y63332D01*
X362084Y65691D01*
Y68134D01*
X361452Y70494D01*
X360230Y72610D01*
X358503Y74337D01*
X356387Y75559D01*
X354027Y76191D01*
D02*
G37*
G36*
X312784Y77326D02*
X291228D01*
Y55770D01*
X312784D01*
Y77326D01*
D02*
G37*
G36*
X227225D02*
X224387D01*
X221646Y76592D01*
X219188Y75173D01*
X217181Y73166D01*
X215763Y70708D01*
X215028Y67967D01*
Y65129D01*
X215763Y62388D01*
X217181Y59930D01*
X219188Y57923D01*
X221646Y56505D01*
X224387Y55770D01*
X227225D01*
X229966Y56505D01*
X232424Y57923D01*
X234431Y59930D01*
X235849Y62388D01*
X236584Y65129D01*
Y67967D01*
X235849Y70708D01*
X234431Y73166D01*
X232424Y75173D01*
X229966Y76592D01*
X227225Y77326D01*
D02*
G37*
G36*
X201825D02*
X198987D01*
X196246Y76592D01*
X193788Y75173D01*
X191782Y73166D01*
X190362Y70708D01*
X189628Y67967D01*
Y65129D01*
X190362Y62388D01*
X191782Y59930D01*
X193788Y57923D01*
X196246Y56505D01*
X198987Y55770D01*
X201825D01*
X204566Y56505D01*
X207024Y57923D01*
X209030Y59930D01*
X210450Y62388D01*
X211184Y65129D01*
Y67967D01*
X210450Y70708D01*
X209030Y73166D01*
X207024Y75173D01*
X204566Y76592D01*
X201825Y77326D01*
D02*
G37*
G36*
X176425D02*
X173587D01*
X170846Y76592D01*
X168388Y75173D01*
X166381Y73166D01*
X164963Y70708D01*
X164228Y67967D01*
Y65129D01*
X164963Y62388D01*
X166381Y59930D01*
X168388Y57923D01*
X170846Y56505D01*
X173587Y55770D01*
X176425D01*
X179166Y56505D01*
X181624Y57923D01*
X183631Y59930D01*
X185049Y62388D01*
X185784Y65129D01*
Y67967D01*
X185049Y70708D01*
X183631Y73166D01*
X181624Y75173D01*
X179166Y76592D01*
X176425Y77326D01*
D02*
G37*
G36*
X151025D02*
X148187D01*
X145446Y76592D01*
X142988Y75173D01*
X140982Y73166D01*
X139563Y70708D01*
X138828Y67967D01*
Y65129D01*
X139563Y62388D01*
X140982Y59930D01*
X142988Y57923D01*
X145446Y56505D01*
X148187Y55770D01*
X151025D01*
X153766Y56505D01*
X156224Y57923D01*
X158230Y59930D01*
X159649Y62388D01*
X160384Y65129D01*
Y67967D01*
X159649Y70708D01*
X158230Y73166D01*
X156224Y75173D01*
X153766Y76592D01*
X151025Y77326D01*
D02*
G37*
G36*
X125625D02*
X122787D01*
X120046Y76592D01*
X117588Y75173D01*
X115582Y73166D01*
X114163Y70708D01*
X113428Y67967D01*
Y65129D01*
X114163Y62388D01*
X115582Y59930D01*
X117588Y57923D01*
X120046Y56505D01*
X122787Y55770D01*
X125625D01*
X128366Y56505D01*
X130824Y57923D01*
X132830Y59930D01*
X134249Y62388D01*
X134984Y65129D01*
Y67967D01*
X134249Y70708D01*
X132830Y73166D01*
X130824Y75173D01*
X128366Y76592D01*
X125625Y77326D01*
D02*
G37*
G36*
X480890Y37846D02*
X478214D01*
X475630Y37154D01*
X473314Y35816D01*
X471422Y33924D01*
X470084Y31608D01*
X469392Y29024D01*
Y26348D01*
X470084Y23764D01*
X471422Y21448D01*
X473314Y19556D01*
X475630Y18218D01*
X478214Y17526D01*
X480890D01*
X483474Y18218D01*
X485790Y19556D01*
X487682Y21448D01*
X489020Y23764D01*
X489712Y26348D01*
Y29024D01*
X489020Y31608D01*
X487682Y33924D01*
X485790Y35816D01*
X483474Y37154D01*
X480890Y37846D01*
D02*
G37*
G36*
X455490D02*
X452814D01*
X450230Y37154D01*
X447914Y35816D01*
X446022Y33924D01*
X444684Y31608D01*
X443992Y29024D01*
Y26348D01*
X444684Y23764D01*
X446022Y21448D01*
X447914Y19556D01*
X450230Y18218D01*
X452814Y17526D01*
X455490D01*
X458074Y18218D01*
X460390Y19556D01*
X462282Y21448D01*
X463620Y23764D01*
X464312Y26348D01*
Y29024D01*
X463620Y31608D01*
X462282Y33924D01*
X460390Y35816D01*
X458074Y37154D01*
X455490Y37846D01*
D02*
G37*
G36*
X430090D02*
X427414D01*
X424830Y37154D01*
X422514Y35816D01*
X420622Y33924D01*
X419284Y31608D01*
X418592Y29024D01*
Y26348D01*
X419284Y23764D01*
X420622Y21448D01*
X422514Y19556D01*
X424830Y18218D01*
X427414Y17526D01*
X430090D01*
X432674Y18218D01*
X434990Y19556D01*
X436882Y21448D01*
X438220Y23764D01*
X438912Y26348D01*
Y29024D01*
X438220Y31608D01*
X436882Y33924D01*
X434990Y35816D01*
X432674Y37154D01*
X430090Y37846D01*
D02*
G37*
G36*
X404690D02*
X402014D01*
X399430Y37154D01*
X397114Y35816D01*
X395222Y33924D01*
X393884Y31608D01*
X393192Y29024D01*
Y26348D01*
X393884Y23764D01*
X395222Y21448D01*
X397114Y19556D01*
X399430Y18218D01*
X402014Y17526D01*
X404690D01*
X407274Y18218D01*
X409590Y19556D01*
X411482Y21448D01*
X412820Y23764D01*
X413512Y26348D01*
Y29024D01*
X412820Y31608D01*
X411482Y33924D01*
X409590Y35816D01*
X407274Y37154D01*
X404690Y37846D01*
D02*
G37*
G36*
X379290D02*
X376614D01*
X374030Y37154D01*
X371714Y35816D01*
X369822Y33924D01*
X368484Y31608D01*
X367792Y29024D01*
Y26348D01*
X368484Y23764D01*
X369822Y21448D01*
X371714Y19556D01*
X374030Y18218D01*
X376614Y17526D01*
X379290D01*
X381874Y18218D01*
X384190Y19556D01*
X386082Y21448D01*
X387420Y23764D01*
X388112Y26348D01*
Y29024D01*
X387420Y31608D01*
X386082Y33924D01*
X384190Y35816D01*
X381874Y37154D01*
X379290Y37846D01*
D02*
G37*
G36*
X362712D02*
X342392D01*
Y17526D01*
X362712D01*
Y37846D01*
D02*
G37*
G36*
X303090D02*
X300414D01*
X297830Y37154D01*
X295514Y35816D01*
X293622Y33924D01*
X292284Y31608D01*
X291592Y29024D01*
Y26348D01*
X292284Y23764D01*
X293622Y21448D01*
X295514Y19556D01*
X297830Y18218D01*
X300414Y17526D01*
X303090D01*
X305674Y18218D01*
X307990Y19556D01*
X309882Y21448D01*
X311220Y23764D01*
X311912Y26348D01*
Y29024D01*
X311220Y31608D01*
X309882Y33924D01*
X307990Y35816D01*
X305674Y37154D01*
X303090Y37846D01*
D02*
G37*
G36*
X226889D02*
X224214D01*
X221630Y37154D01*
X219314Y35816D01*
X217422Y33924D01*
X216084Y31608D01*
X215392Y29024D01*
Y26348D01*
X216084Y23764D01*
X217422Y21448D01*
X219314Y19556D01*
X221630Y18218D01*
X224214Y17526D01*
X226889D01*
X229473Y18218D01*
X231790Y19556D01*
X233682Y21448D01*
X235019Y23764D01*
X235712Y26348D01*
Y29024D01*
X235019Y31608D01*
X233682Y33924D01*
X231790Y35816D01*
X229473Y37154D01*
X226889Y37846D01*
D02*
G37*
G36*
X201490D02*
X198814D01*
X196230Y37154D01*
X193913Y35816D01*
X192022Y33924D01*
X190684Y31608D01*
X189992Y29024D01*
Y26348D01*
X190684Y23764D01*
X192022Y21448D01*
X193913Y19556D01*
X196230Y18218D01*
X198814Y17526D01*
X201490D01*
X204074Y18218D01*
X206390Y19556D01*
X208282Y21448D01*
X209620Y23764D01*
X210312Y26348D01*
Y29024D01*
X209620Y31608D01*
X208282Y33924D01*
X206390Y35816D01*
X204074Y37154D01*
X201490Y37846D01*
D02*
G37*
G36*
X176089D02*
X173414D01*
X170830Y37154D01*
X168514Y35816D01*
X166622Y33924D01*
X165284Y31608D01*
X164592Y29024D01*
Y26348D01*
X165284Y23764D01*
X166622Y21448D01*
X168514Y19556D01*
X170830Y18218D01*
X173414Y17526D01*
X176089D01*
X178673Y18218D01*
X180990Y19556D01*
X182882Y21448D01*
X184219Y23764D01*
X184912Y26348D01*
Y29024D01*
X184219Y31608D01*
X182882Y33924D01*
X180990Y35816D01*
X178673Y37154D01*
X176089Y37846D01*
D02*
G37*
G36*
X150689D02*
X148014D01*
X145430Y37154D01*
X143113Y35816D01*
X141222Y33924D01*
X139884Y31608D01*
X139192Y29024D01*
Y26348D01*
X139884Y23764D01*
X141222Y21448D01*
X143113Y19556D01*
X145430Y18218D01*
X148014Y17526D01*
X150689D01*
X153273Y18218D01*
X155590Y19556D01*
X157482Y21448D01*
X158820Y23764D01*
X159512Y26348D01*
Y29024D01*
X158820Y31608D01*
X157482Y33924D01*
X155590Y35816D01*
X153273Y37154D01*
X150689Y37846D01*
D02*
G37*
G36*
X134112D02*
X113792D01*
Y17526D01*
X134112D01*
Y37846D01*
D02*
G37*
%LPD*%
D12*
X387643Y243089D02*
G03*
X360934Y216380I0J-26709D01*
G01*
Y197866D02*
G03*
X386334Y172466I25400J0D01*
G01*
X429006Y147066D02*
G03*
X403606Y172466I-25400J0D01*
G01*
X497078Y394970D02*
G03*
X471678Y420370I-25400J0D01*
G01*
X261620Y436880D02*
G03*
X278130Y420370I16510J0D01*
G01*
X261366Y437134D02*
G03*
X261620Y436880I254J0D01*
G01*
X483424Y243089D02*
X487962Y247627D01*
X387643Y243089D02*
X483424D01*
X360934Y197866D02*
Y216380D01*
X386334Y172466D02*
X403606D01*
X429006Y66913D02*
Y147066D01*
X497078Y316738D02*
Y394970D01*
X278130Y420370D02*
X471678D01*
X261366Y437134D02*
Y473964D01*
D17*
X629428Y307162D02*
D03*
Y253162D02*
D03*
D31*
X487962Y247627D02*
D03*
X409956Y209296D02*
D03*
X425196Y194056D02*
D03*
X440436Y209296D02*
D03*
Y194056D02*
D03*
X425196Y209296D02*
D03*
X409956Y194056D02*
D03*
X497078Y316738D02*
D03*
X45212Y196846D02*
D03*
Y185166D02*
D03*
X390144Y150622D02*
D03*
X322580Y200152D02*
D03*
X309626D02*
D03*
X93218Y339090D02*
D03*
Y326136D02*
D03*
X296672Y200152D02*
D03*
X283718D02*
D03*
X270764D02*
D03*
X390144Y98806D02*
D03*
Y111760D02*
D03*
Y124714D02*
D03*
Y137668D02*
D03*
X30226Y246634D02*
D03*
Y259588D02*
D03*
Y272542D02*
D03*
Y285496D02*
D03*
Y298450D02*
D03*
X93218Y352044D02*
D03*
Y364998D02*
D03*
Y377952D02*
D03*
X523240Y461464D02*
D03*
Y474418D02*
D03*
Y487372D02*
D03*
Y500326D02*
D03*
Y513280D02*
D03*
X624078Y387604D02*
D03*
Y400558D02*
D03*
Y413512D02*
D03*
Y426466D02*
D03*
Y439420D02*
D03*
X624332Y139700D02*
D03*
Y152654D02*
D03*
Y165608D02*
D03*
Y178562D02*
D03*
Y191516D02*
D03*
X516890Y23876D02*
D03*
Y36830D02*
D03*
Y49784D02*
D03*
Y62738D02*
D03*
Y75692D02*
D03*
X64262Y10668D02*
D03*
X51308D02*
D03*
X38354D02*
D03*
X25400D02*
D03*
X12446D02*
D03*
X20454Y196846D02*
D03*
X20155Y185418D02*
D03*
X20828Y133604D02*
D03*
Y122174D02*
D03*
X208788Y341818D02*
D03*
Y201818D02*
D03*
X402336Y221742D02*
D03*
X602234Y300348D02*
D03*
Y312406D02*
D03*
Y248158D02*
D03*
Y260216D02*
D03*
X640588Y237744D02*
D03*
X629428D02*
D03*
X618268D02*
D03*
X607108D02*
D03*
Y322580D02*
D03*
X618268D02*
D03*
X629428D02*
D03*
X640588D02*
D03*
X559562Y271526D02*
D03*
X552450Y285242D02*
D03*
X549910Y263652D02*
D03*
X539750Y275082D02*
D03*
X538988Y252476D02*
D03*
X528828Y263906D02*
D03*
X528066Y241300D02*
D03*
X517906Y252730D02*
D03*
X506984Y241554D02*
D03*
X517144Y230124D02*
D03*
X496062Y230378D02*
D03*
X507238Y220218D02*
D03*
X497840Y209550D02*
D03*
X487172Y198882D02*
D03*
X485394Y219710D02*
D03*
X470916Y209296D02*
D03*
X571754Y287902D02*
D03*
Y272662D02*
D03*
X586994Y287902D02*
D03*
Y272662D02*
D03*
X602234D02*
D03*
Y287902D02*
D03*
X470916Y194056D02*
D03*
X455676D02*
D03*
Y209296D02*
D03*
D33*
X100584Y159054D02*
G03*
X114350Y145288I13766J0D01*
G01*
X100584Y169418D02*
G03*
X84836Y185166I-15748J0D01*
G01*
X347980Y281178D02*
G03*
X337058Y270256I0J-10922D01*
G01*
X311658Y145288D02*
G03*
X337058Y170688I0J25400D01*
G01*
X100584Y159054D02*
Y169418D01*
X114350Y145288D02*
X311658D01*
X45212Y185166D02*
X84836D01*
X347980Y281178D02*
X437642D01*
X337058Y170688D02*
Y270256D01*
D44*
X437642Y357378D02*
D03*
D45*
Y331978D02*
D03*
Y306578D02*
D03*
Y281178D02*
D03*
Y255778D02*
D03*
Y230378D02*
D03*
X378206Y66913D02*
D03*
X403606D02*
D03*
X454406D02*
D03*
X429006D02*
D03*
X32766Y473964D02*
D03*
X352806Y66913D02*
D03*
X63500Y92202D02*
D03*
Y66802D02*
D03*
D46*
X179832Y356870D02*
D03*
D47*
Y331470D02*
D03*
Y306070D02*
D03*
Y280670D02*
D03*
Y255270D02*
D03*
Y229870D02*
D03*
Y204470D02*
D03*
Y179070D02*
D03*
X302006Y473964D02*
D03*
X124206Y66548D02*
D03*
X454406Y473964D02*
D03*
X429006D02*
D03*
X403606D02*
D03*
X378206D02*
D03*
X352806D02*
D03*
X327406D02*
D03*
X235966D02*
D03*
X210566D02*
D03*
X185166D02*
D03*
X159766D02*
D03*
X134366D02*
D03*
X108966D02*
D03*
X83566D02*
D03*
X175006Y66548D02*
D03*
X225806D02*
D03*
X149606D02*
D03*
X276606D02*
D03*
X251206D02*
D03*
X200406D02*
D03*
D48*
X123952Y27686D02*
D03*
X261112Y510286D02*
D03*
X479552D02*
D03*
X352552Y27686D02*
D03*
D49*
X149352D02*
D03*
X32512Y510286D02*
D03*
X57912D02*
D03*
X301752Y27686D02*
D03*
X174752D02*
D03*
X108712Y510286D02*
D03*
X276352Y27686D02*
D03*
X250952D02*
D03*
X134112Y510286D02*
D03*
X159512D02*
D03*
X184912D02*
D03*
X210312D02*
D03*
X235712D02*
D03*
X301752D02*
D03*
X327152D02*
D03*
X352552D02*
D03*
X377952D02*
D03*
X403352D02*
D03*
X428752D02*
D03*
X454152D02*
D03*
X83312D02*
D03*
X479552Y27686D02*
D03*
X454152D02*
D03*
X428752D02*
D03*
X403352D02*
D03*
X377952D02*
D03*
X225552D02*
D03*
X200152D02*
D03*
D50*
X479806Y473964D02*
D03*
X261366D02*
D03*
X302006Y66548D02*
D03*
D51*
X479806Y66913D02*
D03*
X58166Y473964D02*
D03*
X38100Y92202D02*
D03*
Y66802D02*
D03*
M02*
