G04*
G04 #@! TF.GenerationSoftware,Altium Limited,Altium Designer,25.6.2 (33)*
G04*
G04 Layer_Physical_Order=1*
G04 Layer_Color=255*
%FSLAX44Y44*%
%MOMM*%
G71*
G04*
G04 #@! TF.SameCoordinates,9B6F8C68-430D-48FD-858A-4A9C4FCAB163*
G04*
G04*
G04 #@! TF.FilePolarity,Positive*
G04*
G01*
G75*
%ADD12C,0.2540*%
%ADD15R,0.8890X0.7620*%
%ADD16R,0.4572X0.6350*%
%ADD17R,3.7000X1.5000*%
%ADD18R,2.0000X0.8000*%
%ADD31C,0.6000*%
%ADD32C,0.5080*%
%ADD33C,0.3810*%
%ADD34R,0.8890X1.8426*%
%ADD35R,0.8892X2.6162*%
%ADD36R,1.6764X5.5228*%
%ADD37R,1.6764X5.4720*%
%ADD38R,3.7000X2.2918*%
%ADD39R,1.3208X1.7780*%
%ADD40R,0.4572X1.7780*%
%ADD41R,0.4572X3.2131*%
%ADD42R,0.4572X3.3651*%
%ADD43R,4.0400X1.5000*%
%ADD44R,1.5000X1.5000*%
%ADD45C,1.5000*%
%ADD46R,1.8000X1.8000*%
%ADD47C,1.8000*%
%ADD48R,1.6764X1.6764*%
%ADD49C,1.6764*%
%ADD50R,1.8000X1.8000*%
%ADD51R,1.5000X1.5000*%
G36*
X519938Y530860D02*
X524958Y530860D01*
X534967Y530072D01*
X544883Y528502D01*
X554645Y526158D01*
X564193Y523056D01*
X573468Y519214D01*
X582414Y514656D01*
X590974Y509410D01*
X599096Y503509D01*
X606730Y496989D01*
X613829Y489890D01*
X620349Y482256D01*
X626250Y474133D01*
X631496Y465573D01*
X636054Y456628D01*
X639896Y447352D01*
X642998Y437804D01*
X645342Y428042D01*
X646912Y418126D01*
X647700Y408117D01*
X647700Y403098D01*
X647700Y403098D01*
X647700Y403098D01*
X647700Y325170D01*
X610928D01*
X609937Y324973D01*
X609097Y324411D01*
X608535Y323571D01*
X608338Y322580D01*
Y299662D01*
X608535Y298671D01*
X609097Y297831D01*
X609937Y297269D01*
X610928Y297072D01*
X647700D01*
Y290202D01*
X608388D01*
Y284047D01*
X564776D01*
Y284087D01*
X560119Y283628D01*
X555641Y282270D01*
X551514Y280064D01*
X547897Y277095D01*
X547925Y277067D01*
X482825Y211966D01*
X482727Y211819D01*
X479593Y209248D01*
X475864Y207255D01*
X471818Y206028D01*
X467784Y205630D01*
X467611Y205665D01*
X399102D01*
Y208320D01*
X374022D01*
Y195240D01*
X399102D01*
Y197895D01*
X467611D01*
Y197880D01*
X472195Y198240D01*
X476665Y199314D01*
X480913Y201073D01*
X484833Y203475D01*
X488329Y206462D01*
X488318Y206473D01*
X553419Y271573D01*
X553467Y271645D01*
X555839Y273591D01*
X558620Y275078D01*
X561638Y275993D01*
X564691Y276294D01*
X564776Y276277D01*
X608388D01*
Y270122D01*
X647700D01*
Y263252D01*
X610928D01*
X609937Y263055D01*
X609097Y262493D01*
X608535Y261653D01*
X608338Y260662D01*
Y237744D01*
X608535Y236753D01*
X609097Y235913D01*
X609937Y235351D01*
X610928Y235154D01*
X647700D01*
X647700Y128524D01*
X647700Y123574D01*
X646923Y113705D01*
X645375Y103927D01*
X643064Y94300D01*
X640004Y84885D01*
X636216Y75739D01*
X631721Y66918D01*
X626549Y58477D01*
X620730Y50468D01*
X614300Y42940D01*
X607300Y35940D01*
X599772Y29510D01*
X591763Y23691D01*
X583322Y18519D01*
X574501Y14024D01*
X565355Y10236D01*
X555939Y7176D01*
X546313Y4865D01*
X536535Y3317D01*
X526666Y2540D01*
X521716Y2540D01*
X2540D01*
Y530860D01*
X519938Y530860D01*
D02*
G37*
%LPC*%
G36*
X488188Y522274D02*
X471424D01*
X470433Y522077D01*
X469593Y521515D01*
X469031Y520675D01*
X468834Y519684D01*
Y464964D01*
X469028Y463990D01*
Y463186D01*
X469557D01*
X469593Y463133D01*
X470433Y462571D01*
X471424Y462374D01*
X488188D01*
X489179Y462571D01*
X490019Y463133D01*
X490055Y463186D01*
X490584D01*
Y463990D01*
X490778Y464964D01*
Y519684D01*
X490581Y520675D01*
X490019Y521515D01*
X489179Y522077D01*
X488188Y522274D01*
D02*
G37*
G36*
X462788D02*
X446024D01*
X445033Y522077D01*
X444193Y521515D01*
X443631Y520675D01*
X443434Y519684D01*
Y464964D01*
X443631Y463973D01*
X444193Y463133D01*
X445033Y462571D01*
X446024Y462374D01*
X462788D01*
X463779Y462571D01*
X464619Y463133D01*
X465181Y463973D01*
X465378Y464964D01*
Y519684D01*
X465181Y520675D01*
X464619Y521515D01*
X463779Y522077D01*
X462788Y522274D01*
D02*
G37*
G36*
X335788D02*
X319024D01*
X318033Y522077D01*
X317193Y521515D01*
X316631Y520675D01*
X316434Y519684D01*
Y464964D01*
X316631Y463973D01*
X317193Y463133D01*
X318033Y462571D01*
X319024Y462374D01*
X335788D01*
X336779Y462571D01*
X337619Y463133D01*
X338181Y463973D01*
X338378Y464964D01*
Y519684D01*
X338181Y520675D01*
X337619Y521515D01*
X336779Y522077D01*
X335788Y522274D01*
D02*
G37*
G36*
X310388D02*
X293624D01*
X292633Y522077D01*
X291793Y521515D01*
X291231Y520675D01*
X291034Y519684D01*
Y464964D01*
X291231Y463973D01*
X291793Y463133D01*
X292633Y462571D01*
X293624Y462374D01*
X310388D01*
X311379Y462571D01*
X312219Y463133D01*
X312781Y463973D01*
X312978Y464964D01*
Y519684D01*
X312781Y520675D01*
X312219Y521515D01*
X311379Y522077D01*
X310388Y522274D01*
D02*
G37*
G36*
X269748D02*
X252984D01*
X251993Y522077D01*
X251153Y521515D01*
X250591Y520675D01*
X250394Y519684D01*
Y464964D01*
X250588Y463989D01*
Y463186D01*
X251117D01*
X251153Y463133D01*
X251993Y462571D01*
X252984Y462374D01*
X269748D01*
X270739Y462571D01*
X271579Y463133D01*
X271615Y463186D01*
X272144D01*
Y463990D01*
X272338Y464964D01*
Y519684D01*
X272141Y520675D01*
X271579Y521515D01*
X270739Y522077D01*
X269748Y522274D01*
D02*
G37*
G36*
X117348D02*
X100584D01*
X99593Y522077D01*
X98753Y521515D01*
X98191Y520675D01*
X97994Y519684D01*
Y464964D01*
X98191Y463973D01*
X98753Y463133D01*
X99593Y462571D01*
X100584Y462374D01*
X117348D01*
X118339Y462571D01*
X119179Y463133D01*
X119740Y463973D01*
X119938Y464964D01*
Y519684D01*
X119740Y520675D01*
X119179Y521515D01*
X118339Y522077D01*
X117348Y522274D01*
D02*
G37*
G36*
X91948D02*
X75184D01*
X74193Y522077D01*
X73353Y521515D01*
X72791Y520675D01*
X72594Y519684D01*
Y464964D01*
X72791Y463973D01*
X73353Y463133D01*
X74193Y462571D01*
X75184Y462374D01*
X91948D01*
X92939Y462571D01*
X93779Y463133D01*
X94341Y463973D01*
X94538Y464964D01*
Y519684D01*
X94341Y520675D01*
X93779Y521515D01*
X92939Y522077D01*
X91948Y522274D01*
D02*
G37*
G36*
X66548D02*
X49784D01*
X48793Y522077D01*
X47953Y521515D01*
X47391Y520675D01*
X47194Y519684D01*
Y464964D01*
X47391Y463973D01*
X47953Y463133D01*
X48793Y462571D01*
X49784Y462374D01*
X66548D01*
X67539Y462571D01*
X68379Y463133D01*
X68941Y463973D01*
X69138Y464964D01*
Y519684D01*
X68941Y520675D01*
X68379Y521515D01*
X67539Y522077D01*
X66548Y522274D01*
D02*
G37*
G36*
X41148D02*
X24384D01*
X23393Y522077D01*
X22553Y521515D01*
X21991Y520675D01*
X21794Y519684D01*
Y464964D01*
X21991Y463973D01*
X22553Y463133D01*
X23393Y462571D01*
X24384Y462374D01*
X41148D01*
X42139Y462571D01*
X42979Y463133D01*
X43541Y463973D01*
X43738Y464964D01*
Y519684D01*
X43541Y520675D01*
X42979Y521515D01*
X42139Y522077D01*
X41148Y522274D01*
D02*
G37*
G36*
X386588D02*
X369824D01*
X368833Y522077D01*
X367993Y521515D01*
X367431Y520675D01*
X367234Y519684D01*
Y464964D01*
X367431Y463973D01*
X367993Y463133D01*
X368833Y462571D01*
X369824Y462374D01*
X374321D01*
Y398272D01*
X374335Y398205D01*
X374605Y396150D01*
X375424Y394173D01*
X376727Y392475D01*
X378425Y391172D01*
X380402Y390353D01*
X382457Y390083D01*
X382524Y390069D01*
Y390025D01*
X382601Y389993D01*
X382633Y389916D01*
X382677D01*
Y348320D01*
X374022D01*
Y335240D01*
X399102D01*
Y337895D01*
X402994D01*
X404481Y338191D01*
X405741Y339033D01*
X419693Y352985D01*
X428364D01*
Y348100D01*
X446920D01*
Y366656D01*
X428364D01*
Y360755D01*
X418084D01*
X416597Y360459D01*
X415337Y359617D01*
X401385Y345665D01*
X399102D01*
Y348320D01*
X390447D01*
Y389916D01*
X390426Y390019D01*
X390170Y391965D01*
X389379Y393874D01*
X388121Y395513D01*
X386482Y396771D01*
X384573Y397562D01*
X382627Y397818D01*
X382524Y397839D01*
Y397860D01*
X382232Y397980D01*
X382112Y398272D01*
X382091D01*
Y462374D01*
X386588D01*
X387579Y462571D01*
X388419Y463133D01*
X388981Y463973D01*
X389178Y464964D01*
Y519684D01*
X388981Y520675D01*
X388419Y521515D01*
X387579Y522077D01*
X386588Y522274D01*
D02*
G37*
G36*
X224562Y345665D02*
X208788D01*
X207301Y345369D01*
X206041Y344527D01*
X205199Y343267D01*
X204903Y341780D01*
X205199Y340293D01*
X206041Y339033D01*
X207301Y338191D01*
X208788Y337895D01*
X224562D01*
X226049Y338191D01*
X227309Y339033D01*
X228151Y340293D01*
X228447Y341780D01*
X228151Y343267D01*
X227309Y344527D01*
X226049Y345369D01*
X224562Y345665D01*
D02*
G37*
G36*
X411988Y522274D02*
X395224D01*
X394233Y522077D01*
X393393Y521515D01*
X392831Y520675D01*
X392634Y519684D01*
Y464964D01*
X392831Y463973D01*
X393393Y463133D01*
X394233Y462571D01*
X395224Y462374D01*
X399721D01*
Y434594D01*
X399675D01*
X400156Y430947D01*
X401563Y427549D01*
X403802Y424631D01*
X406721Y422391D01*
X410119Y420984D01*
X413766Y420504D01*
Y420549D01*
X452374D01*
X452524Y420579D01*
X455457Y420193D01*
X458330Y419003D01*
X460798Y417110D01*
X462691Y414642D01*
X463881Y411769D01*
X464267Y408836D01*
X464237Y408686D01*
Y347472D01*
X464266Y347329D01*
X463887Y344455D01*
X462723Y341644D01*
X460871Y339229D01*
X458456Y337377D01*
X455645Y336213D01*
X452771Y335834D01*
X452628Y335863D01*
X446113D01*
X445066Y337675D01*
X443339Y339402D01*
X441223Y340624D01*
X438863Y341256D01*
X436421D01*
X434061Y340624D01*
X431945Y339402D01*
X430218Y337675D01*
X428996Y335559D01*
X428941Y335355D01*
X418084D01*
X416597Y335059D01*
X415337Y334217D01*
X406785Y325665D01*
X399102D01*
Y328320D01*
X374022D01*
Y315240D01*
X399102D01*
Y317895D01*
X408394D01*
X409881Y318191D01*
X411141Y319033D01*
X419693Y327585D01*
X429465D01*
X430218Y326281D01*
X431945Y324554D01*
X434061Y323332D01*
X436421Y322700D01*
X438863D01*
X441223Y323332D01*
X443339Y324554D01*
X445066Y326281D01*
X446113Y328093D01*
X452628D01*
Y328075D01*
X456412Y328447D01*
X460051Y329551D01*
X463405Y331344D01*
X466344Y333756D01*
X468756Y336695D01*
X470549Y340049D01*
X471653Y343688D01*
X472025Y347472D01*
X472007D01*
Y408686D01*
X472027D01*
X471649Y412520D01*
X470531Y416207D01*
X468715Y419604D01*
X466270Y422583D01*
X463292Y425027D01*
X459895Y426843D01*
X456208Y427961D01*
X452374Y428339D01*
Y428319D01*
X413766D01*
X413591Y428284D01*
X411338Y428732D01*
X409280Y430107D01*
X407904Y432166D01*
X407456Y434419D01*
X407491Y434594D01*
Y462374D01*
X411988D01*
X412979Y462571D01*
X413819Y463133D01*
X414381Y463973D01*
X414578Y464964D01*
Y519684D01*
X414381Y520675D01*
X413819Y521515D01*
X412979Y522077D01*
X411988Y522274D01*
D02*
G37*
G36*
X168148D02*
X151384D01*
X150393Y522077D01*
X149553Y521515D01*
X148991Y520675D01*
X148794Y519684D01*
Y464964D01*
X148991Y463973D01*
X149553Y463133D01*
X150393Y462571D01*
X151384Y462374D01*
X155881D01*
Y338836D01*
X155860D01*
X156244Y335919D01*
X157370Y333200D01*
X159161Y330865D01*
X161496Y329074D01*
X164214Y327948D01*
X167132Y327564D01*
Y327585D01*
X169715D01*
X169788Y327310D01*
X171208Y324852D01*
X173214Y322845D01*
X175672Y321427D01*
X178413Y320692D01*
X181251D01*
X183992Y321427D01*
X186450Y322845D01*
X188456Y324852D01*
X189876Y327310D01*
X189949Y327585D01*
X194123D01*
X202675Y319033D01*
X203935Y318191D01*
X205422Y317895D01*
X212022D01*
Y315240D01*
X237102D01*
Y328320D01*
X212022D01*
Y325665D01*
X207031D01*
X198479Y334217D01*
X197219Y335059D01*
X195732Y335355D01*
X189949D01*
X189876Y335630D01*
X188456Y338088D01*
X186450Y340094D01*
X183992Y341513D01*
X181251Y342248D01*
X178413D01*
X175672Y341513D01*
X173214Y340094D01*
X171208Y338088D01*
X169788Y335630D01*
X169715Y335355D01*
X167132D01*
X167095Y335347D01*
X165794Y335606D01*
X164660Y336364D01*
X163902Y337498D01*
X163643Y338799D01*
X163651Y338836D01*
Y462374D01*
X168148D01*
X169139Y462571D01*
X169979Y463133D01*
X170541Y463973D01*
X170738Y464964D01*
Y519684D01*
X170541Y520675D01*
X169979Y521515D01*
X169139Y522077D01*
X168148Y522274D01*
D02*
G37*
G36*
X437388D02*
X420624D01*
X419633Y522077D01*
X418793Y521515D01*
X418231Y520675D01*
X418034Y519684D01*
Y464964D01*
X418231Y463973D01*
X418793Y463133D01*
X419633Y462571D01*
X420624Y462374D01*
X425121D01*
Y447294D01*
X425075D01*
X425556Y443647D01*
X426963Y440249D01*
X429202Y437331D01*
X432121Y435091D01*
X435519Y433684D01*
X439166Y433204D01*
Y433249D01*
X457962D01*
X458135Y433284D01*
X462169Y432887D01*
X466215Y431659D01*
X469944Y429666D01*
X473212Y426984D01*
X475894Y423716D01*
X477887Y419987D01*
X479114Y415942D01*
X479512Y411907D01*
X479477Y411734D01*
Y328676D01*
X479501Y328557D01*
X479162Y325116D01*
X478124Y321692D01*
X476437Y318538D01*
X474168Y315772D01*
X471403Y313503D01*
X468248Y311816D01*
X464824Y310778D01*
X461384Y310439D01*
X461264Y310463D01*
X446113D01*
X445066Y312275D01*
X443339Y314002D01*
X441223Y315224D01*
X438863Y315856D01*
X436421D01*
X434061Y315224D01*
X431945Y314002D01*
X430218Y312275D01*
X429171Y310463D01*
X420370D01*
X418883Y310167D01*
X417623Y309325D01*
X413963Y305665D01*
X399102D01*
Y308320D01*
X374022D01*
Y295240D01*
X399102D01*
Y297895D01*
X415572D01*
X417059Y298191D01*
X418319Y299033D01*
X421979Y302693D01*
X429171D01*
X430218Y300881D01*
X431945Y299154D01*
X434061Y297932D01*
X436421Y297300D01*
X438863D01*
X441223Y297932D01*
X443339Y299154D01*
X445066Y300881D01*
X446113Y302693D01*
X461264D01*
Y302643D01*
X466343Y303143D01*
X471227Y304624D01*
X475727Y307030D01*
X479672Y310268D01*
X482910Y314213D01*
X485316Y318713D01*
X486797Y323597D01*
X487297Y328676D01*
X487247D01*
Y411734D01*
X487262D01*
X486902Y416318D01*
X485828Y420788D01*
X484069Y425036D01*
X481666Y428956D01*
X478680Y432452D01*
X475184Y435438D01*
X471264Y437841D01*
X467016Y439600D01*
X462546Y440674D01*
X457962Y441034D01*
Y441019D01*
X439166D01*
X438991Y440984D01*
X436738Y441432D01*
X434679Y442808D01*
X433304Y444866D01*
X432856Y447119D01*
X432891Y447294D01*
Y462374D01*
X437388D01*
X438379Y462571D01*
X439219Y463133D01*
X439781Y463973D01*
X439978Y464964D01*
Y519684D01*
X439781Y520675D01*
X439219Y521515D01*
X438379Y522077D01*
X437388Y522274D01*
D02*
G37*
G36*
X193548D02*
X176784D01*
X175793Y522077D01*
X174953Y521515D01*
X174391Y520675D01*
X174194Y519684D01*
Y464964D01*
X174391Y463973D01*
X174953Y463133D01*
X175793Y462571D01*
X176784Y462374D01*
X181281D01*
Y415544D01*
X181241D01*
X181702Y410863D01*
X183067Y406363D01*
X185284Y402215D01*
X188267Y398579D01*
X191903Y395596D01*
X196051Y393379D01*
X200551Y392014D01*
X205232Y391553D01*
Y391593D01*
X236728D01*
X236858Y391619D01*
X239612Y391257D01*
X242300Y390143D01*
X244608Y388372D01*
X246379Y386064D01*
X247493Y383376D01*
X247855Y380622D01*
X247829Y380492D01*
Y310416D01*
X247849Y310316D01*
X247504Y308582D01*
X246466Y307028D01*
X244911Y305990D01*
X243178Y305645D01*
X243078Y305665D01*
X237102D01*
Y308320D01*
X212022D01*
Y305665D01*
X205035D01*
X201883Y308817D01*
X200623Y309659D01*
X199136Y309955D01*
X189949D01*
X189876Y310230D01*
X188456Y312688D01*
X186450Y314694D01*
X183992Y316113D01*
X181251Y316848D01*
X178413D01*
X175672Y316113D01*
X173214Y314694D01*
X171208Y312688D01*
X169788Y310230D01*
X169054Y307489D01*
Y304651D01*
X169788Y301910D01*
X171208Y299452D01*
X173214Y297446D01*
X175672Y296026D01*
X178413Y295292D01*
X181251D01*
X183992Y296026D01*
X186450Y297446D01*
X188456Y299452D01*
X189876Y301910D01*
X189949Y302185D01*
X197527D01*
X200679Y299033D01*
X201939Y298191D01*
X203426Y297895D01*
X212022D01*
Y295240D01*
X237102D01*
Y297895D01*
X243078D01*
Y297863D01*
X246327Y298290D01*
X249355Y299544D01*
X251955Y301539D01*
X253950Y304139D01*
X255204Y307167D01*
X255631Y310416D01*
X255599D01*
Y380492D01*
X255615D01*
X255252Y384177D01*
X254177Y387720D01*
X252432Y390985D01*
X250083Y393847D01*
X247221Y396196D01*
X243956Y397941D01*
X240413Y399016D01*
X236728Y399379D01*
Y399363D01*
X205232D01*
X205146Y399346D01*
X202070Y399648D01*
X199030Y400571D01*
X196228Y402068D01*
X193772Y404084D01*
X191756Y406540D01*
X190259Y409342D01*
X189336Y412382D01*
X189034Y415458D01*
X189051Y415544D01*
Y462374D01*
X193548D01*
X194539Y462571D01*
X195379Y463133D01*
X195940Y463973D01*
X196138Y464964D01*
Y519684D01*
X195940Y520675D01*
X195379Y521515D01*
X194539Y522077D01*
X193548Y522274D01*
D02*
G37*
G36*
X501523Y322513D02*
X492633D01*
X491642Y322316D01*
X490802Y321755D01*
X490240Y320914D01*
X490043Y319923D01*
Y301498D01*
X490093Y301248D01*
Y298958D01*
X492383D01*
X492633Y298908D01*
X501523D01*
X501773Y298958D01*
X504063D01*
Y301248D01*
X504113Y301498D01*
Y319923D01*
X503916Y320914D01*
X503354Y321755D01*
X502514Y322316D01*
X501523Y322513D01*
D02*
G37*
G36*
X501525Y296468D02*
X492633D01*
X492383Y296418D01*
X490093D01*
Y294128D01*
X490043Y293878D01*
Y293445D01*
X487426D01*
Y293488D01*
X483845Y293017D01*
X480509Y291635D01*
X477644Y289436D01*
X475445Y286571D01*
X474063Y283235D01*
X473592Y279654D01*
X473635D01*
Y264088D01*
X473611Y263906D01*
X473611D01*
X473428Y262712D01*
X473340Y262271D01*
X472414Y260884D01*
X471027Y259958D01*
X469467Y259648D01*
X469392Y259663D01*
X446113D01*
X445066Y261475D01*
X443339Y263202D01*
X441223Y264424D01*
X438863Y265056D01*
X436421D01*
X434061Y264424D01*
X431945Y263202D01*
X430218Y261475D01*
X429171Y259663D01*
X421979D01*
X417115Y264527D01*
X415855Y265369D01*
X414368Y265665D01*
X399102D01*
Y268320D01*
X374022D01*
Y255240D01*
X399102D01*
Y257895D01*
X412759D01*
X417623Y253031D01*
X418883Y252189D01*
X420370Y251893D01*
X429171D01*
X430218Y250081D01*
X431945Y248354D01*
X434061Y247132D01*
X436421Y246500D01*
X438863D01*
X441223Y247132D01*
X443339Y248354D01*
X445066Y250081D01*
X446113Y251893D01*
X469392D01*
Y251865D01*
X472509Y252275D01*
X475412Y253478D01*
X477906Y255392D01*
X479820Y257885D01*
X481023Y260790D01*
X481433Y263906D01*
X481433D01*
X481622Y265098D01*
X481671Y265343D01*
X482485Y266561D01*
X483703Y267375D01*
X485090Y267651D01*
X485140Y267641D01*
X490058D01*
X490095Y267458D01*
Y265176D01*
X492383D01*
X492633Y265126D01*
X501525D01*
X501775Y265176D01*
X504065D01*
Y267466D01*
X504114Y267716D01*
Y293878D01*
X504063Y294136D01*
Y296418D01*
X501775D01*
X501525Y296468D01*
D02*
G37*
G36*
X438863Y290456D02*
X436421D01*
X434061Y289824D01*
X431945Y288602D01*
X430218Y286875D01*
X429893Y286312D01*
X399102D01*
Y288320D01*
X374022D01*
Y275240D01*
X399102D01*
Y277248D01*
X429198D01*
X430218Y275481D01*
X431945Y273754D01*
X434061Y272532D01*
X436421Y271900D01*
X438863D01*
X441223Y272532D01*
X443339Y273754D01*
X445066Y275481D01*
X446288Y277597D01*
X446920Y279956D01*
Y282400D01*
X446288Y284759D01*
X445066Y286875D01*
X443339Y288602D01*
X441223Y289824D01*
X438863Y290456D01*
D02*
G37*
G36*
X142748Y522274D02*
X125984D01*
X124993Y522077D01*
X124153Y521515D01*
X123591Y520675D01*
X123394Y519684D01*
Y464964D01*
X123591Y463973D01*
X124153Y463133D01*
X124993Y462571D01*
X125984Y462374D01*
X130481D01*
Y306070D01*
X130466D01*
X130826Y301486D01*
X131900Y297016D01*
X133659Y292768D01*
X136062Y288848D01*
X139048Y285352D01*
X142544Y282366D01*
X146464Y279963D01*
X150712Y278204D01*
X155182Y277130D01*
X159766Y276770D01*
Y276785D01*
X169715D01*
X169788Y276510D01*
X171208Y274052D01*
X173214Y272045D01*
X175672Y270627D01*
X178413Y269892D01*
X181251D01*
X183992Y270627D01*
X186450Y272045D01*
X188456Y274052D01*
X189876Y276510D01*
X189949Y276785D01*
X212022D01*
Y275240D01*
X237102D01*
Y288320D01*
X212022D01*
Y284555D01*
X189949D01*
X189876Y284830D01*
X188456Y287288D01*
X186450Y289294D01*
X183992Y290714D01*
X181251Y291448D01*
X178413D01*
X175672Y290714D01*
X173214Y289294D01*
X171208Y287288D01*
X169788Y284830D01*
X169715Y284555D01*
X159766D01*
X159593Y284520D01*
X155559Y284918D01*
X151513Y286145D01*
X147784Y288138D01*
X144516Y290820D01*
X141834Y294088D01*
X139841Y297817D01*
X138614Y301863D01*
X138216Y305897D01*
X138251Y306070D01*
Y462374D01*
X142748D01*
X143739Y462571D01*
X144579Y463133D01*
X145140Y463973D01*
X145338Y464964D01*
Y519684D01*
X145140Y520675D01*
X144579Y521515D01*
X143739Y522077D01*
X142748Y522274D01*
D02*
G37*
G36*
X218948D02*
X202184D01*
X201193Y522077D01*
X200353Y521515D01*
X199791Y520675D01*
X199594Y519684D01*
Y464964D01*
X199791Y463973D01*
X200353Y463133D01*
X201193Y462571D01*
X202184Y462374D01*
X206681D01*
Y438150D01*
X206666D01*
X207026Y433566D01*
X208100Y429096D01*
X209859Y424848D01*
X212262Y420928D01*
X215248Y417432D01*
X218744Y414446D01*
X222664Y412043D01*
X226912Y410284D01*
X231382Y409210D01*
X235966Y408850D01*
Y408865D01*
X262636D01*
X262832Y408904D01*
X266183Y408463D01*
X269489Y407094D01*
X272328Y404916D01*
X274506Y402077D01*
X275875Y398771D01*
X276316Y395420D01*
X276277Y395224D01*
Y279306D01*
X276316Y279110D01*
X275875Y275759D01*
X274506Y272453D01*
X272328Y269614D01*
X269489Y267436D01*
X266183Y266067D01*
X262832Y265626D01*
X262636Y265665D01*
X237102D01*
Y268320D01*
X212022D01*
Y265665D01*
X204376D01*
X202889Y265369D01*
X201629Y264527D01*
X196257Y259155D01*
X189949D01*
X189876Y259430D01*
X188456Y261888D01*
X186450Y263895D01*
X183992Y265313D01*
X181251Y266048D01*
X178413D01*
X175672Y265313D01*
X173214Y263895D01*
X171208Y261888D01*
X169788Y259430D01*
X169054Y256689D01*
Y253851D01*
X169788Y251110D01*
X171208Y248652D01*
X173214Y246646D01*
X175672Y245226D01*
X178413Y244492D01*
X181251D01*
X183992Y245226D01*
X186450Y246646D01*
X188456Y248652D01*
X189876Y251110D01*
X189949Y251385D01*
X197866D01*
X199353Y251681D01*
X200613Y252523D01*
X205985Y257895D01*
X212022D01*
Y255240D01*
X237102D01*
Y257895D01*
X262636D01*
Y257867D01*
X266819Y258279D01*
X270840Y259499D01*
X274547Y261480D01*
X277796Y264146D01*
X280462Y267395D01*
X282443Y271102D01*
X283663Y275123D01*
X284075Y279306D01*
X284047D01*
Y395224D01*
X284075D01*
X283663Y399407D01*
X282443Y403428D01*
X280462Y407135D01*
X277796Y410384D01*
X274547Y413050D01*
X270840Y415031D01*
X266819Y416251D01*
X262636Y416663D01*
Y416635D01*
X235966D01*
X235793Y416600D01*
X231758Y416997D01*
X227713Y418225D01*
X223984Y420218D01*
X220716Y422900D01*
X218034Y426168D01*
X216041Y429897D01*
X214813Y433942D01*
X214416Y437977D01*
X214451Y438150D01*
Y462374D01*
X218948D01*
X219939Y462571D01*
X220779Y463133D01*
X221341Y463973D01*
X221538Y464964D01*
Y519684D01*
X221341Y520675D01*
X220779Y521515D01*
X219939Y522077D01*
X218948Y522274D01*
D02*
G37*
G36*
X504065Y262636D02*
X490095D01*
Y255430D01*
X487832Y253167D01*
X486860D01*
X484824Y252324D01*
X483265Y250765D01*
X482422Y248729D01*
Y246525D01*
X483265Y244489D01*
X484824Y242931D01*
X486860Y242087D01*
X489064D01*
X491100Y242931D01*
X492659Y244489D01*
X493502Y246525D01*
Y247850D01*
X495588Y249936D01*
X504065D01*
Y262636D01*
D02*
G37*
G36*
X237102Y248320D02*
X212022D01*
Y245665D01*
X204428D01*
X202941Y245369D01*
X201681Y244527D01*
X191167Y234012D01*
X190521Y234021D01*
X189804Y234154D01*
X188456Y236488D01*
X186450Y238494D01*
X183992Y239914D01*
X181251Y240648D01*
X178413D01*
X175672Y239914D01*
X173214Y238494D01*
X171208Y236488D01*
X169788Y234030D01*
X169715Y233755D01*
X141732D01*
Y233794D01*
X138284Y233340D01*
X135071Y232009D01*
X132312Y229892D01*
X130195Y227133D01*
X128864Y223920D01*
X128410Y220472D01*
X128449D01*
Y134366D01*
X128445D01*
X128759Y131179D01*
X129689Y128115D01*
X131198Y125291D01*
X133230Y122816D01*
X135705Y120784D01*
X138529Y119275D01*
X141593Y118345D01*
X144780Y118031D01*
Y118035D01*
X341630D01*
X341654Y118040D01*
X343453Y117803D01*
X345153Y117099D01*
X346612Y115980D01*
X347731Y114521D01*
X348435Y112821D01*
X348543Y112005D01*
X348565Y110744D01*
X348859Y110036D01*
X348921Y109721D01*
Y78138D01*
X344424D01*
X343433Y77941D01*
X342593Y77379D01*
X342032Y76539D01*
X341834Y75548D01*
Y20320D01*
X342032Y19329D01*
X342392Y18789D01*
Y17526D01*
X362712D01*
Y18283D01*
X363019Y18489D01*
X363581Y19329D01*
X363778Y20320D01*
Y75548D01*
X363581Y76539D01*
X363019Y77379D01*
X362179Y77941D01*
X361188Y78138D01*
X356691D01*
Y110744D01*
X356696D01*
X356380Y112330D01*
X356289Y112467D01*
X356149Y113886D01*
X355307Y116663D01*
X353938Y119222D01*
X352098Y121466D01*
X349854Y123307D01*
X347295Y124675D01*
X344518Y125517D01*
X341664Y125798D01*
X341630Y125805D01*
X144780D01*
X144716Y125792D01*
X142559Y126076D01*
X140489Y126933D01*
X138711Y128297D01*
X137347Y130075D01*
X136490Y132145D01*
X136206Y134302D01*
X136219Y134366D01*
Y220472D01*
X136191Y220609D01*
X136588Y222603D01*
X137795Y224409D01*
X139601Y225616D01*
X141595Y226013D01*
X141732Y225985D01*
X169715D01*
X169788Y225710D01*
X171208Y223252D01*
X173214Y221245D01*
X175672Y219827D01*
X178413Y219092D01*
X181251D01*
X183992Y219827D01*
X186450Y221245D01*
X188456Y223252D01*
X189876Y225710D01*
X189949Y225985D01*
X192518D01*
X194005Y226281D01*
X195265Y227123D01*
X206037Y237895D01*
X212022D01*
Y235240D01*
X237102D01*
Y248320D01*
D02*
G37*
G36*
X244348Y522274D02*
X227584D01*
X226593Y522077D01*
X225753Y521515D01*
X225191Y520675D01*
X224994Y519684D01*
Y464964D01*
X225191Y463973D01*
X225753Y463133D01*
X226593Y462571D01*
X227584Y462374D01*
X232081D01*
Y448056D01*
X232072D01*
X232406Y444670D01*
X233393Y441414D01*
X234997Y438414D01*
X237156Y435784D01*
X239786Y433625D01*
X242786Y432021D01*
X246042Y431034D01*
X249428Y430700D01*
Y430709D01*
X285750D01*
X285940Y430747D01*
X289231Y430314D01*
X292475Y428970D01*
X295261Y426833D01*
X297398Y424047D01*
X298742Y420803D01*
X299175Y417512D01*
X299137Y417322D01*
Y240322D01*
X299182Y240099D01*
X298709Y236509D01*
X297237Y232957D01*
X294896Y229906D01*
X291845Y227565D01*
X288293Y226093D01*
X284703Y225620D01*
X284480Y225665D01*
X237102D01*
Y228320D01*
X212022D01*
Y225665D01*
X209392D01*
X207905Y225369D01*
X206645Y224527D01*
X191091Y208973D01*
X190920Y208925D01*
X189550Y209193D01*
X188456Y211088D01*
X186450Y213095D01*
X183992Y214513D01*
X181251Y215248D01*
X178413D01*
X175672Y214513D01*
X173214Y213095D01*
X171208Y211088D01*
X169788Y208630D01*
X169054Y205889D01*
Y203051D01*
X169788Y200310D01*
X171208Y197852D01*
X173214Y195846D01*
X175672Y194426D01*
X178413Y193692D01*
X181251D01*
X183992Y194426D01*
X186450Y195846D01*
X188456Y197852D01*
X189876Y200310D01*
X189949Y200585D01*
X192082D01*
X193569Y200881D01*
X194829Y201723D01*
X210752Y217646D01*
X212022Y217294D01*
Y215240D01*
X237102D01*
Y217895D01*
X284480D01*
Y217862D01*
X288862Y218293D01*
X293075Y219571D01*
X296958Y221647D01*
X300362Y224440D01*
X303155Y227844D01*
X305231Y231727D01*
X306509Y235940D01*
X306940Y240322D01*
X306907D01*
Y417322D01*
X306934D01*
X306527Y421455D01*
X305322Y425429D01*
X303364Y429091D01*
X300729Y432301D01*
X297519Y434936D01*
X293857Y436894D01*
X289883Y438099D01*
X285750Y438506D01*
Y438479D01*
X249428D01*
X249338Y438461D01*
X246942Y438776D01*
X244624Y439736D01*
X242635Y441263D01*
X241108Y443252D01*
X240148Y445569D01*
X239833Y447966D01*
X239851Y448056D01*
Y462374D01*
X244348D01*
X245339Y462571D01*
X246179Y463133D01*
X246740Y463973D01*
X246938Y464964D01*
Y519684D01*
X246740Y520675D01*
X246179Y521515D01*
X245339Y522077D01*
X244348Y522274D01*
D02*
G37*
G36*
X361188D02*
X344424D01*
X343433Y522077D01*
X342593Y521515D01*
X342031Y520675D01*
X341834Y519684D01*
Y464964D01*
X342031Y463973D01*
X342593Y463133D01*
X343433Y462571D01*
X344424Y462374D01*
X348921D01*
Y255778D01*
X348910D01*
X349253Y252292D01*
X350270Y248941D01*
X351921Y245852D01*
X354143Y243145D01*
X356850Y240923D01*
X359939Y239272D01*
X363290Y238255D01*
X366776Y237912D01*
Y237923D01*
X374022D01*
Y235240D01*
X399102D01*
Y237895D01*
X407359D01*
X417623Y227631D01*
X418883Y226789D01*
X420370Y226493D01*
X429171D01*
X430218Y224681D01*
X431945Y222954D01*
X434061Y221732D01*
X436421Y221100D01*
X438863D01*
X441223Y221732D01*
X443339Y222954D01*
X445066Y224681D01*
X446288Y226797D01*
X446920Y229156D01*
Y231600D01*
X446288Y233959D01*
X445066Y236075D01*
X443339Y237802D01*
X441223Y239024D01*
X438863Y239656D01*
X436421D01*
X434061Y239024D01*
X431945Y237802D01*
X430218Y236075D01*
X429171Y234263D01*
X421979D01*
X411715Y244527D01*
X410455Y245369D01*
X408968Y245665D01*
X399102D01*
Y248320D01*
X374022D01*
Y245693D01*
X366776D01*
X366673Y245672D01*
X364157Y246003D01*
X361716Y247014D01*
X359620Y248622D01*
X358012Y250718D01*
X357001Y253159D01*
X356670Y255674D01*
X356691Y255778D01*
Y462374D01*
X361188D01*
X362179Y462571D01*
X363019Y463133D01*
X363581Y463973D01*
X363778Y464964D01*
Y519684D01*
X363581Y520675D01*
X363019Y521515D01*
X362179Y522077D01*
X361188Y522274D01*
D02*
G37*
G36*
X402336Y225665D02*
X386562D01*
X385075Y225369D01*
X383815Y224527D01*
X382973Y223267D01*
X382677Y221780D01*
X382973Y220293D01*
X383815Y219033D01*
X385075Y218191D01*
X386562Y217895D01*
X402145D01*
X402336Y217857D01*
X403823Y218153D01*
X405083Y218995D01*
X405925Y220255D01*
X406221Y221742D01*
Y221780D01*
X405925Y223267D01*
X405083Y224527D01*
X403823Y225369D01*
X402336Y225665D01*
D02*
G37*
G36*
X46314Y202386D02*
X44110D01*
X44049Y202361D01*
X35052D01*
X34802Y202311D01*
X32512D01*
X32512Y202311D01*
Y202311D01*
X31242Y202147D01*
X31217Y202164D01*
X30226Y202361D01*
X25654D01*
X24663Y202164D01*
X23823Y201602D01*
X23261Y200762D01*
X23205Y200481D01*
X20704D01*
X19217Y200185D01*
X17957Y199343D01*
X17115Y198083D01*
X16819Y196596D01*
X17115Y195109D01*
X17957Y193849D01*
X19217Y193007D01*
X20704Y192711D01*
X23064D01*
Y189052D01*
X20405D01*
X18919Y188757D01*
X17658Y187915D01*
X16816Y186654D01*
X16521Y185168D01*
X16816Y183681D01*
X17658Y182421D01*
X18919Y181579D01*
X20405Y181283D01*
X23205D01*
X23261Y181000D01*
X23823Y180160D01*
X24663Y179598D01*
X25654Y179401D01*
X30226D01*
X31192Y179593D01*
X31217Y179598D01*
X32462Y178903D01*
Y173990D01*
X30607D01*
Y171700D01*
X30557Y171450D01*
Y163830D01*
X30607Y163580D01*
Y161290D01*
X32897D01*
X33147Y161240D01*
X42037D01*
X42287Y161290D01*
X44577D01*
Y163580D01*
X44627Y163830D01*
Y171450D01*
X44577Y171700D01*
Y173990D01*
X42287D01*
X42214Y174005D01*
Y179401D01*
X48260D01*
X49251Y179598D01*
X50091Y180160D01*
X50653Y181000D01*
X50850Y181991D01*
Y199771D01*
X50653Y200762D01*
X50091Y201602D01*
X49251Y202164D01*
X48260Y202361D01*
X46375D01*
X46314Y202386D01*
D02*
G37*
G36*
X224562Y205665D02*
X208788D01*
X207301Y205369D01*
X206041Y204527D01*
X205199Y203267D01*
X204903Y201780D01*
X205199Y200293D01*
X206041Y199033D01*
X207301Y198191D01*
X208788Y197895D01*
X224562D01*
X226049Y198191D01*
X227309Y199033D01*
X228151Y200293D01*
X228447Y201780D01*
X228151Y203267D01*
X227309Y204527D01*
X226049Y205369D01*
X224562Y205665D01*
D02*
G37*
G36*
X42037Y158800D02*
X33147D01*
X32897Y158750D01*
X30607D01*
Y156460D01*
X30557Y156210D01*
Y148590D01*
X30607Y148340D01*
Y146050D01*
X32836D01*
Y139617D01*
X31591Y138921D01*
X31566Y138926D01*
X30600Y139119D01*
X26028D01*
X25037Y138921D01*
X24197Y138360D01*
X23635Y137520D01*
X23579Y137239D01*
X21078D01*
X19591Y136943D01*
X18331Y136101D01*
X17489Y134840D01*
X17193Y133354D01*
X17489Y131867D01*
X18331Y130607D01*
X19591Y129765D01*
X21078Y129469D01*
X23438D01*
Y126903D01*
X22168Y125848D01*
X22128Y125850D01*
X21078Y126165D01*
X19905Y125875D01*
X19341Y125763D01*
X18081Y124921D01*
X17239Y123661D01*
X16943Y122174D01*
X16938D01*
X17254Y120590D01*
X18151Y119247D01*
X19494Y118349D01*
X21078Y118034D01*
Y118039D01*
X23579D01*
X23635Y117758D01*
X24197Y116918D01*
X25037Y116356D01*
X26028Y116159D01*
X30600D01*
X31591Y116356D01*
X31616Y116373D01*
X32886Y116209D01*
X33568Y115221D01*
Y102292D01*
X30600D01*
X29609Y102095D01*
X28769Y101533D01*
X28207Y100693D01*
X28010Y99702D01*
Y84702D01*
X28207Y83711D01*
X28769Y82871D01*
X29609Y82309D01*
X30600Y82112D01*
X71000D01*
X71991Y82309D01*
X72831Y82871D01*
X73393Y83711D01*
X73590Y84702D01*
Y87022D01*
X189484D01*
X189671Y87060D01*
X191516Y86693D01*
X193238Y85542D01*
X194389Y83820D01*
X194756Y81975D01*
X194718Y81788D01*
Y78138D01*
X192024D01*
X191033Y77941D01*
X190193Y77379D01*
X189631Y76539D01*
X189434Y75548D01*
Y20320D01*
X189631Y19329D01*
X190193Y18489D01*
X191033Y17927D01*
X192024Y17730D01*
X198052D01*
X198814Y17526D01*
X201490D01*
X202252Y17730D01*
X208788D01*
X209779Y17927D01*
X210619Y18489D01*
X211181Y19329D01*
X211378Y20320D01*
Y75548D01*
X211181Y76539D01*
X210619Y77379D01*
X209779Y77941D01*
X208788Y78138D01*
X205077D01*
Y81788D01*
X205029Y82032D01*
X204754Y84825D01*
X203868Y87746D01*
X202429Y90438D01*
X200493Y92797D01*
X198134Y94733D01*
X195442Y96172D01*
X192521Y97058D01*
X189728Y97333D01*
X189484Y97381D01*
X73590D01*
Y99702D01*
X73393Y100693D01*
X72831Y101533D01*
X71991Y102095D01*
X71000Y102292D01*
X42632D01*
Y121536D01*
X42588Y121759D01*
Y146050D01*
X44577D01*
Y148340D01*
X44627Y148590D01*
Y156210D01*
X44577Y156460D01*
Y158750D01*
X42287D01*
X42037Y158800D01*
D02*
G37*
G36*
X71000Y76892D02*
X30600D01*
X29609Y76695D01*
X28769Y76133D01*
X28207Y75293D01*
X28010Y74302D01*
Y59302D01*
X28207Y58311D01*
X28769Y57471D01*
X29609Y56909D01*
X30600Y56712D01*
X71000D01*
X71991Y56909D01*
X72831Y57471D01*
X73393Y58311D01*
X73590Y59302D01*
Y74302D01*
X73393Y75293D01*
X72831Y76133D01*
X71991Y76695D01*
X71000Y76892D01*
D02*
G37*
G36*
X284988Y78138D02*
X268224D01*
X267233Y77941D01*
X266393Y77379D01*
X265831Y76539D01*
X265634Y75548D01*
Y20320D01*
X265831Y19329D01*
X266393Y18489D01*
X267233Y17927D01*
X268224Y17730D01*
X284988D01*
X285979Y17927D01*
X286819Y18489D01*
X287381Y19329D01*
X287578Y20320D01*
Y75548D01*
X287381Y76539D01*
X286819Y77379D01*
X285979Y77941D01*
X284988Y78138D01*
D02*
G37*
G36*
X259588D02*
X242824D01*
X241833Y77941D01*
X240993Y77379D01*
X240431Y76539D01*
X240234Y75548D01*
Y20320D01*
X240431Y19329D01*
X240993Y18489D01*
X241833Y17927D01*
X242824Y17730D01*
X259588D01*
X260579Y17927D01*
X261419Y18489D01*
X261981Y19329D01*
X262178Y20320D01*
Y75548D01*
X261981Y76539D01*
X261419Y77379D01*
X260579Y77941D01*
X259588Y78138D01*
D02*
G37*
G36*
X488188D02*
X471424D01*
X470433Y77941D01*
X469593Y77379D01*
X469031Y76539D01*
X468834Y75548D01*
Y20320D01*
X469031Y19329D01*
X469593Y18489D01*
X470433Y17927D01*
X471424Y17730D01*
X477452D01*
X478214Y17526D01*
X480890D01*
X481652Y17730D01*
X488188D01*
X489179Y17927D01*
X490019Y18489D01*
X490581Y19329D01*
X490778Y20320D01*
Y75548D01*
X490581Y76539D01*
X490019Y77379D01*
X489179Y77941D01*
X488188Y78138D01*
D02*
G37*
G36*
X462788D02*
X446024D01*
X445033Y77941D01*
X444193Y77379D01*
X443632Y76539D01*
X443434Y75548D01*
Y20320D01*
X443632Y19329D01*
X444193Y18489D01*
X445033Y17927D01*
X446024Y17730D01*
X452052D01*
X452814Y17526D01*
X455490D01*
X456252Y17730D01*
X462788D01*
X463779Y17927D01*
X464619Y18489D01*
X465181Y19329D01*
X465378Y20320D01*
Y75548D01*
X465181Y76539D01*
X464619Y77379D01*
X463779Y77941D01*
X462788Y78138D01*
D02*
G37*
G36*
X437388D02*
X420624D01*
X419633Y77941D01*
X418793Y77379D01*
X418232Y76539D01*
X418034Y75548D01*
Y20320D01*
X418232Y19329D01*
X418793Y18489D01*
X419633Y17927D01*
X420624Y17730D01*
X426652D01*
X427414Y17526D01*
X430090D01*
X430852Y17730D01*
X437388D01*
X438379Y17927D01*
X439219Y18489D01*
X439781Y19329D01*
X439978Y20320D01*
Y75548D01*
X439781Y76539D01*
X439219Y77379D01*
X438379Y77941D01*
X437388Y78138D01*
D02*
G37*
G36*
X411988D02*
X395224D01*
X394233Y77941D01*
X393393Y77379D01*
X392831Y76539D01*
X392634Y75548D01*
Y20320D01*
X392831Y19329D01*
X393393Y18489D01*
X394233Y17927D01*
X395224Y17730D01*
X401252D01*
X402014Y17526D01*
X404690D01*
X405452Y17730D01*
X411988D01*
X412979Y17927D01*
X413819Y18489D01*
X414381Y19329D01*
X414578Y20320D01*
Y75548D01*
X414381Y76539D01*
X413819Y77379D01*
X412979Y77941D01*
X411988Y78138D01*
D02*
G37*
G36*
X386588D02*
X369824D01*
X368833Y77941D01*
X367993Y77379D01*
X367431Y76539D01*
X367234Y75548D01*
Y20320D01*
X367431Y19329D01*
X367993Y18489D01*
X368833Y17927D01*
X369824Y17730D01*
X375852D01*
X376614Y17526D01*
X379290D01*
X380052Y17730D01*
X386588D01*
X387579Y17927D01*
X388419Y18489D01*
X388981Y19329D01*
X389178Y20320D01*
Y75548D01*
X388981Y76539D01*
X388419Y77379D01*
X387579Y77941D01*
X386588Y78138D01*
D02*
G37*
G36*
X310388D02*
X293624D01*
X292633Y77941D01*
X291793Y77379D01*
X291757Y77326D01*
X291228D01*
Y76522D01*
X291034Y75548D01*
Y20320D01*
X291231Y19329D01*
X291793Y18489D01*
X292633Y17927D01*
X293624Y17730D01*
X299652D01*
X300414Y17526D01*
X303090D01*
X303852Y17730D01*
X310388D01*
X311379Y17927D01*
X312219Y18489D01*
X312781Y19329D01*
X312978Y20320D01*
Y75548D01*
X312784Y76523D01*
Y77326D01*
X312255D01*
X312219Y77379D01*
X311379Y77941D01*
X310388Y78138D01*
D02*
G37*
G36*
X234188D02*
X217424D01*
X216433Y77941D01*
X215593Y77379D01*
X215031Y76539D01*
X214834Y75548D01*
Y20320D01*
X215031Y19329D01*
X215593Y18489D01*
X216433Y17927D01*
X217424Y17730D01*
X223452D01*
X224214Y17526D01*
X226889D01*
X227652Y17730D01*
X234188D01*
X235179Y17927D01*
X236019Y18489D01*
X236581Y19329D01*
X236778Y20320D01*
Y75548D01*
X236581Y76539D01*
X236019Y77379D01*
X235179Y77941D01*
X234188Y78138D01*
D02*
G37*
G36*
X183388D02*
X166624D01*
X165633Y77941D01*
X164793Y77379D01*
X164231Y76539D01*
X164034Y75548D01*
Y20320D01*
X164231Y19329D01*
X164793Y18489D01*
X165633Y17927D01*
X166624Y17730D01*
X172652D01*
X173414Y17526D01*
X176089D01*
X176852Y17730D01*
X183388D01*
X184379Y17927D01*
X185219Y18489D01*
X185781Y19329D01*
X185978Y20320D01*
Y75548D01*
X185781Y76539D01*
X185219Y77379D01*
X184379Y77941D01*
X183388Y78138D01*
D02*
G37*
G36*
X157988D02*
X141224D01*
X140233Y77941D01*
X139393Y77379D01*
X138831Y76539D01*
X138634Y75548D01*
Y20320D01*
X138831Y19329D01*
X139393Y18489D01*
X140233Y17927D01*
X141224Y17730D01*
X147252D01*
X148014Y17526D01*
X150689D01*
X151452Y17730D01*
X157988D01*
X158979Y17927D01*
X159819Y18489D01*
X160381Y19329D01*
X160578Y20320D01*
Y75548D01*
X160381Y76539D01*
X159819Y77379D01*
X158979Y77941D01*
X157988Y78138D01*
D02*
G37*
G36*
X132588D02*
X115824D01*
X114833Y77941D01*
X113993Y77379D01*
X113431Y76539D01*
X113234Y75548D01*
Y20320D01*
X113431Y19329D01*
X113792Y18789D01*
Y17526D01*
X134112D01*
Y18283D01*
X134419Y18489D01*
X134981Y19329D01*
X135178Y20320D01*
Y75548D01*
X134981Y76539D01*
X134419Y77379D01*
X133579Y77941D01*
X132588Y78138D01*
D02*
G37*
%LPD*%
D12*
X485140Y271526D02*
G03*
X477520Y263906I0J-7620D01*
G01*
X496570Y289560D02*
G03*
X497078Y290068I0J508D01*
G01*
X487426Y289560D02*
G03*
X477520Y279654I0J-9906D01*
G01*
X469392Y255778D02*
G03*
X477520Y263906I0J8128D01*
G01*
X461264Y306578D02*
G03*
X483362Y328676I0J22098D01*
G01*
Y411734D02*
G03*
X457962Y437134I-25400J0D01*
G01*
X429006Y447294D02*
G03*
X439166Y437134I10160J0D01*
G01*
X452628Y331978D02*
G03*
X468122Y347472I0J15494D01*
G01*
Y408686D02*
G03*
X452374Y424434I-15748J0D01*
G01*
X403606Y434594D02*
G03*
X413766Y424434I10160J0D01*
G01*
X141732Y229870D02*
G03*
X132334Y220472I0J-9398D01*
G01*
Y134366D02*
G03*
X144780Y121920I12446J0D01*
G01*
X352552Y110998D02*
G03*
X341630Y121920I-10922J0D01*
G01*
X352806Y110744D02*
G03*
X352552Y110998I-254J0D01*
G01*
X134366Y306070D02*
G03*
X159766Y280670I25400J0D01*
G01*
Y338836D02*
G03*
X167132Y331470I7366J0D01*
G01*
X303022Y417322D02*
G03*
X285750Y434594I-17272J0D01*
G01*
X284480Y221780D02*
G03*
X303022Y240322I0J18542D01*
G01*
X262636Y261780D02*
G03*
X280162Y279306I0J17526D01*
G01*
Y395224D02*
G03*
X262636Y412750I-17526J0D01*
G01*
X251714Y380492D02*
G03*
X236728Y395478I-14986J0D01*
G01*
X185166Y415544D02*
G03*
X205232Y395478I20066J0D01*
G01*
X243078Y301780D02*
G03*
X251714Y310416I0J8636D01*
G01*
X210566Y438150D02*
G03*
X235966Y412750I25400J0D01*
G01*
Y448056D02*
G03*
X249428Y434594I13462J0D01*
G01*
X352806Y255778D02*
G03*
X366776Y241808I13970J0D01*
G01*
X20828Y122174D02*
G03*
X21078Y121924I250J0D01*
G01*
X386562Y389916D02*
G03*
X382524Y393954I-4038J0D01*
G01*
X378206Y398272D02*
G03*
X382524Y393954I4318J0D01*
G01*
X564776Y280162D02*
G03*
X550672Y274320I0J-19946D01*
G01*
X467611Y201780D02*
G03*
X485572Y209219I0J25400D01*
G01*
X487962Y247627D02*
Y247803D01*
X496445Y256286D01*
X497080D01*
X485140Y271526D02*
X497080D01*
X487426Y289560D02*
X496570D01*
X477520Y263906D02*
Y279654D01*
X437642Y255778D02*
X469392D01*
X437642Y306578D02*
X461264D01*
X483362Y328676D02*
Y411734D01*
X439166Y437134D02*
X457962D01*
X429006Y447294D02*
Y473964D01*
X437642Y331978D02*
X452628D01*
X468122Y347472D02*
Y408686D01*
X413766Y424434D02*
X452374D01*
X403606Y434594D02*
Y473964D01*
X420370Y306578D02*
X437642D01*
X415572Y301780D02*
X420370Y306578D01*
X386562Y301780D02*
X415572D01*
X141732Y229870D02*
X179832D01*
X132334Y134366D02*
Y220472D01*
X144780Y121920D02*
X341630D01*
X352806Y66913D02*
Y110744D01*
X159766Y280670D02*
X179832D01*
X134366Y306070D02*
Y473964D01*
X167132Y331470D02*
X179832D01*
X159766Y338836D02*
Y473964D01*
X420370Y230378D02*
X437642D01*
X408968Y241780D02*
X420370Y230378D01*
X386562Y241780D02*
X408968D01*
X420370Y255778D02*
X437642D01*
X414368Y261780D02*
X420370Y255778D01*
X386562Y261780D02*
X414368D01*
X418084Y331470D02*
X437642D01*
X408394Y321780D02*
X418084Y331470D01*
X386562Y321780D02*
X408394D01*
X418084Y356870D02*
X437642D01*
X402994Y341780D02*
X418084Y356870D01*
X386562Y341780D02*
X402994D01*
X179832Y331470D02*
X195732D01*
X205422Y321780D02*
X224562D01*
X195732Y331470D02*
X205422Y321780D01*
X179832Y306070D02*
X199136D01*
X203426Y301780D02*
X224562D01*
X199136Y306070D02*
X203426Y301780D01*
X197866Y255270D02*
X204376Y261780D01*
X179832Y255270D02*
X197866D01*
X204376Y261780D02*
X224562D01*
X179832Y229870D02*
X192518D01*
X204428Y241780D01*
X224562D01*
X179832Y204470D02*
X192082D01*
X209392Y221780D02*
X224562D01*
X192082Y204470D02*
X209392Y221780D01*
X179832Y280670D02*
X223452D01*
X224562Y281780D01*
X303022Y240322D02*
Y417322D01*
X280162Y279306D02*
Y395224D01*
X205232Y395478D02*
X236728D01*
X251714Y310416D02*
Y380492D01*
X210566Y438150D02*
Y473964D01*
X185166Y415544D02*
Y473964D01*
X235966Y448056D02*
Y473964D01*
X249428Y434594D02*
X285750D01*
X366776Y241808D02*
X386562D01*
X352806Y255778D02*
Y473964D01*
X386562Y241780D02*
Y241808D01*
X20704Y196596D02*
X27940D01*
X20405Y185168D02*
X27641D01*
X21078Y133354D02*
X28314D01*
X21078Y121924D02*
X28314D01*
X208788Y341780D02*
X224562D01*
X208788Y201780D02*
X224562D01*
X402336Y221742D02*
Y221780D01*
X386562D02*
X402336D01*
X386562Y341780D02*
Y389916D01*
X378206Y398272D02*
Y473964D01*
X224562Y221780D02*
X284480D01*
X224562Y261780D02*
X262636D01*
X235966Y412750D02*
X262636D01*
X224562Y301780D02*
X243078D01*
X564776Y280162D02*
X630428D01*
X485572Y209219D02*
X550672Y274320D01*
X386562Y201780D02*
X467611D01*
D15*
X497078Y305308D02*
D03*
X497080Y256286D02*
D03*
X37592Y167640D02*
D03*
Y152400D02*
D03*
X497078Y290068D02*
D03*
X497080Y271526D02*
D03*
X37592Y167640D02*
D03*
Y152400D02*
D03*
D16*
X28314Y133354D02*
D03*
X37712D02*
D03*
X27940Y185166D02*
D03*
X37338D02*
D03*
X27940Y196596D02*
D03*
X37338D02*
D03*
X28314Y121924D02*
D03*
X37712D02*
D03*
D17*
X629428Y307162D02*
D03*
Y280162D02*
D03*
Y253162D02*
D03*
D18*
X386562Y341780D02*
D03*
Y321780D02*
D03*
Y301780D02*
D03*
Y281780D02*
D03*
Y261780D02*
D03*
Y241780D02*
D03*
Y221780D02*
D03*
Y201780D02*
D03*
X224562D02*
D03*
Y221780D02*
D03*
Y241780D02*
D03*
Y261780D02*
D03*
Y281780D02*
D03*
Y301780D02*
D03*
Y321780D02*
D03*
Y341780D02*
D03*
D31*
X487962Y247627D02*
D03*
X409956Y209296D02*
D03*
X425196Y194056D02*
D03*
X440436Y209296D02*
D03*
Y194056D02*
D03*
X425196Y209296D02*
D03*
X409956Y194056D02*
D03*
X497078Y316738D02*
D03*
X45212Y196846D02*
D03*
Y185166D02*
D03*
X390144Y150622D02*
D03*
X322580Y200152D02*
D03*
X309626D02*
D03*
X93218Y339090D02*
D03*
Y326136D02*
D03*
X296672Y200152D02*
D03*
X283718D02*
D03*
X270764D02*
D03*
X390144Y98806D02*
D03*
Y111760D02*
D03*
Y124714D02*
D03*
Y137668D02*
D03*
X30226Y246634D02*
D03*
Y259588D02*
D03*
Y272542D02*
D03*
Y285496D02*
D03*
Y298450D02*
D03*
X93218Y352044D02*
D03*
Y364998D02*
D03*
Y377952D02*
D03*
X523240Y461464D02*
D03*
Y474418D02*
D03*
Y487372D02*
D03*
Y500326D02*
D03*
Y513280D02*
D03*
X624078Y387604D02*
D03*
Y400558D02*
D03*
Y413512D02*
D03*
Y426466D02*
D03*
Y439420D02*
D03*
X624332Y139700D02*
D03*
Y152654D02*
D03*
Y165608D02*
D03*
Y178562D02*
D03*
Y191516D02*
D03*
X516890Y23876D02*
D03*
Y36830D02*
D03*
Y49784D02*
D03*
Y62738D02*
D03*
Y75692D02*
D03*
X64262Y10668D02*
D03*
X51308D02*
D03*
X38354D02*
D03*
X25400D02*
D03*
X12446D02*
D03*
X20454Y196846D02*
D03*
X20155Y185418D02*
D03*
X20828Y133604D02*
D03*
Y122174D02*
D03*
X208788Y341818D02*
D03*
Y201818D02*
D03*
X402336Y221742D02*
D03*
X602234Y300348D02*
D03*
Y312406D02*
D03*
Y248158D02*
D03*
Y260216D02*
D03*
X640588Y237744D02*
D03*
X629428D02*
D03*
X618268D02*
D03*
X607108D02*
D03*
Y322580D02*
D03*
X618268D02*
D03*
X629428D02*
D03*
X640588D02*
D03*
X559562Y271526D02*
D03*
X552450Y285242D02*
D03*
X549910Y263652D02*
D03*
X539750Y275082D02*
D03*
X538988Y252476D02*
D03*
X528828Y263906D02*
D03*
X528066Y241300D02*
D03*
X517906Y252730D02*
D03*
X506984Y241554D02*
D03*
X517144Y230124D02*
D03*
X496062Y230378D02*
D03*
X507238Y220218D02*
D03*
X497840Y209550D02*
D03*
X487172Y198882D02*
D03*
X485394Y219710D02*
D03*
X470916Y209296D02*
D03*
X571754Y287902D02*
D03*
Y272662D02*
D03*
X586994Y287902D02*
D03*
Y272662D02*
D03*
X602234D02*
D03*
Y287902D02*
D03*
X470916Y194056D02*
D03*
X455676D02*
D03*
Y209296D02*
D03*
D32*
X199898Y67056D02*
G03*
X200406Y66548I508J0D01*
G01*
X199898Y81788D02*
G03*
X189484Y92202I-10414J0D01*
G01*
X199898Y67056D02*
Y81788D01*
X63500Y92202D02*
X189484D01*
D33*
X386562Y281780D02*
X436532D01*
X437642Y280670D01*
X38100Y92202D02*
Y121536D01*
D34*
X497078Y310711D02*
D03*
D35*
X497079Y280797D02*
D03*
D36*
X378206Y47934D02*
D03*
X403606D02*
D03*
X454406D02*
D03*
X479806D02*
D03*
X429006D02*
D03*
X124206D02*
D03*
X352806D02*
D03*
X302006D02*
D03*
X276606D02*
D03*
X251206D02*
D03*
X225806D02*
D03*
X200406D02*
D03*
X175006D02*
D03*
X149606D02*
D03*
D37*
X479806Y492324D02*
D03*
X302006D02*
D03*
X261366D02*
D03*
X32766D02*
D03*
X58166D02*
D03*
X83566D02*
D03*
X108966D02*
D03*
X134366D02*
D03*
X159766D02*
D03*
X185166D02*
D03*
X210566D02*
D03*
X235966D02*
D03*
X327406D02*
D03*
X352806D02*
D03*
X378206D02*
D03*
X403606D02*
D03*
X429006D02*
D03*
X454406D02*
D03*
D38*
X629428Y249203D02*
D03*
Y311121D02*
D03*
D39*
X41656Y190881D02*
D03*
D40*
X28314Y127639D02*
D03*
X27940Y190881D02*
D03*
D41*
X37338Y183706D02*
D03*
D42*
X37712Y135574D02*
D03*
D43*
X50800Y66802D02*
D03*
Y92202D02*
D03*
D44*
X437642Y357378D02*
D03*
D45*
Y331978D02*
D03*
Y306578D02*
D03*
Y281178D02*
D03*
Y255778D02*
D03*
Y230378D02*
D03*
X378206Y66913D02*
D03*
X403606D02*
D03*
X454406D02*
D03*
X429006D02*
D03*
X32766Y473964D02*
D03*
X352806Y66913D02*
D03*
X63500Y92202D02*
D03*
Y66802D02*
D03*
D46*
X179832Y356870D02*
D03*
D47*
Y331470D02*
D03*
Y306070D02*
D03*
Y280670D02*
D03*
Y255270D02*
D03*
Y229870D02*
D03*
Y204470D02*
D03*
Y179070D02*
D03*
X302006Y473964D02*
D03*
X124206Y66548D02*
D03*
X454406Y473964D02*
D03*
X429006D02*
D03*
X403606D02*
D03*
X378206D02*
D03*
X352806D02*
D03*
X327406D02*
D03*
X235966D02*
D03*
X210566D02*
D03*
X185166D02*
D03*
X159766D02*
D03*
X134366D02*
D03*
X108966D02*
D03*
X83566D02*
D03*
X175006Y66548D02*
D03*
X225806D02*
D03*
X149606D02*
D03*
X276606D02*
D03*
X251206D02*
D03*
X200406D02*
D03*
D48*
X123952Y27686D02*
D03*
X261112Y510286D02*
D03*
X479552D02*
D03*
X352552Y27686D02*
D03*
D49*
X149352D02*
D03*
X32512Y510286D02*
D03*
X57912D02*
D03*
X301752Y27686D02*
D03*
X174752D02*
D03*
X108712Y510286D02*
D03*
X276352Y27686D02*
D03*
X250952D02*
D03*
X134112Y510286D02*
D03*
X159512D02*
D03*
X184912D02*
D03*
X210312D02*
D03*
X235712D02*
D03*
X301752D02*
D03*
X327152D02*
D03*
X352552D02*
D03*
X377952D02*
D03*
X403352D02*
D03*
X428752D02*
D03*
X454152D02*
D03*
X83312D02*
D03*
X479552Y27686D02*
D03*
X454152D02*
D03*
X428752D02*
D03*
X403352D02*
D03*
X377952D02*
D03*
X225552D02*
D03*
X200152D02*
D03*
D50*
X479806Y473964D02*
D03*
X261366D02*
D03*
X302006Y66548D02*
D03*
D51*
X479806Y66913D02*
D03*
X58166Y473964D02*
D03*
X38100Y92202D02*
D03*
Y66802D02*
D03*
M02*
