G04*
G04 #@! TF.GenerationSoftware,Altium Limited,Altium Designer,25.6.2 (33)*
G04*
G04 Layer_Color=8421504*
%FSLAX44Y44*%
%MOMM*%
G71*
G04*
G04 #@! TF.SameCoordinates,9B6F8C68-430D-48FD-858A-4A9C4FCAB163*
G04*
G04*
G04 #@! TF.FilePolarity,Positive*
G04*
G01*
G75*
%ADD15R,0.8890X0.7620*%
%ADD16R,0.4572X0.6350*%
%ADD17R,3.7000X1.5000*%
%ADD18R,2.0000X0.8000*%
D15*
X497078Y305308D02*
D03*
X497080Y256286D02*
D03*
X37592Y167640D02*
D03*
Y152400D02*
D03*
X497078Y290068D02*
D03*
X497080Y271526D02*
D03*
D16*
X28314Y133354D02*
D03*
X37712D02*
D03*
X27940Y185166D02*
D03*
X37338D02*
D03*
X27940Y196596D02*
D03*
X37338D02*
D03*
X28314Y121924D02*
D03*
X37712D02*
D03*
D17*
X629428Y307162D02*
D03*
Y280162D02*
D03*
Y253162D02*
D03*
D18*
X386562Y341780D02*
D03*
Y321780D02*
D03*
Y301780D02*
D03*
Y281780D02*
D03*
Y261780D02*
D03*
Y241780D02*
D03*
Y221780D02*
D03*
Y201780D02*
D03*
X224562D02*
D03*
Y221780D02*
D03*
Y241780D02*
D03*
Y261780D02*
D03*
Y281780D02*
D03*
Y301780D02*
D03*
Y321780D02*
D03*
Y341780D02*
D03*
M02*
